<svg xmlns="http://www.w3.org/2000/svg" version="1.1" xmlns:xlink="http://www.w3.org/1999/xlink" xmlns:svgjs="http://svgjs.dev/svgjs" width="2000" height="1080" viewBox="0 0 2000 1080"><g transform="matrix(1,0,0,1,-1.2121212121212466,-1.3166495046079945)"><svg viewBox="0 0 396 214" data-background-color="#89939e" preserveAspectRatio="xMidYMid meet" height="1080" width="2000" xmlns="http://www.w3.org/2000/svg" xmlns:xlink="http://www.w3.org/1999/xlink"><g id="tight-bounds" transform="matrix(1,0,0,1,0.2400000000000091,0.2608916610982419)"><svg viewBox="0 0 395.52 213.47821667780352" height="213.47821667780352" width="395.52"><g><svg viewBox="0 0 397.4975999999999 214.5456077611925" height="213.47821667780352" width="395.52"><g><rect width="397.4975999999999" height="4.873758890211619" x="0" y="119.60232420213433" fill="#ffffff" opacity="1" stroke-width="0" stroke="transparent" fill-opacity="1" class="rect-yte-0" data-fill-palette-color="primary" rx="1%" id="yte-0" data-palette-color="#ffffff"></rect></g><g transform="matrix(1,0,0,1,0.9887999999999693,137.23461421855438)"><svg viewBox="0 0 395.52 77.31099354263813" height="77.31099354263813" width="395.52"><g id="textblocktransform"><svg viewBox="0 0 395.52 77.31099354263813" height="77.31099354263813" width="395.52" id="textblock"><g><svg viewBox="0 0 395.52 54.04416851441241" height="54.04416851441241" width="395.52"><g transform="matrix(1,0,0,1,0,0)"><svg width="395.52" viewBox="1.1 -38.45 360.77 49.300000000000004" height="54.04416851441241" data-palette-color="#ffffff"><path d="M19.55 0L11.35 0 11.35-30.35 19.55-30.35 19.55 0ZM29.85-29.35L1.1-29.35 1.1-36.5 29.85-36.5 29.85-29.35ZM43.7 0.95L43.7 0.95Q40.2 0.95 37.52-0.25 34.85-1.45 33.07-3.48 31.3-5.5 30.37-8.03 29.45-10.55 29.45-13.2L29.45-13.2 29.45-14.2Q29.45-16.95 30.37-19.48 31.3-22 33.05-24 34.8-26 37.42-27.18 40.05-28.35 43.4-28.35L43.4-28.35Q47.8-28.35 50.82-26.38 53.85-24.4 55.45-21.23 57.05-18.05 57.05-14.3L57.05-14.3 57.05-11.6 32.8-11.6 32.8-16.15 52.2-16.15 49.6-14.05Q49.6-16.5 48.9-18.25 48.2-20 46.82-20.93 45.45-21.85 43.4-21.85L43.4-21.85Q41.3-21.85 39.85-20.9 38.4-19.95 37.65-18.13 36.9-16.3 36.9-13.65L36.9-13.65Q36.9-11.2 37.6-9.38 38.3-7.55 39.8-6.55 41.3-5.55 43.7-5.55L43.7-5.55Q45.9-5.55 47.3-6.4 48.7-7.25 49.2-8.5L49.2-8.5 56.55-8.5Q55.95-5.75 54.2-3.6 52.45-1.45 49.8-0.25 47.15 0.95 43.7 0.95ZM72.75 0.85L72.75 0.85Q66.9 0.85 63.6-1.55 60.3-3.95 60.1-8.3L60.1-8.3 67.2-8.3Q67.4-7 68.77-5.98 70.15-4.95 72.9-4.95L72.9-4.95Q75-4.95 76.37-5.68 77.75-6.4 77.75-7.75L77.75-7.75Q77.75-8.95 76.7-9.68 75.65-10.4 72.95-10.7L72.95-10.7 70.8-10.9Q65.85-11.4 63.37-13.65 60.9-15.9 60.9-19.4L60.9-19.4Q60.9-22.3 62.35-24.25 63.8-26.2 66.37-27.2 68.95-28.2 72.25-28.2L72.25-28.2Q77.55-28.2 80.8-25.88 84.05-23.55 84.2-19.15L84.2-19.15 77.1-19.15Q76.9-20.5 75.7-21.43 74.5-22.35 72.15-22.35L72.15-22.35Q70.3-22.35 69.2-21.65 68.1-20.95 68.1-19.75L68.1-19.75Q68.1-18.6 69.05-18 70-17.4 72.15-17.15L72.15-17.15 74.3-16.95Q79.35-16.4 82.15-14.15 84.95-11.9 84.95-8.1L84.95-8.1Q84.95-5.35 83.45-3.33 81.95-1.3 79.2-0.23 76.45 0.85 72.75 0.85ZM106.44 0.35L102.59 0.35Q98.44 0.35 95.89-0.68 93.34-1.7 92.17-4.13 90.99-6.55 90.99-10.7L90.99-10.7 90.99-34.8 98.44-34.8 98.44-10.4Q98.44-8.45 99.47-7.43 100.49-6.4 102.39-6.4L102.39-6.4 106.44-6.4 106.44 0.35ZM106.44-21.55L86.84-21.55 86.84-27.4 106.44-27.4 106.44-21.55ZM119.79 0L112.29 0 112.29-36.5 123.59-36.5 131.94-16 132.89-16 141.14-36.5 152.64-36.5 152.64 0 144.54 0 144.54-31.15 145.69-31.05 136.04-7.4 128.24-7.4 118.54-31.05 119.79-31.15 119.79 0ZM164.99 10.85L160.09 10.85 160.09 4.05 165.79 4.05Q167.09 4.05 167.99 3.73 168.89 3.4 169.44 2.65 169.99 1.9 170.34 0.6L170.34 0.6 177.09-27.4 184.69-27.4 177.04 2.2Q176.24 5.4 174.81 7.3 173.39 9.2 171.01 10.03 168.64 10.85 164.99 10.85L164.99 10.85ZM174.49-0.6L168.69-0.6 168.69-6.85 174.49-6.85 174.49-0.6ZM172.99-0.6L165.39-0.6 156.99-27.4 165.04-27.4 172.99-0.6ZM202.89 0.2L196.54 0.2 196.54-7.45 203.34-7.45Q205.89-7.45 207.94-8.22 209.99-9 211.44-10.43 212.89-11.85 213.64-13.88 214.39-15.9 214.39-18.35L214.39-18.35Q214.39-20.9 213.64-22.9 212.89-24.9 211.44-26.3 209.99-27.7 207.94-28.43 205.89-29.15 203.34-29.15L203.34-29.15 196.54-29.15 196.54-36.8 202.89-36.8Q207.84-36.8 211.54-35.35 215.24-33.9 217.74-31.4 220.24-28.9 221.46-25.68 222.69-22.45 222.69-18.9L222.69-18.9 222.69-17.8Q222.69-14.5 221.46-11.28 220.24-8.05 217.74-5.48 215.24-2.9 211.54-1.35 207.84 0.2 202.89 0.2L202.89 0.2ZM197.54 0.2L189.34 0.2 189.34-36.8 197.54-36.8 197.54 0.2ZM240.48 0.95L240.48 0.95Q236.98 0.95 234.31-0.25 231.63-1.45 229.86-3.48 228.08-5.5 227.16-8.03 226.23-10.55 226.23-13.2L226.23-13.2 226.23-14.2Q226.23-16.95 227.16-19.48 228.08-22 229.83-24 231.58-26 234.21-27.18 236.83-28.35 240.18-28.35L240.18-28.35Q244.58-28.35 247.61-26.38 250.63-24.4 252.23-21.23 253.83-18.05 253.83-14.3L253.83-14.3 253.83-11.6 229.58-11.6 229.58-16.15 248.98-16.15 246.38-14.05Q246.38-16.5 245.68-18.25 244.98-20 243.61-20.93 242.23-21.85 240.18-21.85L240.18-21.85Q238.08-21.85 236.63-20.9 235.18-19.95 234.43-18.13 233.68-16.3 233.68-13.65L233.68-13.65Q233.68-11.2 234.38-9.38 235.08-7.55 236.58-6.55 238.08-5.55 240.48-5.55L240.48-5.55Q242.68-5.55 244.08-6.4 245.48-7.25 245.98-8.5L245.98-8.5 253.33-8.5Q252.73-5.75 250.98-3.6 249.23-1.45 246.58-0.25 243.93 0.95 240.48 0.95ZM271.93 0L264.18 0 255.98-27.4 264.23-27.4 271.93 0ZM274.73 0L266.68 0 266.68-6.65 274.73-6.65 274.73 0ZM276.88 0L269.63 0 276.28-27.4 283.98-27.4 276.88 0ZM298.03 0L290.03 0 290.03-27.4 298.03-27.4 298.03 0ZM298.03-21.5L286.38-21.5 286.38-27.4 298.03-27.4 298.03-21.5ZM293.13-30.1L293.13-30.1Q290.88-30.1 289.8-31.28 288.73-32.45 288.73-34.25L288.73-34.25Q288.73-36.1 289.8-37.27 290.88-38.45 293.13-38.45L293.13-38.45Q295.38-38.45 296.45-37.27 297.53-36.1 297.53-34.25L297.53-34.25Q297.53-32.45 296.45-31.28 295.38-30.1 293.13-30.1ZM317.73 0.95L317.73 0.95Q314.18 0.95 311.55-0.23 308.93-1.4 307.18-3.4 305.43-5.4 304.58-7.93 303.73-10.45 303.73-13.15L303.73-13.15 303.73-14.1Q303.73-16.9 304.63-19.48 305.53-22.05 307.28-24.05 309.03-26.05 311.65-27.2 314.28-28.35 317.68-28.35L317.68-28.35Q321.38-28.35 324.23-26.93 327.08-25.5 328.78-22.95 330.48-20.4 330.68-17.1L330.68-17.1 322.83-17.1Q322.63-18.95 321.35-20.23 320.08-21.5 317.68-21.5L317.68-21.5Q315.68-21.5 314.35-20.5 313.03-19.5 312.38-17.75 311.73-16 311.73-13.6L311.73-13.6Q311.73-11.4 312.33-9.63 312.93-7.85 314.25-6.88 315.58-5.9 317.73-5.9L317.73-5.9Q319.33-5.9 320.45-6.48 321.58-7.05 322.25-8.08 322.93-9.1 323.08-10.45L323.08-10.45 330.88-10.45Q330.73-7.05 328.98-4.48 327.23-1.9 324.33-0.48 321.43 0.95 317.73 0.95ZM348.52 0.95L348.52 0.95Q345.02 0.95 342.35-0.25 339.67-1.45 337.9-3.48 336.12-5.5 335.2-8.03 334.27-10.55 334.27-13.2L334.27-13.2 334.27-14.2Q334.27-16.95 335.2-19.48 336.12-22 337.87-24 339.62-26 342.25-27.18 344.87-28.35 348.22-28.35L348.22-28.35Q352.62-28.35 355.65-26.38 358.67-24.4 360.27-21.23 361.87-18.05 361.87-14.3L361.87-14.3 361.87-11.6 337.62-11.6 337.62-16.15 357.02-16.15 354.42-14.05Q354.42-16.5 353.72-18.25 353.02-20 351.65-20.93 350.27-21.85 348.22-21.85L348.22-21.85Q346.12-21.85 344.67-20.9 343.22-19.95 342.47-18.13 341.72-16.3 341.72-13.65L341.72-13.65Q341.72-11.2 342.42-9.38 343.12-7.55 344.62-6.55 346.12-5.55 348.52-5.55L348.52-5.55Q350.72-5.55 352.12-6.4 353.52-7.25 354.02-8.5L354.02-8.5 361.37-8.5Q360.77-5.75 359.02-3.6 357.27-1.45 354.62-0.25 351.97 0.95 348.52 0.95Z" opacity="1" transform="matrix(1,0,0,1,0,0)" fill="#ffffff" class="wordmark-text-0" data-fill-palette-color="primary" id="text-0"></path></svg></g></svg></g><g transform="matrix(1,0,0,1,65.26079999999999,66.80269964062083)"><svg viewBox="0 0 264.9984 10.508293902017291" height="10.508293902017291" width="264.9984"><g transform="matrix(1,0,0,1,0,0)"><svg width="264.9984" viewBox="4.4 -38.07 1232.1299999999999 48.870000000000005" height="10.508293902017291" data-palette-color="#ffffff"><path d="M28.27-12.64L28.27-36.36 32.67-36.36 32.67-12.29Q32.67-8.56 30.92-5.64 29.17-2.72 25.99-1.04 22.82 0.64 18.54 0.64L18.54 0.64Q14.26 0.64 11.08-1.04 7.9-2.72 6.15-5.64 4.4-8.56 4.4-12.29L4.4-12.29 4.4-36.36 8.81-36.36 8.81-12.64Q8.81-9.98 9.98-7.91 11.15-5.84 13.33-4.66 15.5-3.48 18.54-3.48L18.54-3.48Q21.57-3.48 23.76-4.66 25.94-5.84 27.1-7.91 28.27-9.98 28.27-12.64L28.27-12.64ZM60.22-21.16L60.22-21.16 56.46-20.1Q56.11-21.04 55.42-21.94 54.74-22.83 53.57-23.42 52.39-24.01 50.57-24.01L50.57-24.01Q48.06-24.01 46.4-22.86 44.74-21.72 44.74-19.96L44.74-19.96Q44.74-18.39 45.88-17.49 47.01-16.58 49.43-15.98L49.43-15.98 53.48-14.99Q57.14-14.1 58.93-12.28 60.72-10.46 60.72-7.6L60.72-7.6Q60.72-5.26 59.38-3.41 58.04-1.56 55.64-0.5 53.25 0.57 50.07 0.57L50.07 0.57Q45.9 0.57 43.16-1.24 40.43-3.05 39.7-6.53L39.7-6.53 43.68-7.53Q44.24-5.33 45.83-4.23 47.42-3.13 50-3.13L50-3.13Q52.93-3.13 54.66-4.38 56.39-5.63 56.39-7.39L56.39-7.39Q56.39-8.81 55.4-9.77 54.4-10.74 52.34-11.22L52.34-11.22 47.8-12.29Q44.05-13.17 42.3-15.05 40.55-16.92 40.55-19.74L40.55-19.74Q40.55-22.05 41.86-23.83 43.16-25.6 45.43-26.62 47.69-27.63 50.57-27.63L50.57-27.63Q54.61-27.63 56.93-25.85 59.25-24.08 60.22-21.16ZM78.48 0.57L78.48 0.57Q74.53 0.57 71.68-1.18 68.83-2.93 67.3-6.08 65.76-9.23 65.76-13.42L65.76-13.42Q65.76-17.61 67.3-20.82 68.83-24.02 71.59-25.83 74.36-27.63 78.05-27.63L78.05-27.63Q80.18-27.63 82.26-26.92 84.33-26.21 86.04-24.62 87.74-23.03 88.76-20.42 89.77-17.81 89.77-13.99L89.77-13.99 89.77-12.22 68.75-12.22 68.75-15.84 85.51-15.84Q85.51-18.15 84.59-19.96 83.68-21.77 82-22.82 80.32-23.86 78.05-23.86L78.05-23.86Q75.55-23.86 73.73-22.63 71.91-21.4 70.93-19.42 69.95-17.45 69.95-15.2L69.95-15.2 69.95-12.78Q69.95-9.69 71.03-7.56 72.1-5.42 74.02-4.31 75.94-3.2 78.48-3.2L78.48-3.2Q80.13-3.2 81.47-3.67 82.81-4.14 83.78-5.09 84.76-6.04 85.29-7.46L85.29-7.46 89.34-6.32Q88.7-4.26 87.19-2.71 85.68-1.15 83.46-0.29 81.25 0.57 78.48 0.57ZM93.6-27.27L108.3-27.27 108.3-23.72 93.6-23.72 93.6-27.27ZM102.19 0L98 0 98-31.04Q98-33.38 99.1-34.94 100.21-36.51 101.96-37.29 103.72-38.07 105.67-38.07L105.67-38.07Q107.22-38.07 108.2-37.82 109.17-37.57 109.65-37.36L109.65-37.36 108.44-33.74Q108.12-33.84 107.57-34 107.01-34.16 106.1-34.16L106.1-34.16Q104.02-34.16 103.11-33.11 102.19-32.07 102.19-30.04L102.19-30.04 102.19 0ZM131.38-11.15L131.38-11.15 131.38-27.27 135.57-27.27 135.57 0 131.38 0 131.38-4.62 131.1-4.62Q130.14-2.54 128.12-1.09 126.09 0.36 123 0.36L123 0.36Q120.44 0.36 118.46-0.77 116.47-1.9 115.33-4.18 114.19-6.46 114.19-9.94L114.19-9.94 114.19-27.27 118.38-27.27 118.38-10.23Q118.38-7.24 120.06-5.47 121.74-3.69 124.35-3.69L124.35-3.69Q125.91-3.69 127.54-4.49 129.16-5.29 130.27-6.94 131.38-8.59 131.38-11.15ZM143.24-36.36L147.43-36.36 147.43 0 143.24 0 143.24-36.36ZM166.6-27.27L181.3-27.27 181.3-23.72 166.6-23.72 166.6-27.27ZM175.2 0L171.01 0 171.01-31.04Q171.01-33.38 172.11-34.94 173.21-36.51 174.96-37.29 176.72-38.07 178.68-38.07L178.68-38.07Q180.22-38.07 181.2-37.82 182.17-37.57 182.65-37.36L182.65-37.36 181.45-33.74Q181.13-33.84 180.57-34 180.01-34.16 179.1-34.16L179.1-34.16Q177.02-34.16 176.11-33.11 175.2-32.07 175.2-30.04L175.2-30.04 175.2 0ZM198.28 0.57L198.28 0.57Q194.58 0.57 191.8-1.19 189.02-2.95 187.47-6.11 185.92-9.27 185.92-13.49L185.92-13.49Q185.92-17.76 187.47-20.93 189.02-24.11 191.8-25.87 194.58-27.63 198.28-27.63L198.28-27.63Q201.97-27.63 204.75-25.87 207.53-24.11 209.08-20.93 210.63-17.76 210.63-13.49L210.63-13.49Q210.63-9.27 209.08-6.11 207.53-2.95 204.75-1.19 201.97 0.57 198.28 0.57ZM198.28-3.2L198.28-3.2Q201.08-3.2 202.89-4.63 204.7-6.07 205.57-8.42 206.44-10.76 206.44-13.49L206.44-13.49Q206.44-16.23 205.57-18.59 204.7-20.95 202.89-22.41 201.08-23.86 198.28-23.86L198.28-23.86Q195.47-23.86 193.66-22.41 191.85-20.95 190.98-18.59 190.11-16.23 190.11-13.49L190.11-13.49Q190.11-10.76 190.98-8.42 191.85-6.07 193.66-4.63 195.47-3.2 198.28-3.2ZM221.21 0L217.02 0 217.02-27.27 221.07-27.27 221.07-23.15 221.36-23.15Q222.1-25.18 224.05-26.44 226.01-27.7 228.46-27.7L228.46-27.7Q228.92-27.7 229.61-27.68 230.3-27.66 230.66-27.63L230.66-27.63 230.66-23.37Q230.45-23.42 229.69-23.54 228.94-23.65 228.1-23.65L228.1-23.65Q226.11-23.65 224.56-22.82 223.01-22 222.11-20.55 221.21-19.11 221.21-17.26L221.21-17.26 221.21 0ZM259.7-32.46L248.27-32.46 248.27-36.36 275.54-36.36 275.54-32.46 264.11-32.46 264.11 0 259.7 0 259.7-32.46ZM293.22 0.57L293.22 0.57Q289.28 0.57 286.43-1.18 283.58-2.93 282.05-6.08 280.51-9.23 280.51-13.42L280.51-13.42Q280.51-17.61 282.05-20.82 283.58-24.02 286.34-25.83 289.1-27.63 292.8-27.63L292.8-27.63Q294.93-27.63 297-26.92 299.08-26.21 300.79-24.62 302.49-23.03 303.5-20.42 304.52-17.81 304.52-13.99L304.52-13.99 304.52-12.22 283.49-12.22 283.49-15.84 300.25-15.84Q300.25-18.15 299.34-19.96 298.43-21.77 296.75-22.82 295.07-23.86 292.8-23.86L292.8-23.86Q290.29-23.86 288.47-22.63 286.65-21.4 285.68-19.42 284.7-17.45 284.7-15.2L284.7-15.2 284.7-12.78Q284.7-9.69 285.77-7.56 286.85-5.42 288.77-4.31 290.68-3.2 293.22-3.2L293.22-3.2Q294.87-3.2 296.21-3.67 297.56-4.14 298.53-5.09 299.51-6.04 300.04-7.46L300.04-7.46 304.09-6.32Q303.45-4.26 301.94-2.71 300.43-1.15 298.21-0.29 295.99 0.57 293.22 0.57ZM330.22-21.16L330.22-21.16 326.46-20.1Q326.1-21.04 325.42-21.94 324.74-22.83 323.56-23.42 322.39-24.01 320.56-24.01L320.56-24.01Q318.06-24.01 316.4-22.86 314.74-21.72 314.74-19.96L314.74-19.96Q314.74-18.39 315.88-17.49 317.01-16.58 319.43-15.98L319.43-15.98 323.48-14.99Q327.13-14.1 328.93-12.28 330.72-10.46 330.72-7.6L330.72-7.6Q330.72-5.26 329.38-3.41 328.04-1.56 325.64-0.5 323.25 0.57 320.07 0.57L320.07 0.57Q315.89 0.57 313.16-1.24 310.43-3.05 309.7-6.53L309.7-6.53 313.67-7.53Q314.24-5.33 315.83-4.23 317.42-3.13 320-3.13L320-3.13Q322.93-3.13 324.66-4.38 326.39-5.63 326.39-7.39L326.39-7.39Q326.39-8.81 325.39-9.77 324.4-10.74 322.34-11.22L322.34-11.22 317.79-12.29Q314.05-13.17 312.3-15.05 310.55-16.92 310.55-19.74L310.55-19.74Q310.55-22.05 311.85-23.83 313.16-25.6 315.42-26.62 317.69-27.63 320.56-27.63L320.56-27.63Q324.61-27.63 326.93-25.85 329.25-24.08 330.22-21.16ZM334.77-27.27L348.9-27.27 348.9-23.72 334.77-23.72 334.77-27.27ZM338.89-6.68L338.89-33.81 343.08-33.81 343.08-7.81Q343.08-6.04 343.6-5.16 344.12-4.28 344.95-3.99 345.77-3.69 346.7-3.69L346.7-3.69Q347.39-3.69 347.83-3.77 348.28-3.85 348.54-3.91L348.54-3.91 349.4-0.14Q348.97 0.02 348.21 0.19 347.44 0.36 346.27 0.36L346.27 0.36Q344.5 0.36 342.8-0.41 341.1-1.17 340-2.73 338.89-4.3 338.89-6.68L338.89-6.68ZM359.41 0L355.22 0 355.22-27.27 359.41-27.27 359.41 0ZM357.35-31.82L357.35-31.82Q356.12-31.82 355.24-32.65 354.37-33.49 354.37-34.66L354.37-34.66Q354.37-35.83 355.24-36.67 356.12-37.5 357.35-37.5L357.35-37.5Q358.57-37.5 359.45-36.67 360.33-35.83 360.33-34.66L360.33-34.66Q360.33-33.49 359.45-32.65 358.57-31.82 357.35-31.82ZM371.27-16.41L371.27-16.41 371.27 0 367.08 0 367.08-27.27 371.12-27.27 371.12-23.01 371.48-23.01Q372.44-25.09 374.39-26.36 376.34-27.63 379.43-27.63L379.43-27.63Q382.2-27.63 384.28-26.5 386.36-25.37 387.51-23.09 388.67-20.81 388.67-17.33L388.67-17.33 388.67 0 384.48 0 384.48-17.05Q384.48-20.26 382.81-22.06 381.14-23.86 378.23-23.86L378.23-23.86Q376.22-23.86 374.65-22.99 373.08-22.12 372.17-20.45 371.27-18.79 371.27-16.41ZM407.34 10.8L407.34 10.8Q404.31 10.8 402.12 10.02 399.94 9.25 398.49 8 397.05 6.75 396.19 5.33L396.19 5.33 399.53 2.98Q400.1 3.73 400.97 4.7 401.84 5.66 403.36 6.38 404.88 7.1 407.34 7.1L407.34 7.1Q410.65 7.1 412.79 5.5 414.94 3.91 414.94 0.5L414.94 0.5 414.94-5.04 414.59-5.04Q414.13-4.3 413.28-3.2 412.44-2.11 410.87-1.27 409.3-0.43 406.63-0.43L406.63-0.43Q403.33-0.43 400.71-1.99 398.09-3.55 396.58-6.53 395.06-9.52 395.06-13.78L395.06-13.78Q395.06-17.97 396.53-21.08 398-24.2 400.63-25.91 403.26-27.63 406.7-27.63L406.7-27.63Q409.37-27.63 410.94-26.75 412.51-25.87 413.35-24.76 414.2-23.65 414.66-22.94L414.66-22.94 415.09-22.94 415.09-27.27 419.13-27.27 419.13 0.78Q419.13 4.3 417.54 6.51 415.96 8.72 413.28 9.76 410.61 10.8 407.34 10.8ZM407.2-4.19L407.2-4.19Q409.72-4.19 411.46-5.34 413.2-6.5 414.11-8.66 415.01-10.83 415.01-13.85L415.01-13.85Q415.01-16.8 414.13-19.05 413.24-21.31 411.5-22.59 409.76-23.86 407.2-23.86L407.2-23.86Q404.54-23.86 402.77-22.51 401.01-21.16 400.13-18.89 399.25-16.62 399.25-13.85L399.25-13.85Q399.25-11.01 400.14-8.83 401.04-6.66 402.81-5.42 404.57-4.19 407.2-4.19ZM445.83 0L441.43 0 441.43-36.36 445.83-36.36 445.83-20.17 465.22-20.17 465.22-36.36 469.63-36.36 469.63 0 465.22 0 465.22-16.26 445.83-16.26 445.83 0ZM489.3 0.57L489.3 0.57Q485.35 0.57 482.51-1.18 479.66-2.93 478.12-6.08 476.58-9.23 476.58-13.42L476.58-13.42Q476.58-17.61 478.12-20.82 479.66-24.02 482.42-25.83 485.18-27.63 488.87-27.63L488.87-27.63Q491-27.63 493.08-26.92 495.16-26.21 496.86-24.62 498.57-23.03 499.58-20.42 500.59-17.81 500.59-13.99L500.59-13.99 500.59-12.22 479.57-12.22 479.57-15.84 496.33-15.84Q496.33-18.15 495.41-19.96 494.5-21.77 492.82-22.82 491.14-23.86 488.87-23.86L488.87-23.86Q486.37-23.86 484.55-22.63 482.73-21.4 481.75-19.42 480.77-17.45 480.77-15.2L480.77-15.2 480.77-12.78Q480.77-9.69 481.85-7.56 482.92-5.42 484.84-4.31 486.76-3.2 489.3-3.2L489.3-3.2Q490.95-3.2 492.29-3.67 493.63-4.14 494.61-5.09 495.58-6.04 496.11-7.46L496.11-7.46 500.16-6.32Q499.52-4.26 498.01-2.71 496.51-1.15 494.29-0.29 492.07 0.57 489.3 0.57ZM515 0.64L515 0.64Q512.41 0.64 510.3-0.35 508.19-1.33 506.94-3.2 505.7-5.08 505.7-7.74L505.7-7.74Q505.7-10.09 506.62-11.55 507.55-13.01 509.09-13.85 510.64-14.68 512.51-15.1 514.38-15.52 516.28-15.77L516.28-15.77Q518.77-16.09 520.32-16.26 521.88-16.42 522.59-16.83 523.31-17.24 523.31-18.25L523.31-18.25 523.31-18.39Q523.31-21.02 521.88-22.48 520.46-23.93 517.56-23.93L517.56-23.93Q514.56-23.93 512.86-22.62 511.15-21.31 510.46-19.82L510.46-19.82 506.48-21.24Q507.55-23.72 509.33-25.12 511.12-26.51 513.24-27.07 515.36-27.63 517.42-27.63L517.42-27.63Q518.73-27.63 520.45-27.32 522.16-27.01 523.77-26.05 525.37-25.09 526.44-23.15 527.5-21.22 527.5-17.97L527.5-17.97 527.5 0 523.31 0 523.31-3.69 523.1-3.69Q522.67-2.81 521.68-1.79 520.69-0.78 519.03-0.07 517.38 0.64 515 0.64ZM515.64-3.13L515.64-3.13Q518.13-3.13 519.84-4.1 521.56-5.08 522.44-6.62 523.31-8.17 523.31-9.87L523.31-9.87 523.31-13.71Q523.05-13.39 522.15-13.13 521.25-12.87 520.09-12.69 518.93-12.5 517.84-12.37 516.74-12.23 516.07-12.14L516.07-12.14Q514.44-11.93 513.02-11.46 511.61-10.99 510.75-10.06 509.89-9.13 509.89-7.53L509.89-7.53Q509.89-5.34 511.52-4.23 513.14-3.13 515.64-3.13ZM545.47 0.57L545.47 0.57Q542.06 0.57 539.45-1.16 536.84-2.89 535.37-6.06 533.89-9.23 533.89-13.57L533.89-13.57Q533.89-17.86 535.37-21.02 536.84-24.18 539.47-25.91 542.1-27.63 545.54-27.63L545.54-27.63Q548.2-27.63 549.76-26.75 551.31-25.87 552.14-24.76 552.96-23.65 553.43-22.94L553.43-22.94 553.78-22.94 553.78-36.36 557.97-36.36 557.97 0 553.92 0 553.92-4.19 553.43-4.19Q552.96-3.44 552.11-2.32 551.26-1.19 549.68-0.31 548.1 0.57 545.47 0.57ZM546.04-3.2L546.04-3.2Q548.56-3.2 550.3-4.52 552.04-5.84 552.95-8.19 553.85-10.55 553.85-13.64L553.85-13.64Q553.85-16.69 552.96-18.99 552.08-21.29 550.34-22.58 548.6-23.86 546.04-23.86L546.04-23.86Q543.38-23.86 541.61-22.51 539.84-21.15 538.96-18.83 538.08-16.51 538.08-13.64L538.08-13.64Q538.08-10.72 538.98-8.35 539.88-5.98 541.64-4.59 543.41-3.2 546.04-3.2ZM570.4 10.23L566.21 10.23 566.21-27.27 570.26-27.27 570.26-22.94 570.75-22.94Q571.21-23.65 572.04-24.76 572.87-25.87 574.42-26.75 575.97-27.63 578.64-27.63L578.64-27.63Q582.08-27.63 584.71-25.91 587.34-24.18 588.81-21.02 590.28-17.86 590.28-13.57L590.28-13.57Q590.28-9.23 588.81-6.06 587.34-2.89 584.73-1.16 582.12 0.57 578.71 0.57L578.71 0.57Q576.08 0.57 574.5-0.31 572.92-1.19 572.07-2.32 571.21-3.44 570.75-4.19L570.75-4.19 570.4-4.19 570.4 10.23ZM570.33-13.64L570.33-13.64Q570.33-10.55 571.23-8.19 572.14-5.84 573.88-4.52 575.62-3.2 578.14-3.2L578.14-3.2Q580.77-3.2 582.53-4.59 584.3-5.98 585.2-8.35 586.09-10.72 586.09-13.64L586.09-13.64Q586.09-16.51 585.21-18.83 584.34-21.15 582.57-22.51 580.8-23.86 578.14-23.86L578.14-23.86Q575.58-23.86 573.84-22.58 572.1-21.29 571.21-18.99 570.33-16.69 570.33-13.64ZM600.86-16.41L600.86-16.41 600.86 0 596.67 0 596.67-36.36 600.86-36.36 600.86-23.01 601.22-23.01Q602.18-25.12 604.1-26.38 606.03-27.63 609.24-27.63L609.24-27.63Q612.03-27.63 614.13-26.52 616.22-25.41 617.38-23.13 618.55-20.85 618.55-17.33L618.55-17.33 618.55 0 614.36 0 614.36-17.05Q614.36-20.29 612.68-22.08 611-23.86 608.04-23.86L608.04-23.86Q605.98-23.86 604.35-22.99 602.73-22.12 601.8-20.45 600.86-18.79 600.86-16.41ZM637.3 0.57L637.3 0.57Q633.6 0.57 630.82-1.19 628.04-2.95 626.49-6.11 624.94-9.27 624.94-13.49L624.94-13.49Q624.94-17.76 626.49-20.93 628.04-24.11 630.82-25.87 633.6-27.63 637.3-27.63L637.3-27.63Q640.99-27.63 643.77-25.87 646.55-24.11 648.1-20.93 649.65-17.76 649.65-13.49L649.65-13.49Q649.65-9.27 648.1-6.11 646.55-2.95 643.77-1.19 640.99 0.57 637.3 0.57ZM637.3-3.2L637.3-3.2Q640.1-3.2 641.91-4.63 643.72-6.07 644.59-8.42 645.46-10.76 645.46-13.49L645.46-13.49Q645.46-16.23 644.59-18.59 643.72-20.95 641.91-22.41 640.1-23.86 637.3-23.86L637.3-23.86Q634.49-23.86 632.68-22.41 630.87-20.95 630-18.59 629.13-16.23 629.13-13.49L629.13-13.49Q629.13-10.76 630-8.42 630.87-6.07 632.68-4.63 634.49-3.2 637.3-3.2ZM660.23-16.41L660.23-16.41 660.23 0 656.04 0 656.04-27.27 660.09-27.27 660.09-23.01 660.45-23.01Q661.41-25.09 663.36-26.36 665.31-27.63 668.4-27.63L668.4-27.63Q671.17-27.63 673.25-26.5 675.33-25.37 676.48-23.09 677.63-20.81 677.63-17.33L677.63-17.33 677.63 0 673.44 0 673.44-17.05Q673.44-20.26 671.77-22.06 670.11-23.86 667.19-23.86L667.19-23.86Q665.19-23.86 663.62-22.99 662.04-22.12 661.14-20.45 660.23-18.79 660.23-16.41ZM696.74 0.57L696.74 0.57Q692.79 0.57 689.94-1.18 687.1-2.93 685.56-6.08 684.02-9.23 684.02-13.42L684.02-13.42Q684.02-17.61 685.56-20.82 687.1-24.02 689.86-25.83 692.62-27.63 696.31-27.63L696.31-27.63Q698.44-27.63 700.52-26.92 702.6-26.21 704.3-24.62 706-23.03 707.02-20.42 708.03-17.81 708.03-13.99L708.03-13.99 708.03-12.22 687.01-12.22 687.01-15.84 703.77-15.84Q703.77-18.15 702.85-19.96 701.94-21.77 700.26-22.82 698.58-23.86 696.31-23.86L696.31-23.86Q693.81-23.86 691.99-22.63 690.17-21.4 689.19-19.42 688.21-17.45 688.21-15.2L688.21-15.2 688.21-12.78Q688.21-9.69 689.29-7.56 690.36-5.42 692.28-4.31 694.2-3.2 696.74-3.2L696.74-3.2Q698.39-3.2 699.73-3.67 701.07-4.14 702.05-5.09 703.02-6.04 703.55-7.46L703.55-7.46 707.6-6.32Q706.96-4.26 705.45-2.71 703.95-1.15 701.73-0.29 699.51 0.57 696.74 0.57ZM733.74-21.16L733.74-21.16 729.97-20.1Q729.62-21.04 728.93-21.94 728.25-22.83 727.08-23.42 725.91-24.01 724.08-24.01L724.08-24.01Q721.57-24.01 719.91-22.86 718.25-21.72 718.25-19.96L718.25-19.96Q718.25-18.39 719.39-17.49 720.53-16.58 722.94-15.98L722.94-15.98 726.99-14.99Q730.65-14.1 732.44-12.28 734.23-10.46 734.23-7.6L734.23-7.6Q734.23-5.26 732.89-3.41 731.55-1.56 729.16-0.5 726.76 0.57 723.58 0.57L723.58 0.57Q719.41 0.57 716.67-1.24 713.94-3.05 713.21-6.53L713.21-6.53 717.19-7.53Q717.76-5.33 719.35-4.23 720.93-3.13 723.51-3.13L723.51-3.13Q726.44-3.13 728.17-4.38 729.9-5.63 729.9-7.39L729.9-7.39Q729.9-8.81 728.91-9.77 727.91-10.74 725.85-11.22L725.85-11.22 721.31-12.29Q717.56-13.17 715.81-15.05 714.06-16.92 714.06-19.74L714.06-19.74Q714.06-22.05 715.37-23.83 716.67-25.6 718.94-26.62 721.2-27.63 724.08-27.63L724.08-27.63Q728.13-27.63 730.44-25.85 732.76-24.08 733.74-21.16ZM742.26-4.97L746.8-4.97 746.52-3.05Q746.22-1.03 745.6 1.28 744.99 3.59 744.33 5.63 743.68 7.67 743.25 8.88L743.25 8.88 740.06 8.88Q740.29 7.74 740.66 5.88 741.03 4.01 741.41 1.71 741.8-0.59 742.04-2.98L742.04-2.98 742.26-4.97ZM769.17 0L769.17-36.36 774.43-36.36 786.78-6.18 787.21-6.18 799.57-36.36 804.82-36.36 804.82 0 800.7 0 800.7-27.63 800.35-27.63 788.98 0 785.01 0 773.64-27.63 773.29-27.63 773.29 0 769.17 0ZM817.25 0L813.06 0 813.06-27.27 817.25-27.27 817.25 0ZM815.19-31.82L815.19-31.82Q813.96-31.82 813.09-32.65 812.21-33.49 812.21-34.66L812.21-34.66Q812.21-35.83 813.09-36.67 813.96-37.5 815.19-37.5L815.19-37.5Q816.42-37.5 817.29-36.67 818.17-35.83 818.17-34.66L818.17-34.66Q818.17-33.49 817.29-32.65 816.42-31.82 815.19-31.82ZM836 0.57L836 0.57Q832.16 0.57 829.39-1.24 826.62-3.05 825.13-6.23 823.64-9.41 823.64-13.49L823.64-13.49Q823.64-17.65 825.17-20.84 826.71-24.02 829.47-25.83 832.23-27.63 835.93-27.63L835.93-27.63Q838.8-27.63 841.11-26.56 843.42-25.5 844.89-23.58 846.37-21.66 846.72-19.11L846.72-19.11 842.53-19.11Q842.05-20.97 840.41-22.42 838.77-23.86 836-23.86L836-23.86Q833.55-23.86 831.71-22.59 829.87-21.32 828.85-19.03 827.83-16.73 827.83-13.64L827.83-13.64Q827.83-10.48 828.83-8.13 829.84-5.79 831.67-4.49 833.51-3.2 836-3.2L836-3.2Q837.63-3.2 838.96-3.76 840.29-4.33 841.22-5.4 842.14-6.46 842.53-7.95L842.53-7.95 846.72-7.95Q846.37-5.54 844.97-3.61 843.58-1.69 841.3-0.56 839.02 0.57 836 0.57ZM872.15-21.16L872.15-21.16 868.38-20.1Q868.03-21.04 867.34-21.94 866.66-22.83 865.49-23.42 864.31-24.01 862.49-24.01L862.49-24.01Q859.98-24.01 858.32-22.86 856.66-21.72 856.66-19.96L856.66-19.96Q856.66-18.39 857.8-17.49 858.93-16.58 861.35-15.98L861.35-15.98 865.4-14.99Q869.06-14.1 870.85-12.28 872.64-10.46 872.64-7.6L872.64-7.6Q872.64-5.26 871.3-3.41 869.96-1.56 867.56-0.5 865.17 0.57 861.99 0.57L861.99 0.57Q857.82 0.57 855.08-1.24 852.35-3.05 851.62-6.53L851.62-6.53 855.6-7.53Q856.16-5.33 857.75-4.23 859.34-3.13 861.92-3.13L861.92-3.13Q864.85-3.13 866.58-4.38 868.31-5.63 868.31-7.39L868.31-7.39Q868.31-8.81 867.32-9.77 866.32-10.74 864.26-11.22L864.26-11.22 859.72-12.29Q855.97-13.17 854.22-15.05 852.47-16.92 852.47-19.74L852.47-19.74Q852.47-22.05 853.78-23.83 855.08-25.6 857.35-26.62 859.61-27.63 862.49-27.63L862.49-27.63Q866.53-27.63 868.85-25.85 871.17-24.08 872.15-21.16ZM880.67-4.97L885.21-4.97 884.93-3.05Q884.62-1.03 884.01 1.28 883.4 3.59 882.74 5.63 882.09 7.67 881.66 8.88L881.66 8.88 878.46 8.88Q878.69 7.74 879.07 5.88 879.44 4.01 879.82 1.71 880.2-0.59 880.45-2.98L880.45-2.98 880.67-4.97ZM915.04 0.64L915.04 0.64Q912.44 0.64 910.33-0.35 908.22-1.33 906.97-3.2 905.73-5.08 905.73-7.74L905.73-7.74Q905.73-10.09 906.65-11.55 907.58-13.01 909.12-13.85 910.67-14.68 912.54-15.1 914.41-15.52 916.31-15.77L916.31-15.77Q918.8-16.09 920.35-16.26 921.91-16.42 922.63-16.83 923.34-17.24 923.34-18.25L923.34-18.25 923.34-18.39Q923.34-21.02 921.92-22.48 920.49-23.93 917.59-23.93L917.59-23.93Q914.59-23.93 912.89-22.62 911.18-21.31 910.49-19.82L910.49-19.82 906.51-21.24Q907.58-23.72 909.36-25.12 911.15-26.51 913.27-27.07 915.39-27.63 917.45-27.63L917.45-27.63Q918.76-27.63 920.48-27.32 922.19-27.01 923.8-26.05 925.4-25.09 926.47-23.15 927.54-21.22 927.54-17.97L927.54-17.97 927.54 0 923.34 0 923.34-3.69 923.13-3.69Q922.71-2.81 921.71-1.79 920.72-0.78 919.07-0.07 917.41 0.64 915.04 0.64ZM915.67-3.13L915.67-3.13Q918.16-3.13 919.87-4.1 921.59-5.08 922.47-6.62 923.34-8.17 923.34-9.87L923.34-9.87 923.34-13.71Q923.08-13.39 922.18-13.13 921.29-12.87 920.12-12.69 918.96-12.5 917.87-12.37 916.78-12.23 916.1-12.14L916.1-12.14Q914.47-11.93 913.06-11.46 911.64-10.99 910.78-10.06 909.92-9.13 909.92-7.53L909.92-7.53Q909.92-5.34 911.55-4.23 913.17-3.13 915.67-3.13ZM939.39-16.41L939.39-16.41 939.39 0 935.2 0 935.2-27.27 939.25-27.27 939.25-23.01 939.61-23.01Q940.57-25.09 942.52-26.36 944.47-27.63 947.56-27.63L947.56-27.63Q950.33-27.63 952.41-26.5 954.49-25.37 955.64-23.09 956.79-20.81 956.79-17.33L956.79-17.33 956.79 0 952.6 0 952.6-17.05Q952.6-20.26 950.93-22.06 949.27-23.86 946.35-23.86L946.35-23.86Q944.35-23.86 942.78-22.99 941.2-22.12 940.3-20.45 939.39-18.79 939.39-16.41ZM974.76 0.57L974.76 0.57Q971.35 0.57 968.74-1.16 966.13-2.89 964.66-6.06 963.18-9.23 963.18-13.57L963.18-13.57Q963.18-17.86 964.66-21.02 966.13-24.18 968.76-25.91 971.39-27.63 974.83-27.63L974.83-27.63Q977.49-27.63 979.05-26.75 980.6-25.87 981.43-24.76 982.25-23.65 982.71-22.94L982.71-22.94 983.07-22.94 983.07-36.36 987.26-36.36 987.26 0 983.21 0 983.21-4.19 982.71-4.19Q982.25-3.44 981.4-2.32 980.55-1.19 978.97-0.31 977.39 0.57 974.76 0.57ZM975.33-3.2L975.33-3.2Q977.85-3.2 979.59-4.52 981.33-5.84 982.24-8.19 983.14-10.55 983.14-13.64L983.14-13.64Q983.14-16.69 982.25-18.99 981.37-21.29 979.63-22.58 977.89-23.86 975.33-23.86L975.33-23.86Q972.67-23.86 970.9-22.51 969.13-21.15 968.25-18.83 967.37-16.51 967.37-13.64L967.37-13.64Q967.37-10.72 968.27-8.35 969.17-5.98 970.93-4.59 972.7-3.2 975.33-3.2ZM1021.28 0L1016.73 0 1006.79-36.36 1011.26-36.36 1018.86-6.75 1019.22-6.75 1026.96-36.36 1031.93-36.36 1039.67-6.75 1040.03-6.75 1047.62-36.36 1052.1-36.36 1042.16 0 1037.61 0 1029.58-28.98 1029.3-28.98 1021.28 0ZM1068.43 0.57L1068.43 0.57Q1064.49 0.57 1061.64-1.18 1058.79-2.93 1057.25-6.08 1055.72-9.23 1055.72-13.42L1055.72-13.42Q1055.72-17.61 1057.25-20.82 1058.79-24.02 1061.55-25.83 1064.31-27.63 1068.01-27.63L1068.01-27.63Q1070.14-27.63 1072.21-26.92 1074.29-26.21 1076-24.62 1077.7-23.03 1078.71-20.42 1079.72-17.81 1079.72-13.99L1079.72-13.99 1079.72-12.22 1058.7-12.22 1058.7-15.84 1075.46-15.84Q1075.46-18.15 1074.55-19.96 1073.63-21.77 1071.96-22.82 1070.28-23.86 1068.01-23.86L1068.01-23.86Q1065.5-23.86 1063.68-22.63 1061.86-21.4 1060.89-19.42 1059.91-17.45 1059.91-15.2L1059.91-15.2 1059.91-12.78Q1059.91-9.69 1060.98-7.56 1062.06-5.42 1063.98-4.31 1065.89-3.2 1068.43-3.2L1068.43-3.2Q1070.08-3.2 1071.42-3.67 1072.76-4.14 1073.74-5.09 1074.72-6.04 1075.25-7.46L1075.25-7.46 1079.3-6.32Q1078.66-4.26 1077.15-2.71 1075.64-1.15 1073.42-0.29 1071.2 0.57 1068.43 0.57ZM1090.73 0L1086.68 0 1086.68-36.36 1090.87-36.36 1090.87-22.94 1091.23-22.94Q1091.69-23.65 1092.52-24.76 1093.34-25.87 1094.89-26.75 1096.45-27.63 1099.11-27.63L1099.11-27.63Q1102.56-27.63 1105.18-25.91 1107.81-24.18 1109.29-21.02 1110.76-17.86 1110.76-13.57L1110.76-13.57Q1110.76-9.23 1109.29-6.06 1107.81-2.89 1105.2-1.16 1102.59 0.57 1099.18 0.57L1099.18 0.57Q1096.55 0.57 1094.97-0.31 1093.39-1.19 1092.54-2.32 1091.69-3.44 1091.23-4.19L1091.23-4.19 1090.73-4.19 1090.73 0ZM1090.8-13.64L1090.8-13.64Q1090.8-10.55 1091.71-8.19 1092.61-5.84 1094.35-4.52 1096.09-3.2 1098.61-3.2L1098.61-3.2Q1101.24-3.2 1103.01-4.59 1104.78-5.98 1105.67-8.35 1106.57-10.72 1106.57-13.64L1106.57-13.64Q1106.57-16.51 1105.69-18.83 1104.81-21.15 1103.04-22.51 1101.28-23.86 1098.61-23.86L1098.61-23.86Q1096.06-23.86 1094.32-22.58 1092.58-21.29 1091.69-18.99 1090.8-16.69 1090.8-13.64ZM1128.23 0.57L1128.23 0.57Q1124.39 0.57 1121.62-1.24 1118.85-3.05 1117.36-6.23 1115.87-9.41 1115.87-13.49L1115.87-13.49Q1115.87-17.65 1117.41-20.84 1118.94-24.02 1121.7-25.83 1124.46-27.63 1128.16-27.63L1128.16-27.63Q1131.03-27.63 1133.34-26.56 1135.65-25.5 1137.12-23.58 1138.6-21.66 1138.95-19.11L1138.95-19.11 1134.76-19.11Q1134.28-20.97 1132.64-22.42 1131-23.86 1128.23-23.86L1128.23-23.86Q1125.78-23.86 1123.94-22.59 1122.1-21.32 1121.08-19.03 1120.06-16.73 1120.06-13.64L1120.06-13.64Q1120.06-10.48 1121.06-8.13 1122.07-5.79 1123.9-4.49 1125.74-3.2 1128.23-3.2L1128.23-3.2Q1129.86-3.2 1131.19-3.76 1132.52-4.33 1133.45-5.4 1134.37-6.46 1134.76-7.95L1134.76-7.95 1138.95-7.95Q1138.6-5.54 1137.2-3.61 1135.81-1.69 1133.53-0.56 1131.25 0.57 1128.23 0.57ZM1153.08 0.64L1153.08 0.64Q1150.49 0.64 1148.38-0.35 1146.27-1.33 1145.02-3.2 1143.78-5.08 1143.78-7.74L1143.78-7.74Q1143.78-10.09 1144.7-11.55 1145.63-13.01 1147.17-13.85 1148.72-14.68 1150.59-15.1 1152.46-15.52 1154.36-15.77L1154.36-15.77Q1156.85-16.09 1158.4-16.26 1159.95-16.42 1160.67-16.83 1161.39-17.24 1161.39-18.25L1161.39-18.25 1161.39-18.39Q1161.39-21.02 1159.96-22.48 1158.53-23.93 1155.64-23.93L1155.64-23.93Q1152.64-23.93 1150.94-22.62 1149.23-21.31 1148.54-19.82L1148.54-19.82 1144.56-21.24Q1145.63-23.72 1147.41-25.12 1149.2-26.51 1151.32-27.07 1153.44-27.63 1155.5-27.63L1155.5-27.63Q1156.81-27.63 1158.53-27.32 1160.24-27.01 1161.85-26.05 1163.45-25.09 1164.52-23.15 1165.58-21.22 1165.58-17.97L1165.58-17.97 1165.58 0 1161.39 0 1161.39-3.69 1161.18-3.69Q1160.75-2.81 1159.76-1.79 1158.77-0.78 1157.11-0.07 1155.46 0.64 1153.08 0.64ZM1153.72-3.13L1153.72-3.13Q1156.21-3.13 1157.92-4.1 1159.64-5.08 1160.51-6.62 1161.39-8.17 1161.39-9.87L1161.39-9.87 1161.39-13.71Q1161.13-13.39 1160.23-13.13 1159.33-12.87 1158.17-12.69 1157.01-12.5 1155.92-12.37 1154.82-12.23 1154.15-12.14L1154.15-12.14Q1152.52-11.93 1151.1-11.46 1149.69-10.99 1148.83-10.06 1147.97-9.13 1147.97-7.53L1147.97-7.53Q1147.97-5.34 1149.59-4.23 1151.22-3.13 1153.72-3.13ZM1177.44 0L1173.25 0 1173.25-27.27 1177.3-27.27 1177.3-23.01 1177.65-23.01Q1178.51-25.2 1180.41-26.41 1182.31-27.63 1184.97-27.63L1184.97-27.63Q1187.67-27.63 1189.47-26.41 1191.27-25.2 1192.29-23.01L1192.29-23.01 1192.57-23.01Q1193.62-25.12 1195.71-26.38 1197.81-27.63 1200.74-27.63L1200.74-27.63Q1204.39-27.63 1206.72-25.35 1209.05-23.06 1209.05-18.25L1209.05-18.25 1209.05 0 1204.86 0 1204.86-18.25Q1204.86-21.27 1203.21-22.57 1201.55-23.86 1199.32-23.86L1199.32-23.86Q1196.44-23.86 1194.86-22.13 1193.28-20.4 1193.28-17.76L1193.28-17.76 1193.28 0 1189.02 0 1189.02-18.68Q1189.02-21 1187.51-22.43 1186-23.86 1183.62-23.86L1183.62-23.86Q1181.99-23.86 1180.58-22.99 1179.16-22.12 1178.3-20.59 1177.44-19.05 1177.44-17.05L1177.44-17.05 1177.44 0ZM1236.03-21.16L1236.03-21.16 1232.27-20.1Q1231.91-21.04 1231.23-21.94 1230.55-22.83 1229.37-23.42 1228.2-24.01 1226.37-24.01L1226.37-24.01Q1223.87-24.01 1222.21-22.86 1220.55-21.72 1220.55-19.96L1220.55-19.96Q1220.55-18.39 1221.69-17.49 1222.82-16.58 1225.24-15.98L1225.24-15.98 1229.29-14.99Q1232.94-14.1 1234.74-12.28 1236.53-10.46 1236.53-7.6L1236.53-7.6Q1236.53-5.26 1235.19-3.41 1233.85-1.56 1231.45-0.5 1229.06 0.57 1225.88 0.57L1225.88 0.57Q1221.7 0.57 1218.97-1.24 1216.24-3.05 1215.51-6.53L1215.51-6.53 1219.48-7.53Q1220.05-5.33 1221.64-4.23 1223.23-3.13 1225.81-3.13L1225.81-3.13Q1228.74-3.13 1230.47-4.38 1232.2-5.63 1232.2-7.39L1232.2-7.39Q1232.2-8.81 1231.2-9.77 1230.21-10.74 1228.15-11.22L1228.15-11.22 1223.6-12.29Q1219.86-13.17 1218.11-15.05 1216.36-16.92 1216.36-19.74L1216.36-19.74Q1216.36-22.05 1217.66-23.83 1218.97-25.6 1221.23-26.62 1223.5-27.63 1226.37-27.63L1226.37-27.63Q1230.42-27.63 1232.74-25.85 1235.06-24.08 1236.03-21.16Z" opacity="1" transform="matrix(1,0,0,1,0,0)" fill="#ffffff" class="slogan-text-1" data-fill-palette-color="secondary" id="text-1"></path></svg></g></svg></g></svg></g></svg></g><g transform="matrix(1,0,0,1,133.67554878854148,0)"><svg viewBox="0 0 130.14650242291697 106.8437930759259" height="106.8437930759259" width="130.14650242291697"><g><svg xmlns="http://www.w3.org/2000/svg" xmlns:xlink="http://www.w3.org/1999/xlink" version="1.1" x="0" y="0" viewBox="36.325 40.544 316.82800007058205 260.1" enable-background="new 0 0 373 362" xml:space="preserve" height="106.8437930759259" width="130.14650242291697" class="icon-icon-0" data-fill-palette-color="accent" id="icon-0"><g fill="#ffffff" data-fill-palette-color="accent"><g fill="#ffffff" data-fill-palette-color="accent"><g fill="#ffffff" data-fill-palette-color="accent"><g fill="#ffffff" data-fill-palette-color="accent"><path d="M63.532 281.471V280.843C63.493 253.495 63.506 199.49 63.526 171.174 46.946 184.51 36.325 204.954 36.325 227.89 36.325 251.042 47.152 271.653 64.005 284.978A19 19 0 0 1 63.565 281.816z" fill="#ffffff" data-fill-palette-color="accent"></path><path d="M115.358 155.437C115.315 168.868 115.337 266.545 115.36 280.808 115.36 286.1 113.306 291.072 109.55 294.842A19.67 19.67 0 0 1 100.16 300.079C103.083 300.434 106.056 300.644 109.077 300.644 149.258 300.644 158.143 268.068 158.143 227.889 158.145 189.896 150.187 158.724 115.358 155.437" fill="#ffffff" data-fill-palette-color="accent"></path><path d="M325.947 171.173C325.974 199.739 325.985 254.307 325.938 280.83 325.938 281.031 325.935 281.226 325.929 281.424A20 20 0 0 1 325.493 284.958C342.337 271.635 353.153 251.031 353.153 227.889 353.154 204.953 342.529 184.507 325.947 171.173" fill="#ffffff" data-fill-palette-color="accent"></path><path d="M274.113 280.786C274.133 265.932 274.161 168.787 274.118 155.436 239.291 158.723 231.332 189.896 231.332 227.889 231.332 268.068 240.219 300.644 280.397 300.644 283.418 300.644 286.387 300.434 289.31 300.079A19.67 19.67 0 0 1 279.925 294.84C276.177 291.1 274.113 286.115 274.113 280.786" fill="#ffffff" data-fill-palette-color="accent"></path><path d="M312.182 153.796C312.182 153.055 312.178 152.617 312.171 152.548 310.665 122.4 297.799 94.248 275.932 73.277 253.939 52.166 225.095 40.544 194.742 40.544 164.302 40.544 135.429 52.133 113.435 73.186 91.511 94.169 78.675 122.393 77.297 152.636 77.295 152.701 77.295 153.104 77.286 153.802 77.279 155.155 77.277 158.175 77.271 162.442 77.245 186.472 77.223 250.257 77.269 280.823 77.269 280.868 77.273 280.914 77.273 280.955 77.351 284.256 80.04 286.908 83.356 286.908H95.536A6.1 6.1 0 0 0 99.847 285.12 6.1 6.1 0 0 0 101.624 280.807C101.603 267.12 101.579 170.035 101.624 155.509A90 90 0 0 1 101.635 153.713C101.752 151.104 101.982 148.51 102.318 145.94 105.038 124.957 114.802 105.601 130.275 90.782 147.709 74.092 170.608 64.901 194.742 64.901 218.788 64.901 241.631 74.117 259.075 90.847 274.526 105.674 284.319 125.008 287.123 145.935 287.464 148.509 287.715 151.103 287.845 153.712 287.849 153.866 287.852 154.483 287.854 155.508 287.902 170.084 287.867 267.605 287.849 280.806 287.849 282.423 288.489 283.979 289.633 285.119A6.1 6.1 0 0 0 293.939 286.907H306.115A6.086 6.086 0 0 0 312.2 280.954C312.2 280.918 312.207 280.87 312.207 280.829 312.254 250.364 312.234 186.55 312.202 162.437 312.194 158.202 312.188 155.181 312.182 153.796" fill="#ffffff" data-fill-palette-color="accent"></path></g></g></g></g></svg></g></svg></g><g></g></svg></g><defs></defs></svg><rect width="395.52" height="213.47821667780352" fill="none" stroke="none" visibility="hidden"></rect></g></svg></g></svg>