<svg xmlns:xlink="http://www.w3.org/1999/xlink" xmlns="http://www.w3.org/2000/svg" width="20" height="20" viewBox="0 0 20 20" fill="none">
<g clip-path="url(#clip0_0_279)">
<path d="M1.43125 3.5L0.9375 0.9375L3.5 1.43125L14.7156 11.6094L11.6094 14.7156L1.43125 3.5Z" fill="#C4E6FF"/>
<path d="M13.3844 12.9406L11.3125 10.8719C11.2527 10.8207 11.1758 10.7939 11.0972 10.797C11.0185 10.8 10.9439 10.8326 10.8883 10.8883C10.8326 10.9439 10.8 11.0185 10.797 11.0972C10.7939 11.1758 10.8207 11.2527 10.8719 11.3125L12.9406 13.3844L13.3844 12.9406Z" fill="#97C1E2"/>
<path d="M17.4339 16.1379L16.1392 17.4326L13.552 14.8455L14.8467 13.5508L17.4339 16.1379Z" fill="#1F2B54"/>
<path d="M12.3881 16.0099L16.0115 12.3865C16.297 12.101 16.297 11.638 16.0115 11.3525C15.726 11.067 15.2631 11.067 14.9775 11.3525L11.3542 14.9759C11.0686 15.2614 11.0686 15.7243 11.3542 16.0099C11.6397 16.2954 12.1026 16.2954 12.3881 16.0099Z" fill="#2C3A64"/>
<path d="M16.7883 18.8541L18.8584 16.784C19.144 16.4984 19.144 16.0355 18.8584 15.75C18.5729 15.4644 18.11 15.4644 17.8245 15.75L15.7543 17.8202C15.4687 18.1057 15.4687 18.5686 15.7543 18.8541C16.0398 19.1397 16.5027 19.1397 16.7883 18.8541Z" fill="#2C3A64"/>
<path d="M16.5062 1.43125L19.0687 0.9375L18.5781 3.5L8.39687 14.7156L5.29062 11.6094L16.5062 1.43125Z" fill="#E2F3FF"/>
<path d="M3.86731 17.436L2.57262 16.1413L5.1598 13.5542L6.45449 14.8489L3.86731 17.436Z" fill="#1F2B54"/>
<path d="M3.9981 12.3869L7.62148 16.0102C7.907 16.2958 8.36994 16.2958 8.65546 16.0102C8.94099 15.7247 8.94099 15.2618 8.65546 14.9762L5.03209 11.3529C4.74656 11.0673 4.28363 11.0673 3.9981 11.3529C3.71257 11.6384 3.71257 12.1013 3.9981 12.3869Z" fill="#2C3A64"/>
<path d="M1.15026 16.7864L3.22044 18.8565C3.50597 19.1421 3.9689 19.1421 4.25443 18.8565C4.53996 18.571 4.53996 18.1081 4.25443 17.8226L2.18424 15.7524C1.89872 15.4668 1.43578 15.4668 1.15026 15.7524C0.864728 16.0379 0.864729 16.5008 1.15026 16.7864Z" fill="#2C3A64"/>
<path d="M9.28437 10.7156C9.25532 10.6863 9.22076 10.6631 9.18268 10.6472C9.1446 10.6313 9.10375 10.6232 9.0625 10.6232C9.02125 10.6232 8.9804 10.6313 8.94232 10.6472C8.90424 10.6631 8.86968 10.6863 8.84063 10.7156L6.625 12.9406L7.06562 13.3844L9.28437 11.1594C9.31366 11.1303 9.33691 11.0957 9.35278 11.0577C9.36864 11.0196 9.37681 10.9787 9.37681 10.9375C9.37681 10.8962 9.36864 10.8554 9.35278 10.8173C9.33691 10.7792 9.31366 10.7447 9.28437 10.7156Z" fill="#C4E6FF"/>
<path d="M9.4125 2.24063L8.63125 0.884378C8.58981 0.812272 8.52142 0.759582 8.44113 0.737898C8.36084 0.716214 8.27523 0.727313 8.20312 0.768753C8.13102 0.810193 8.07833 0.87858 8.05664 0.958869C8.03496 1.03916 8.04606 1.12477 8.0875 1.19688L8.86875 2.55313C8.88942 2.58868 8.91691 2.61979 8.94964 2.6447C8.98236 2.6696 9.01968 2.6878 9.05946 2.69825C9.09923 2.7087 9.14068 2.7112 9.18142 2.7056C9.22216 2.7 9.26139 2.68642 9.29687 2.66563C9.36835 2.6244 9.42062 2.55658 9.44229 2.47696C9.46395 2.39734 9.45324 2.31238 9.4125 2.24063Z" fill="#FFD525"/>
<path d="M10.7031 2.66563C10.7386 2.68642 10.7778 2.7 10.8186 2.7056C10.8593 2.7112 10.9008 2.7087 10.9405 2.69825C10.9803 2.6878 11.0176 2.6696 11.0504 2.6447C11.0831 2.61979 11.1106 2.58868 11.1312 2.55313L11.9125 1.19688C11.933 1.16117 11.9463 1.12178 11.9516 1.08094C11.9569 1.0401 11.9541 0.998623 11.9434 0.958868C11.9326 0.919113 11.9142 0.881862 11.889 0.849242C11.8639 0.816621 11.8326 0.789271 11.7969 0.768752C11.7612 0.748233 11.7218 0.734947 11.6809 0.729653C11.6401 0.724359 11.5986 0.72716 11.5589 0.737897C11.5191 0.748634 11.4819 0.767096 11.4492 0.792229C11.4166 0.817362 11.3893 0.848674 11.3687 0.884377L10.5875 2.24063C10.5468 2.31238 10.536 2.39734 10.5577 2.47696C10.5794 2.55658 10.6316 2.6244 10.7031 2.66563Z" fill="#FFD525"/>
<path d="M18.9594 6.99373L17.6031 7.77498C17.5329 7.81828 17.4827 7.88759 17.4633 7.96779C17.444 8.04799 17.4572 8.13258 17.5 8.2031C17.5275 8.25079 17.5672 8.29036 17.6149 8.3178C17.6627 8.34524 17.7168 8.35957 17.7719 8.35935C17.8256 8.35919 17.8783 8.3452 17.925 8.31873L19.2813 7.53748C19.3534 7.49604 19.406 7.42765 19.4277 7.34736C19.4494 7.26707 19.4383 7.18146 19.3969 7.10935C19.3554 7.03725 19.287 6.98456 19.2068 6.96287C19.1265 6.94119 19.0409 6.95229 18.9688 6.99373H18.9594Z" fill="#FFD525"/>
<path d="M19.2719 10.275L17.9156 9.49375C17.8439 9.45301 17.7589 9.4423 17.6793 9.46396C17.5997 9.48563 17.5318 9.5379 17.4906 9.60938C17.4698 9.64486 17.4562 9.68409 17.4507 9.72483C17.4451 9.76557 17.4476 9.80702 17.458 9.84679C17.4685 9.88657 17.4867 9.92389 17.5116 9.95661C17.5365 9.98934 17.5676 10.0168 17.6031 10.0375L18.9594 10.8188C19.0061 10.8452 19.0588 10.8592 19.1125 10.8594C19.1676 10.8596 19.2217 10.8453 19.2695 10.8178C19.3172 10.7904 19.3568 10.7508 19.3844 10.7031C19.4052 10.6676 19.4187 10.6284 19.4243 10.5877C19.4299 10.5469 19.4274 10.5055 19.417 10.4657C19.4065 10.4259 19.3883 10.3886 19.3634 10.3559C19.3385 10.3232 19.3074 10.2957 19.2719 10.275Z" fill="#FFD525"/>
<path d="M2.39687 7.77498L1.04062 6.99373C0.968518 6.95229 0.882904 6.94119 0.802615 6.96287C0.722326 6.98456 0.653939 7.03725 0.612499 7.10935C0.571059 7.18146 0.55996 7.26707 0.581644 7.34736C0.603328 7.42765 0.656018 7.49604 0.728124 7.53748L2.08437 8.31873C2.13108 8.3452 2.18382 8.35919 2.2375 8.35935C2.29256 8.35957 2.34671 8.34524 2.39445 8.3178C2.4422 8.29036 2.48184 8.25079 2.50937 8.2031C2.53017 8.16762 2.54375 8.12839 2.54935 8.08765C2.55495 8.04691 2.55245 8.00546 2.542 7.96569C2.53154 7.92591 2.51335 7.8886 2.48844 7.85587C2.46354 7.82314 2.43242 7.79565 2.39687 7.77498Z" fill="#FFD525"/>
<path d="M2.08437 9.49373L0.728123 10.275C0.657904 10.3183 0.607656 10.3876 0.588338 10.4678C0.569019 10.548 0.582197 10.6326 0.624998 10.7031C0.65253 10.7508 0.692175 10.7904 0.739918 10.8178C0.787661 10.8452 0.841807 10.8596 0.896873 10.8594C0.950557 10.8592 1.00329 10.8452 1.05 10.8187L2.40625 10.0375C2.47835 9.99604 2.53104 9.92765 2.55273 9.84736C2.57441 9.76707 2.56331 9.68146 2.52187 9.60935C2.48043 9.53725 2.41205 9.48456 2.33176 9.46287C2.25147 9.44119 2.16585 9.45229 2.09375 9.49373H2.08437Z" fill="#FFD525"/>
<path d="M10 10.3125C10.1726 10.3125 10.3125 10.1726 10.3125 10C10.3125 9.82741 10.1726 9.6875 10 9.6875C9.82741 9.6875 9.6875 9.82741 9.6875 10C9.6875 10.1726 9.82741 10.3125 10 10.3125Z" fill="#C4E6FF"/>
</g>
<defs>
<clipPath id="clip0_0_279">
<rect width="20" height="20" fill="white"/>
</clipPath>
</defs>
</svg>