<svg xmlns:xlink="http://www.w3.org/1999/xlink" xmlns="http://www.w3.org/2000/svg" width="25" height="25" viewBox="0 0 25 25" fill="none">
<g clip-path="url(#clip0_3697_4768)">
<path d="M19.5435 14.3643L21.6895 10.6473L23.2204 11.5312L21.0744 15.2482L19.5435 14.3643Z" fill="#C77E67"/>
<path d="M20.5891 16.3213L20.4618 16.5415C20.1298 17.1168 20.0684 17.7609 20.2443 18.2817C20.2473 18.2896 20.2492 18.298 20.2512 18.3065C20.2547 18.3217 20.2568 18.3372 20.2575 18.3528C20.2583 18.3683 20.2577 18.3837 20.2558 18.3992C20.2513 18.4354 20.2394 18.4706 20.221 18.5027L17.4321 23.3333L14.2017 21.8402L17.1516 16.7307C17.168 16.7019 17.1893 16.6771 17.2145 16.6563C17.2175 16.6539 17.2205 16.6507 17.224 16.6487C17.2433 16.6343 17.2641 16.6221 17.2864 16.6137C17.2919 16.6112 17.2978 16.6087 17.3038 16.6072C17.3127 16.6042 17.3221 16.6019 17.3315 16.5999C17.3821 16.5899 17.4326 16.577 17.4827 16.5626C17.5164 16.5527 17.5496 16.5418 17.5828 16.5299C17.6323 16.5121 17.6819 16.4918 17.7309 16.47C17.7795 16.4477 17.828 16.4229 17.8756 16.3966C17.9871 16.3342 18.0951 16.2609 18.1972 16.1761C18.2264 16.1518 18.2551 16.1266 18.2834 16.1008C18.4534 15.9447 18.6049 15.7569 18.7298 15.5414L18.8568 15.3213L20.5891 16.3213Z" fill="#DDEBFD"/>
<path d="M17.8647 19.0396L15.8171 22.5867L14.2017 21.8399L17.1516 16.7304C17.168 16.7017 17.1893 16.6769 17.2146 16.6561C17.2175 16.6531 17.2205 16.6509 17.224 16.6484L17.8647 19.0396Z" fill="#EDF6FF"/>
<path d="M20.2559 18.3991C20.2607 18.3597 20.2572 18.3197 20.2444 18.2816C20.0683 17.7607 20.1297 17.1168 20.462 16.5414L20.5893 16.3213L18.857 15.3213L18.73 15.5414C18.3978 16.1168 17.8708 16.4919 17.3317 16.5999C17.2923 16.6078 17.2558 16.6248 17.2241 16.6487L17.8648 19.0398L20.2559 18.3991Z" fill="#CCE1FF"/>
<path d="M21.2276 9.49844C20.9955 9.9004 21.097 10.3935 21.4544 10.5998L23.379 11.711C23.7364 11.9173 24.2141 11.7587 24.4462 11.3567C24.6783 10.9547 24.5768 10.4616 24.2195 10.2553L22.2948 9.14415C21.9375 8.93785 21.4597 9.09644 21.2276 9.49844Z" fill="#EEC06B"/>
<path d="M17.4291 14.4015L17.9549 13.4908C18.0372 13.3483 18.2193 13.2995 18.3618 13.3817L22.5161 15.7802C22.6586 15.8625 22.7074 16.0446 22.6251 16.1871L22.0993 17.0978C22.0171 17.2403 21.8349 17.2891 21.6925 17.2068L17.5382 14.8084C17.3957 14.7261 17.3469 14.5439 17.4291 14.4015Z" fill="#8C818F"/>
<path d="M12.0068 1.01855H13.4787V20.2212H12.0068V1.01855Z" fill="#8C818F"/>
<path d="M20.8198 0H12.0068V7.07388H20.8198C21.1751 7.07388 21.3558 6.64683 21.1084 6.3918L18.6103 3.81689C18.459 3.66089 18.459 3.41294 18.6103 3.25693L21.1084 0.682031C21.3558 0.427051 21.1751 0 20.8198 0Z" fill="#DF646E"/>
<path d="M18.6105 3.81689C18.4592 3.66094 18.4592 3.41289 18.6105 3.25693L21.1086 0.682031C21.356 0.427051 21.1753 0 20.82 0H19.0628C19.418 0 19.5987 0.427051 19.3513 0.68208L16.8532 3.25698C16.7019 3.41294 16.7019 3.66099 16.8532 3.81694L19.3513 6.39185C19.5987 6.64683 19.418 7.07393 19.0628 7.07393H20.82C21.1753 7.07393 21.356 6.64687 21.1086 6.39185L18.6105 3.81689Z" fill="#DC4955"/>
<path d="M21.6909 24.6283H3.79492C5.47134 21.6412 8.84893 19.6006 12.7429 19.6006C16.6368 19.6006 20.0145 21.6412 21.6909 24.6283Z" fill="#F4DDB1"/>
<path d="M12.7428 19.6006C12.362 19.6006 11.9861 19.6204 11.6162 19.6584C15.0279 20.0091 17.9251 21.9333 19.4375 24.6283H21.6908C20.0144 21.6412 16.6368 19.6006 12.7428 19.6006Z" fill="#EFCB83"/>
<path d="M1.60347 14.0566C1.22983 14.0566 0.897363 14.299 0.788379 14.6564C0.554541 15.4233 0.428711 16.2373 0.428711 17.0807C0.428711 20.3569 2.32622 23.1892 5.08189 24.5406C5.31987 24.6573 5.59854 24.6573 5.83652 24.5406C8.59214 23.1892 10.4897 20.3569 10.4897 17.0807C10.4897 16.2373 10.3639 15.4233 10.13 14.6564C10.021 14.299 9.68857 14.0566 9.31494 14.0566H1.60347Z" fill="#EEC06B"/>
<path d="M10.13 14.6566C10.031 14.3317 9.74702 14.1025 9.41553 14.0635C9.51592 14.5794 9.56885 15.1124 9.56885 15.6577C9.56885 18.9339 7.67134 21.7662 4.91572 23.1176C4.67773 23.2343 4.39902 23.2343 4.16108 23.1176C3.05869 22.577 2.09419 21.7988 1.33301 20.8505C2.14941 22.4495 3.46812 23.7494 5.08193 24.5408C5.31992 24.6575 5.59863 24.6575 5.83657 24.5408C8.59219 23.1894 10.4897 20.3571 10.4897 17.0809C10.4897 16.2375 10.3639 15.4235 10.13 14.6566Z" fill="#E9A52D"/>
<path d="M5.60615 22.9788C5.51533 23.0316 5.40352 23.0316 5.3127 22.9788C4.36812 22.43 3.5665 21.6613 2.97627 20.734C2.28232 19.6437 1.91553 18.3804 1.91553 17.0805C1.91553 16.6402 1.95728 16.2038 2.04004 15.7762C2.06626 15.6407 2.18555 15.543 2.32358 15.543H8.59521C8.73325 15.543 8.85254 15.6407 8.87876 15.7762C8.96152 16.2038 9.00327 16.6402 9.00327 17.0805C9.00327 18.3803 8.63647 19.6437 7.94253 20.734C7.35229 21.6614 6.55063 22.4301 5.60615 22.9788Z" fill="#C77E67"/>
<path d="M5.25098 22.9417C5.27153 22.954 5.2918 22.9667 5.3125 22.9787C5.40332 23.0315 5.51514 23.0315 5.60596 22.9787C6.55044 22.43 7.3521 21.6612 7.94233 20.7339C8.09946 20.487 8.23892 20.2308 8.36206 19.9678C7.60493 21.2113 6.53062 22.24 5.25098 22.9417Z" fill="#BE694E"/>
<path d="M7.99521 20.6478L2.89048 15.543H2.32358C2.19814 15.543 2.08906 15.624 2.05029 15.7404C2.06489 15.7637 2.08198 15.7857 2.1022 15.806L7.52485 21.2286C7.53833 21.2421 7.55283 21.2538 7.56768 21.2648C7.70044 21.0942 7.82573 20.9174 7.94248 20.7339C7.9606 20.7055 7.97759 20.6764 7.99521 20.6478Z" fill="#E9A52D"/>
<path d="M7.94023 20.5938C7.79175 20.7942 7.63428 20.9875 7.46875 21.1735L7.52451 21.2292C7.53799 21.2427 7.55249 21.2544 7.56733 21.2654C7.748 21.0334 7.87549 20.8423 7.99482 20.6484L7.94023 20.5938Z" fill="#E69824"/>
<path d="M5.45928 17.2969C4.71885 17.2969 4.11865 17.8971 4.11865 18.6375C4.11865 19.3779 4.7189 19.9781 5.45928 19.9781C6.19966 19.9781 6.7999 19.3779 6.7999 18.6375C6.7999 17.8971 6.19971 17.2969 5.45928 17.2969Z" fill="#EEC06B"/>
<path d="M23.4829 25.0001H2.00249C1.79722 25.0001 1.63086 24.8338 1.63086 24.6285C1.63086 24.4232 1.79727 24.2568 2.00249 24.2568H23.4829C23.6882 24.2568 23.8546 24.4232 23.8546 24.6285C23.8546 24.8338 23.6881 25.0001 23.4829 25.0001Z" fill="#EFCB83"/>
</g>
<defs>
<clipPath id="clip0_3697_4768">
<rect width="25" height="25" fill="white"/>
</clipPath>
</defs>
</svg>