<svg xmlns:xlink="http://www.w3.org/1999/xlink" xmlns="http://www.w3.org/2000/svg" width="25" height="25" viewBox="0 0 41 40" fill="none">
<g clip-path="url(#clip0_2701_7207)">
<path d="M29.3594 12.375V13.6603L32.5724 14.5195V12.375H29.3594Z" fill="#5D5360"/>
<path d="M24.8613 13.6606H32.5726V15.5884H24.8613V13.6606Z" fill="#B6B1B7"/>
<path d="M33.8577 18.1587C30.3087 18.1587 27.4316 21.0357 27.4316 24.5847C27.4316 28.1337 30.3087 31.0108 33.8577 31.0108C37.4067 31.0108 40.2837 28.1336 40.2837 24.5847C40.2837 21.0357 37.4067 18.1587 33.8577 18.1587ZM33.8577 28.4403C31.7283 28.4403 30.0021 26.7141 30.0021 24.5847C30.0021 22.4553 31.7283 20.7292 33.8577 20.7292C35.9871 20.7292 37.7133 22.4553 37.7133 24.5847C37.7133 26.7141 35.9871 28.4403 33.8577 28.4403Z" fill="#5D5360"/>
<path d="M33.8575 29.0828C31.3775 29.0828 29.3594 27.065 29.3594 24.5846C29.3594 22.1042 31.3775 20.0864 33.8575 20.0864C36.3376 20.0864 38.3557 22.1042 38.3557 24.5846C38.3557 27.065 36.3376 29.0828 33.8575 29.0828ZM33.8575 21.3715C32.086 21.3715 30.6446 22.813 30.6446 24.5845C30.6446 26.3561 32.086 27.7975 33.8575 27.7975C35.6291 27.7975 37.0705 26.3561 37.0705 24.5845C37.0706 22.813 35.6291 21.3715 33.8575 21.3715Z" fill="#E5646E"/>
<path d="M33.8575 26.5123C34.9222 26.5123 35.7853 25.6492 35.7853 24.5845C35.7853 23.5198 34.9222 22.6567 33.8575 22.6567C32.7928 22.6567 31.9297 23.5198 31.9297 24.5845C31.9297 25.6492 32.7928 26.5123 33.8575 26.5123Z" fill="#857E87"/>
<path d="M33.8576 25.2274C33.5953 25.2274 33.3487 25.0652 33.2539 24.8041L30.477 17.1679C30.3553 16.8344 30.5279 16.4657 30.8611 16.3442C31.1961 16.2231 31.5633 16.395 31.6844 16.7286L34.4613 24.3648C34.583 24.6983 34.4104 25.067 34.0772 25.1885C34.0044 25.2148 33.9304 25.2274 33.8576 25.2274Z" fill="#B6B1B7"/>
<path d="M13.7974 23.8495L17.3169 19.1348L21.0861 22.9781L17.8285 24.7907L13.7974 23.8495Z" fill="#9B959D"/>
<path d="M18.4352 14.3028H13.5783C12.9926 14.3028 12.4387 14.0366 12.0729 13.5793L10.8531 12.0545C10.3653 11.4448 9.62682 11.0898 8.84595 11.0898H6.40746C5.93271 11.0898 5.72892 11.6923 6.10608 11.9806L23.335 25.1468V21.2108L18.4352 14.3028Z" fill="#DB4655"/>
<path d="M18.4353 14.9456H13.5781C12.7931 14.9456 12.062 14.5939 11.5713 13.9808C11.3498 13.7038 11.395 13.2993 11.6717 13.0778C11.9497 12.8556 12.3532 12.9011 12.5753 13.1781C12.8201 13.4847 13.186 13.6604 13.5781 13.6604H18.4353C18.7905 13.6604 19.0779 13.9482 19.0779 14.303C19.0779 14.6579 18.7904 14.9456 18.4353 14.9456Z" fill="#5D5360"/>
<path d="M6.86842 18.1587C3.31944 18.1587 0.442383 21.0357 0.442383 24.5847C0.442383 28.1336 3.31944 31.0107 6.86842 31.0107C10.4174 31.0107 13.2945 28.1336 13.2945 24.5847C13.2944 21.0357 10.4174 18.1587 6.86842 18.1587ZM6.86842 28.4403C4.73902 28.4403 3.01285 26.7141 3.01285 24.5847C3.01285 22.4553 4.73902 20.7292 6.86842 20.7292C8.99783 20.7292 10.724 22.4553 10.724 24.5847C10.724 26.7141 8.99783 28.4403 6.86842 28.4403Z" fill="#5D5360"/>
<path d="M6.86829 29.0828C4.38825 29.0828 2.37012 27.065 2.37012 24.5846C2.37012 22.1042 4.38825 20.0864 6.86829 20.0864C9.34833 20.0864 11.3665 22.1042 11.3665 24.5846C11.3665 27.065 9.34833 29.0828 6.86829 29.0828ZM6.86829 21.3715C5.09675 21.3715 3.65531 22.813 3.65531 24.5845C3.65531 26.3561 5.09675 27.7975 6.86829 27.7975C8.63983 27.7975 10.0813 26.3561 10.0813 24.5845C10.0813 22.813 8.63983 21.3715 6.86829 21.3715Z" fill="#E5646E"/>
<path d="M6.86822 26.5123C7.93291 26.5123 8.79601 25.6492 8.79601 24.5845C8.79601 23.5198 7.93291 22.6567 6.86822 22.6567C5.80353 22.6567 4.94043 23.5198 4.94043 24.5845C4.94043 25.6492 5.80353 26.5123 6.86822 26.5123Z" fill="#857E87"/>
<path d="M12.0326 21.5141C11.7224 21.3417 11.3311 21.4535 11.1587 21.7638L10.5346 22.8875C10.3622 23.1978 10.4741 23.5889 10.7843 23.7613L17.0497 27.3157L17.8283 24.7906L12.0326 21.5141Z" fill="#DAD8DB"/>
<path d="M36.1651 15.4507L31.5716 9.80469C31.123 9.80469 30.8124 10.2528 30.97 10.6729L31.921 13.209C32.2361 14.0492 31.615 14.9455 30.7176 14.9455H26.7887V14.3029C26.7887 12.8833 25.6379 11.7325 24.2183 11.7325H21.5236C20.3562 11.7325 19.2236 12.1297 18.312 12.859L17.4774 13.5267C16.9363 13.9595 16.8358 14.7434 17.2501 15.2988L18.3607 16.7874L20.1034 17.321L19.9298 18.8907L21.837 21.4471L20.2556 21.8535L16.2983 24.5057L16.887 27.1515H26.4583L27.5954 26.5123C27.6349 26.4004 27.6643 26.2836 27.6829 26.1628L28.2268 22.628C28.5263 20.6805 29.9127 19.0756 31.796 18.4962L35.4589 17.3692C36.2698 17.1196 36.6207 16.1666 36.1651 15.4507Z" fill="#E5646E"/>
<path d="M20.3628 24.5843C21.4275 24.5843 22.2906 23.7212 22.2906 22.6565C22.2906 21.5919 21.4275 20.7288 20.3628 20.7288C19.2982 20.7288 18.4351 21.5919 18.4351 22.6565C18.4351 23.7212 19.2982 24.5843 20.3628 24.5843Z" fill="#B6B1B7"/>
<path d="M32.9511 10.3999C32.7152 10.0292 32.3063 9.80469 31.8668 9.80469H31.5718L33.4696 13.3643C33.877 14.1283 34.5297 14.7331 35.3226 15.081L36.1653 15.4508L32.9511 10.3999Z" fill="#DAD8DB"/>
<path d="M29.3594 13.6602C29.7143 13.6602 30.002 13.3725 30.002 13.0176C30.002 12.6627 29.7143 12.375 29.3594 12.375C29.0045 12.375 28.7168 12.6627 28.7168 13.0176C28.7168 13.3725 29.0045 13.6602 29.3594 13.6602Z" fill="#4B3F4E"/>
<path d="M20.3352 15.4244L18.3608 16.7874L19.93 18.8908L21.6617 17.6356C21.769 17.5578 21.8982 17.5159 22.0307 17.5159H25.5038C26.2136 17.5159 26.789 16.9405 26.789 16.2307V14.9456H21.8293C21.2935 14.9456 20.7712 15.113 20.3352 15.4244Z" fill="#DAD8DB"/>
<path d="M18.4936 26.5127C17.7634 26.5127 17.0959 26.1001 16.7693 25.447L16.2988 24.5061L16.1627 24.5973C15.6252 24.9575 15.4393 25.661 15.7286 26.2397L15.9748 26.7322C16.3013 27.3853 16.9689 27.7979 17.6991 27.7979H25.778C26.607 27.7979 27.3284 27.2704 27.5959 26.5127H18.4936Z" fill="#DB4655"/>
<path d="M20.3628 23.2996C20.7177 23.2996 21.0054 23.0119 21.0054 22.657C21.0054 22.3021 20.7177 22.0144 20.3628 22.0144C20.0079 22.0144 19.7202 22.3021 19.7202 22.657C19.7202 23.0119 20.0079 23.2996 20.3628 23.2996Z" fill="#DAD8DB"/>
</g>
<defs>
<clipPath id="clip0_2701_7207">
<rect width="39.8413" height="39.8413" fill="white" transform="translate(0.442383 -0.00878906)"/>
</clipPath>
</defs>
</svg>