<svg xmlns:xlink="http://www.w3.org/1999/xlink" xmlns="http://www.w3.org/2000/svg" width="25" height="25" viewBox="0 0 41 41" fill="none">
<g clip-path="url(#clip0_2701_7315)">
<path d="M19.2823 10.0581H11.5942V41.0468H19.2823C21.0103 41.0468 22.4112 39.646 22.4112 37.918V13.1869C22.4112 11.4589 21.0103 10.0581 19.2823 10.0581Z" fill="#C4C4C4"/>
<path d="M3.90618 10.0581C2.17818 10.0581 0.777344 11.4589 0.777344 13.1869V37.9181C0.777344 39.6461 2.17818 41.0469 3.90618 41.0469H11.5943V10.0581H3.90618Z" fill="#E8E8E8"/>
<path d="M6.92041 25.5522L11.5942 32.6014L13.5726 25.5522L11.5942 18.5029L6.92041 25.5522Z" fill="#EB533D"/>
<path d="M16.2681 25.5522L11.5942 18.5029V32.6014L16.2681 25.5522Z" fill="#C92C1F"/>
<path d="M5.79281 13.2249L3.75 16.1053L5.79281 18.9858L7.83574 16.1053L5.79281 13.2249Z" fill="#EB533D"/>
<path d="M17.396 32.1179L15.353 34.9984L17.396 37.8788L19.4388 34.9984L17.396 32.1179Z" fill="#C92C1F"/>
<path d="M22.1137 2.04272C20.3857 2.04272 18.9849 3.44356 18.9849 5.17156V29.9027C18.9849 31.6307 20.3857 33.0315 22.1137 33.0315H29.8018L37.6711 17.7286L29.8018 2.04283L22.1137 2.04272Z" fill="white"/>
<path d="M37.4899 2.04272H29.8018V33.0315H37.4899C39.2179 33.0315 40.6187 31.6307 40.6187 29.9027V5.17156C40.6187 3.44356 39.2179 2.04272 37.4899 2.04272Z" fill="#E8E8E8"/>
<path d="M27.8566 11.4881L28.2971 14.0123C28.1521 13.9388 27.9973 13.8766 27.8326 13.8309C26.3089 13.4093 25.0169 14.2258 24.5922 15.1661C22.4847 19.8319 29.8013 24.3941 29.8016 24.3942L32.427 19.4162L29.8016 11.488H27.8566V11.4881Z" fill="#564760"/>
<path d="M35.0117 15.166C34.587 14.2257 33.2949 13.4092 31.7713 13.8308C31.6066 13.8764 31.4518 13.9386 31.3067 14.0121L31.7473 11.488H29.8022V24.3942C29.8022 24.3941 37.1192 19.8319 35.0117 15.166Z" fill="#322C38"/>
<path d="M26.1473 6.33764C25.976 5.95859 25.4552 5.62946 24.841 5.79943C24.7746 5.81778 24.7122 5.84291 24.6537 5.87251L24.8313 4.85498H23.2631L23.4407 5.87251C23.3823 5.84291 23.3198 5.81778 23.2535 5.79943C22.6393 5.62946 22.1184 5.95859 21.9472 6.33764C21.0975 8.21856 24.0472 10.0578 24.0472 10.0578C24.0472 10.0578 26.9969 8.21856 26.1473 6.33764Z" fill="#564760"/>
<path d="M33.4564 28.7367C33.6277 29.1158 34.1486 29.4449 34.7627 29.2749C34.8291 29.2566 34.8915 29.2315 34.95 29.2019L34.7724 30.2194H36.3406L36.163 29.2019C36.2214 29.2315 36.2839 29.2566 36.3503 29.2749C36.9645 29.4449 37.4854 29.1158 37.6567 28.7367C38.5063 26.8558 35.5566 25.0166 35.5566 25.0166C35.5566 25.0166 32.6068 26.8558 33.4564 28.7367Z" fill="#322C38"/>
</g>
<defs>
<clipPath id="clip0_2701_7315">
<rect width="39.8413" height="39.8413" fill="white" transform="translate(0.777344 0.749756)"/>
</clipPath>
</defs>
</svg>