<svg xmlns:xlink="http://www.w3.org/1999/xlink" xmlns="http://www.w3.org/2000/svg" width="25" height="25" viewBox="0 0 36 36" fill="none">
<path d="M31.4638 15.9041C31.3875 15.873 24.6839 13.0757 18.0282 13.0757C11.3725 13.0757 4.66863 15.8724 4.59268 15.9041C4.3389 17.4012 4.3389 18.9303 4.59268 20.4273L13.3702 21.3107C13.6186 21.3354 13.8537 21.4343 14.0451 21.5945C14.2365 21.7547 14.3752 21.9688 14.4431 22.209C15.294 25.2685 15.7393 28.4266 15.7675 31.6022C17.264 31.8558 18.7924 31.8558 20.2889 31.6022C20.3171 28.4266 20.7624 25.2685 21.6133 22.209C21.6812 21.9687 21.8198 21.7545 22.0112 21.5941C22.2026 21.4338 22.4378 21.3348 22.6862 21.3101L31.4638 20.4267C31.7175 18.9296 31.7175 17.4005 31.4638 15.9035V15.9041Z" fill="#063968"/>
<path d="M18.028 0.424561C14.519 0.424561 11.0888 1.4651 8.17113 3.4146C5.25351 5.36409 2.97949 8.13498 1.63666 11.3769C0.29382 14.6188 -0.057527 18.1861 0.627045 21.6276C1.31162 25.0692 3.00136 28.2305 5.4826 30.7117C7.96384 33.193 11.1251 34.8827 14.5667 35.5673C18.0083 36.2519 21.5756 35.9005 24.8175 34.5577C28.0593 33.2148 30.8302 30.9408 32.7797 28.0232C34.7292 25.1056 35.7698 21.6754 35.7698 18.1664C35.7698 13.461 33.9006 8.94825 30.5733 5.62102C27.2461 2.29378 22.7334 0.424561 18.028 0.424561ZM18.028 31.7924C15.333 31.7924 12.6985 30.9932 10.4577 29.496C8.21695 27.9988 6.47047 25.8707 5.43915 23.3808C4.40783 20.891 4.13799 18.1513 4.66375 15.5081C5.18951 12.8649 6.48727 10.437 8.3929 8.53132C10.2985 6.62569 12.7265 5.32793 15.3697 4.80217C18.0128 4.27641 20.7526 4.54625 23.2424 5.57757C25.7322 6.60889 27.8603 8.35537 29.3576 10.5962C30.8548 12.837 31.654 15.4714 31.654 18.1664C31.654 21.7802 30.2184 25.2461 27.663 27.8014C25.1076 30.3568 21.6418 31.7924 18.028 31.7924Z" fill="#3F568F"/>
<path d="M4.401 18.1664C4.39796 20.359 4.92665 22.5196 5.94174 24.4631L2.29377 26.3681C0.975335 23.8359 0.286675 21.0232 0.286133 18.1683C0.285591 15.3134 0.973184 12.5005 2.29066 9.96777L5.94174 11.8696C4.92665 13.8131 4.39796 15.9737 4.401 18.1664Z" fill="#FB931F"/>
<path d="M31.655 18.1664C31.658 20.359 31.1293 22.5196 30.1143 24.4631L33.7622 26.3681C35.0807 23.8359 35.7693 21.0232 35.7699 18.1683C35.7704 15.3134 35.0828 12.5005 33.7653 9.96777L30.1143 11.8696C31.1293 13.8131 31.658 15.9737 31.655 18.1664Z" fill="#FB931F"/>
<path d="M18.028 21.2421C19.7268 21.2421 21.1039 19.865 21.1039 18.1662C21.1039 16.4674 19.7268 15.0903 18.028 15.0903C16.3293 15.0903 14.9521 16.4674 14.9521 18.1662C14.9521 19.865 16.3293 21.2421 18.028 21.2421Z" fill="#FFD92E"/>
</svg>