<svg xmlns:xlink="http://www.w3.org/1999/xlink" xmlns="http://www.w3.org/2000/svg" width="20" height="20" viewBox="0 0 20 20" fill="none">
<g clip-path="url(#clip0_2_236)">
<path d="M6.02781 19.1389H13.9721C17.275 17.63 19.5703 14.298 19.5703 10.4297C19.5703 5.14414 15.2855 0.859375 10 0.859375C4.71445 0.859375 0.429688 5.14414 0.429688 10.4297C0.429688 14.298 2.725 17.63 6.02781 19.1389Z" fill="#FF4155"/>
<path d="M10 18.8281C14.3147 18.8281 17.8125 15.3303 17.8125 11.0156C17.8125 6.7009 14.3147 3.20312 10 3.20312C5.68528 3.20312 2.1875 6.7009 2.1875 11.0156C2.1875 15.3303 5.68528 18.8281 10 18.8281Z" fill="#E80054"/>
<path d="M2.15746 9.34276L2.82496 11.4575C2.92969 11.7893 3.20438 12.0393 3.54449 12.1124L4.70512 12.3618C4.94508 12.4134 5.1543 12.5558 5.29625 12.756C5.45344 12.9778 5.72938 13.1017 6.01485 13.0514L6.98008 12.8812C7.26559 12.8308 7.48246 12.62 7.55434 12.3578C7.61922 12.1211 7.76715 11.9158 7.975 11.7853L8.98031 11.1539C9.27492 10.9689 9.44754 10.64 9.43246 10.2925L9.33641 8.0769L2.15746 9.34276Z" fill="#BABABA"/>
<path d="M9.58727 4.01755C9.58078 3.98075 9.57383 3.94415 9.56645 3.90774C9.56086 3.87083 9.55488 3.83387 9.54836 3.79692C9.10781 1.29833 6.72516 -0.369992 4.2266 0.0705544C1.72824 0.511101 0.0599614 2.89337 0.500157 5.39169C0.512735 5.49134 0.528243 5.59114 0.547618 5.6911C0.707461 6.51657 1.08016 7.24864 1.59836 7.84048C1.77031 8.03688 1.79148 8.32188 1.66234 8.54872C1.56793 8.71458 1.53031 8.87977 1.55844 9.0393C1.65148 9.56712 2.44012 9.90821 3.56656 9.99673C3.84762 10.0188 4.07926 10.226 4.1282 10.5036C4.18723 10.8384 4.50652 11.062 4.84137 11.003L7.38227 10.5549C7.71711 10.4959 7.94066 10.1766 7.8816 9.84177C7.83266 9.56411 7.97941 9.2902 8.23598 9.17333C9.26422 8.70489 9.88863 8.11462 9.79555 7.5868C9.76742 7.42727 9.67555 7.28485 9.53004 7.1613C9.33082 6.99208 9.25387 6.71673 9.34836 6.47302C9.64141 5.7172 9.73832 4.87423 9.58727 4.01755Z" fill="#E2E2E2"/>
<path d="M6.43199 10.5079C6.32039 10.4177 6.23949 10.2885 6.21262 10.1361C6.16367 9.85849 5.93203 9.6513 5.65098 9.62923C4.52453 9.54071 3.7359 9.19962 3.64281 8.67181C3.61469 8.51228 3.65231 8.34708 3.74672 8.18122C3.87586 7.95435 3.85469 7.66938 3.68274 7.47298C3.16453 6.88114 2.79188 6.14911 2.63199 5.3236C2.61266 5.22368 2.59711 5.12384 2.58453 5.02423C2.20758 2.88477 3.37758 0.831572 5.29028 0.00887683C4.9416 -0.011045 4.58539 0.00735339 4.22653 0.0706346C1.72824 0.511103 0.0599625 2.89337 0.500119 5.39169C0.512658 5.49134 0.528205 5.59114 0.54758 5.69106C0.707423 6.51657 1.08012 7.2486 1.59832 7.84044C1.77027 8.03685 1.79145 8.32185 1.66231 8.54868C1.56789 8.71454 1.53027 8.87974 1.5584 9.03927C1.65145 9.56708 2.44008 9.90817 3.56653 9.99669C3.84762 10.0188 4.07922 10.2259 4.12817 10.5036C4.18719 10.8384 4.50649 11.062 4.84133 11.0029L6.46871 10.716L6.43199 10.5079Z" fill="#CCCCCC"/>
<path d="M4.88516 7.93652L5.19024 7.18562C5.28317 6.95695 5.58317 6.90406 5.74868 7.08715L6.29219 7.6884C6.46868 7.88363 6.36121 8.19684 6.102 8.24254L5.2534 8.39219C4.99422 8.43789 4.7861 8.18039 4.88516 7.93652Z" fill="#451D4F"/>
<path d="M7.3702 6.80798C7.96755 6.80798 8.4518 6.32373 8.4518 5.72638C8.4518 5.12903 7.96755 4.64478 7.3702 4.64478C6.77285 4.64478 6.2886 5.12903 6.2886 5.72638C6.2886 6.32373 6.77285 6.80798 7.3702 6.80798Z" fill="#451D4F"/>
<path d="M3.20121 7.54333C3.79856 7.54333 4.28281 7.05908 4.28281 6.46173C4.28281 5.86438 3.79856 5.38013 3.20121 5.38013C2.60386 5.38013 2.11961 5.86438 2.11961 6.46173C2.11961 7.05908 2.60386 7.54333 3.20121 7.54333Z" fill="#451D4F"/>
<path d="M10.6633 8.0708L10.5673 10.2849C10.5523 10.6323 10.7248 10.961 11.0192 11.1458L12.0239 11.7768C12.2316 11.9072 12.3795 12.1125 12.4443 12.349C12.5161 12.611 12.7329 12.8217 13.0182 12.8721L13.9828 13.0421C14.2681 13.0924 14.5439 12.9686 14.701 12.7469C14.8428 12.5468 15.0519 12.4046 15.2917 12.353L16.4516 12.1037C16.7915 12.0307 17.0661 11.7808 17.1707 11.4493L17.8378 9.3358L10.6633 8.0708Z" fill="#CCCCCC"/>
<path d="M19.4609 5.60949C19.4674 5.57274 19.4734 5.53598 19.4789 5.49926C19.4863 5.4627 19.4933 5.42594 19.4998 5.38899C19.9401 2.89195 18.2728 0.510822 15.7758 0.0705093C13.2789 -0.369725 10.898 1.29727 10.4574 3.79391C10.4352 3.89176 10.4156 3.99082 10.3997 4.09129C10.2676 4.92113 10.3674 5.73602 10.6517 6.46895C10.7461 6.71215 10.6686 6.98703 10.4697 7.15594C10.3244 7.27942 10.2326 7.42172 10.2045 7.58113C10.1114 8.10859 10.7355 8.69848 11.763 9.16664C12.0195 9.28348 12.1661 9.55719 12.1172 9.83469C12.0582 10.1693 12.2816 10.4884 12.6163 10.5474L15.1556 10.9951C15.4902 11.0541 15.8093 10.8307 15.8683 10.4961C15.9172 10.2186 16.1487 10.0116 16.4296 9.98949C17.5553 9.90102 18.3434 9.56012 18.4364 9.03266C18.4646 8.8732 18.427 8.70809 18.3326 8.54231C18.2033 8.31527 18.2252 8.03039 18.3972 7.83383C18.9308 7.22414 19.31 6.46563 19.4609 5.60949Z" fill="#F2F2F2"/>
<path d="M14.2793 10.6261C14.2053 10.5033 14.1736 10.3543 14.2004 10.202C14.2493 9.92453 14.1026 9.65082 13.8462 9.53399C12.8186 9.06582 12.1946 8.47594 12.2876 7.94848C12.3157 7.78906 12.4075 7.64676 12.5529 7.52328C12.7517 7.35438 12.8292 7.07949 12.7348 6.83629C12.4505 6.10336 12.3507 5.28852 12.4828 4.45863C12.4988 4.35817 12.5183 4.2591 12.5405 4.16125H12.5406C12.9179 2.0232 14.7184 0.494962 16.7959 0.376134C16.4752 0.238244 16.1345 0.133751 15.7758 0.0705093C13.2789 -0.369725 10.898 1.29727 10.4574 3.79391C10.4352 3.89176 10.4156 3.99082 10.3997 4.09129C10.2676 4.92113 10.3674 5.73602 10.6517 6.46895C10.7461 6.71219 10.6686 6.98703 10.4697 7.15594C10.3244 7.27942 10.2326 7.42172 10.2045 7.58113C10.1114 8.10859 10.7355 8.69848 11.763 9.16664C12.0195 9.28348 12.1661 9.55719 12.1172 9.83469C12.0582 10.1693 12.2817 10.4884 12.6163 10.5474L14.2427 10.8341L14.2793 10.6261Z" fill="#E2E2E2"/>
<path d="M13.7056 7.68259L14.2488 7.08173C14.4142 6.89872 14.714 6.95161 14.8069 7.18012L15.1118 7.93055C15.2108 8.17426 15.0028 8.43161 14.7438 8.38594L13.8957 8.23641C13.6366 8.19071 13.5292 7.87774 13.7056 7.68259Z" fill="#451D4F"/>
<path d="M16.7947 7.53761C17.3917 7.53761 17.8756 7.05365 17.8756 6.45667C17.8756 5.85968 17.3917 5.37573 16.7947 5.37573C16.1977 5.37573 15.7138 5.85968 15.7138 6.45667C15.7138 7.05365 16.1977 7.53761 16.7947 7.53761Z" fill="#451D4F"/>
<path d="M12.6283 6.80274C13.2253 6.80274 13.7093 6.31879 13.7093 5.72181C13.7093 5.12482 13.2253 4.64087 12.6283 4.64087C12.0313 4.64087 11.5474 5.12482 11.5474 5.72181C11.5474 6.31879 12.0313 6.80274 12.6283 6.80274Z" fill="#451D4F"/>
<path d="M6.00891 19.0362C6.01348 19.071 6.02019 19.1051 6.02781 19.1389C7.23781 19.6917 8.58281 20.0001 10 20.0001C11.4171 20.0001 12.7621 19.6917 13.9721 19.139C13.9797 19.1051 13.9864 19.071 13.991 19.0362L14.3362 16.4207H5.66375L6.00891 19.0362Z" fill="#E2E2E2"/>
<path d="M15.4687 11.7164C15.4687 11.672 15.4682 11.6277 15.4671 11.5835C15.4681 11.5391 15.4687 11.4946 15.4687 11.4499C15.4687 8.43149 13.0219 5.98462 10.0035 5.98462C6.98535 5.98462 4.53863 8.4311 4.5382 11.4491C4.53234 11.5684 4.52992 11.6886 4.53195 11.8097C4.54871 12.8099 4.83414 13.7445 5.31898 14.545C5.47988 14.8106 5.44582 15.1489 5.24761 15.388C5.10273 15.5628 5.02453 15.7486 5.02453 15.9413C5.02453 16.579 5.87804 17.1415 7.17949 17.4779C7.50422 17.5619 7.73281 17.8525 7.73281 18.1879C7.73281 18.5924 8.0607 18.9203 8.46519 18.9203H11.5347C11.9392 18.9203 12.2671 18.5924 12.2671 18.1879C12.2671 17.8525 12.4957 17.5619 12.8204 17.4779C14.1219 17.1415 14.9753 16.579 14.9753 15.9413C14.9753 15.7486 14.8971 15.5628 14.7522 15.3879C14.5537 15.1485 14.5205 14.81 14.6815 14.544C15.1811 13.7189 15.4687 12.7513 15.4687 11.7164Z" fill="white"/>
<path d="M10.4312 18.6688C10.319 18.5401 10.251 18.372 10.251 18.1879C10.251 17.8525 10.0224 17.5619 9.69765 17.4779C8.39617 17.1415 7.54265 16.579 7.54265 15.9413C7.54265 15.7486 7.62086 15.5628 7.76574 15.388C7.9639 15.1489 7.99801 14.8106 7.83707 14.545C7.35222 13.7445 7.06679 12.8099 7.05004 11.8097C7.04801 11.6886 7.05043 11.5684 7.05629 11.4491C7.0566 8.86462 8.85164 6.70079 11.2625 6.13204C10.8581 6.03665 10.437 5.98462 10.0034 5.98462C6.98531 5.98462 4.53859 8.4311 4.53816 11.4491C4.5323 11.5684 4.52988 11.6886 4.53191 11.8097C4.54863 12.8099 4.83406 13.7445 5.31894 14.545C5.47984 14.8107 5.44578 15.1489 5.24758 15.388C5.10269 15.5628 5.02449 15.7486 5.02449 15.9413C5.02449 16.579 5.87801 17.1415 7.17945 17.4779C7.50422 17.5619 7.73277 17.8525 7.73277 18.1879C7.73277 18.5924 8.0607 18.9203 8.46515 18.9203H10.4311V18.6688H10.4312Z" fill="#F2F2F2"/>
<path d="M11.2935 19.242C11.1602 19.242 11.0522 19.134 11.0522 19.0008V18.0357C11.0522 17.9024 11.1602 17.7944 11.2935 17.7944C11.4267 17.7944 11.5347 17.9024 11.5347 18.0357V19.0008C11.5347 19.134 11.4267 19.242 11.2935 19.242Z" fill="#CCCCCC"/>
<path d="M8.70652 19.242C8.83976 19.242 8.94777 19.134 8.94777 19.0008V18.0357C8.94777 17.9024 8.83976 17.7944 8.70652 17.7944C8.57328 17.7944 8.46527 17.9024 8.46527 18.0357V19.0008C8.46527 19.134 8.57328 19.242 8.70652 19.242Z" fill="#CCCCCC"/>
<path d="M9.56883 19.242C9.70207 19.242 9.81008 19.134 9.81008 19.0008V18.0357C9.81008 17.9024 9.70207 17.7944 9.56883 17.7944C9.43558 17.7944 9.32758 17.9024 9.32758 18.0357V19.0008C9.32758 19.134 9.43558 19.242 9.56883 19.242Z" fill="#CCCCCC"/>
<path d="M10.4312 19.242C10.5644 19.242 10.6724 19.134 10.6724 19.0008V18.0357C10.6724 17.9024 10.5644 17.7944 10.4312 17.7944C10.2979 17.7944 10.1899 17.9024 10.1899 18.0357V19.0008C10.1899 19.134 10.2979 19.242 10.4312 19.242Z" fill="#CCCCCC"/>
<path d="M9.15007 15.3365L9.66265 14.5198C9.81874 14.2711 10.1812 14.2711 10.3373 14.5198L10.8499 15.3365C11.0163 15.6017 10.8257 15.9465 10.5126 15.9465H9.48742C9.17425 15.9464 8.98363 15.6017 9.15007 15.3365Z" fill="#451D4F"/>
<path d="M12.5181 14.5474C13.2288 14.5474 13.8049 13.9713 13.8049 13.2606C13.8049 12.55 13.2288 11.9739 12.5181 11.9739C11.8075 11.9739 11.2314 12.55 11.2314 13.2606C11.2314 13.9713 11.8075 14.5474 12.5181 14.5474Z" fill="#451D4F"/>
<path d="M7.48183 14.5474C8.19249 14.5474 8.76859 13.9713 8.76859 13.2606C8.76859 12.55 8.19249 11.9739 7.48183 11.9739C6.77118 11.9739 6.19508 12.55 6.19508 13.2606C6.19508 13.9713 6.77118 14.5474 7.48183 14.5474Z" fill="#451D4F"/>
</g>
<defs>
<clipPath id="clip0_2_236">
<rect width="20" height="20" fill="white"/>
</clipPath>
</defs>
</svg>