<svg xmlns:xlink="http://www.w3.org/1999/xlink" xmlns="http://www.w3.org/2000/svg" width="20" height="20" viewBox="0 0 20 20" fill="none">
<g clip-path="url(#clip0_2_201)">
<path fill-rule="evenodd" clip-rule="evenodd" d="M0.782108 11.0682V17.2943C0.782108 17.8282 1.21898 18.265 1.75285 18.265H2.64488C2.64488 19.2232 3.42168 20.0001 4.37988 20.0001C5.33922 20.0001 6.11601 19.2232 6.11601 18.265H7.97875V11.0682L4.10039 9.79175L0.782108 11.0682Z" fill="#EC5469"/>
<path fill-rule="evenodd" clip-rule="evenodd" d="M7.97871 3.87036H1.75281C1.21898 3.87036 0.78207 4.30728 0.78207 4.84224V11.0683H2.6448C2.6448 12.0265 3.4216 12.8033 4.3798 12.8033C5.33914 12.8033 6.11594 12.0265 6.11594 11.0683H7.97867V9.20435C7.02051 9.20435 6.24367 8.42751 6.24367 7.46931C6.24367 6.5111 7.02047 5.73313 7.97867 5.73313V3.87036H7.97871Z" fill="#60B6FF"/>
<path fill-rule="evenodd" clip-rule="evenodd" d="M7.97871 11.0681L6.5848 14.61L7.97871 18.2649H14.2046C14.7384 18.2649 15.1753 17.828 15.1753 17.2942V15.9162C16.1346 15.9162 16.9114 15.1393 16.9114 14.1811C16.9114 13.2218 16.1346 12.445 15.1753 12.445V11.0681H13.3126C13.3126 12.0263 12.5358 12.8032 11.5776 12.8032C10.6194 12.8032 9.84144 12.0263 9.84144 11.0681H7.97871Z" fill="#FFC243"/>
<path fill-rule="evenodd" clip-rule="evenodd" d="M11.7852 6.8612L12.2917 8.6544L14.0848 8.14792C14.3449 9.07077 15.3031 9.60803 16.2259 9.34682C17.1487 9.08674 17.6848 8.12854 17.4248 7.20569L19.2179 6.70034L17.5274 0.708149C17.3825 0.193696 16.843 -0.108609 16.3297 0.0362741L10.3377 1.72682L10.843 3.52002C9.92016 3.7801 9.38402 4.73944 9.6441 5.66229C9.90418 6.58397 10.8635 7.12127 11.7852 6.8612Z" fill="#6FD7A3"/>
<path fill-rule="evenodd" clip-rule="evenodd" d="M14.1772 0.643149C14.9745 2.17514 15.4833 4.49991 15.4833 7.10303C15.4833 7.8867 15.4377 8.6453 15.351 9.36506C15.6304 9.43237 15.9304 9.43123 16.2259 9.34682C17.1487 9.08674 17.6848 8.12854 17.4248 7.20569L19.2179 6.70034L17.5274 0.708149C17.3825 0.193696 16.843 -0.108609 16.3297 0.0362741L14.1772 0.643149Z" fill="#3EC3A4"/>
<path fill-rule="evenodd" clip-rule="evenodd" d="M15.1753 11.0681H13.3126C13.3126 11.7149 12.9578 12.2796 12.4331 12.5784C13.024 14.61 12.5232 17.7105 12.1138 18.2649H14.2046C14.7385 18.2649 15.1754 17.828 15.1754 17.2942V15.9162C16.1347 15.9162 16.9115 15.1393 16.9115 14.1811C16.9115 13.2218 16.1347 12.445 15.1754 12.445V11.0681H15.1753Z" fill="#FEA610"/>
<path fill-rule="evenodd" clip-rule="evenodd" d="M7.97871 11.0683V9.20435C7.02055 9.20435 6.24371 8.42751 6.24371 7.46931C6.24371 6.5111 7.02051 5.73313 7.97871 5.73313V3.87036H2.87183C3.63722 5.94646 4.17336 9.13478 4.31367 12.8022C4.33535 12.8033 4.35816 12.8033 4.37984 12.8033C5.33918 12.8033 6.11597 12.0265 6.11597 11.0683H7.97871Z" fill="#23A6FE"/>
<path fill-rule="evenodd" clip-rule="evenodd" d="M7.97871 11.0681H6.11598C6.11598 12.0263 5.33918 12.8032 4.37984 12.8032C4.35816 12.8032 4.33535 12.8032 4.31367 12.802C4.33762 13.4249 4.34902 14.0602 4.34902 14.707C4.34902 16.5767 4.2475 18.3562 4.06269 19.9714C4.16535 19.9908 4.27144 20 4.3798 20C5.33914 20 6.11594 19.2231 6.11594 18.2649H7.97867V11.0681H7.97871Z" fill="#E5374E"/>
</g>
<defs>
<clipPath id="clip0_2_201">
<rect width="20" height="20" fill="white"/>
</clipPath>
</defs>
</svg>