<svg xmlns:xlink="http://www.w3.org/1999/xlink" xmlns="http://www.w3.org/2000/svg" width="20" height="20" viewBox="0 0 20 20" fill="none">
<path d="M11.4592 6.94866V6.49647C11.4592 5.87858 11.8995 5.34838 12.5069 5.23495L14.0108 4.95409C14.8003 4.80663 15.5298 5.41245 15.5298 6.21561L11.4592 6.94866Z" fill="#385F82"/>
<path d="M20 13.2592C20 14.8809 18.6853 16.1956 17.0636 16.1956C15.6736 16.1956 14.5095 15.2302 14.2052 13.9332C14.1541 13.7167 14.1272 13.491 14.1272 13.2592C14.1272 12.9658 14.1702 12.6825 14.2503 12.4153C14.3911 11.9445 14.6471 11.5235 14.9855 11.1843C15.445 10.724 16.0567 10.4153 16.7388 10.3409C16.8454 10.3288 16.9537 10.3228 17.0636 10.3228C18.6853 10.3228 20 11.6374 20 13.2592Z" fill="#618BAA"/>
<path d="M16.7388 10.3408C16.7155 10.4298 16.6757 10.5146 16.6197 10.5919L14.9996 12.8362L14.2503 12.4152C14.3912 11.9444 14.6471 11.5235 14.9855 11.1843C15.4451 10.7239 16.0568 10.4153 16.7388 10.3408Z" fill="#4E7693"/>
<path d="M17.8982 13.209C17.8982 13.7664 17.4451 14.2199 16.8886 14.2199C16.8536 14.2199 16.8186 14.2179 16.7839 14.2143L14.2053 13.933C14.1542 13.7165 14.1272 13.4907 14.1272 13.2589C14.1272 12.4488 14.4552 11.7157 14.9856 11.1841C15.6781 11.5153 16.4632 11.8891 17.3212 12.296C17.6716 12.4622 17.8982 12.8207 17.8982 13.209Z" fill="#4E7693"/>
<path d="M17.0636 14.8916C16.1635 14.8916 15.4311 14.1593 15.4311 13.2591C15.4311 12.359 16.1634 11.6267 17.0636 11.6267C17.9637 11.6267 18.6961 12.359 18.6961 13.2591C18.6961 14.1592 17.9637 14.8916 17.0636 14.8916Z" fill="#4E7693"/>
<path d="M17.0637 14.3683C17.6763 14.3683 18.173 13.8716 18.173 13.259C18.173 12.6463 17.6763 12.1497 17.0637 12.1497C16.451 12.1497 15.9544 12.6463 15.9544 13.259C15.9544 13.8716 16.451 14.3683 17.0637 14.3683Z" fill="#1F4C68"/>
<path d="M5.87285 13.2592C5.87285 13.9731 5.61812 14.627 5.1948 15.1361C5.06121 15.2966 4.91109 15.4427 4.74652 15.5719C4.24793 15.9626 3.61937 16.1956 2.93645 16.1956C1.31469 16.1956 0 14.8809 0 13.2592C0 12.4781 0.305039 11.7687 0.802422 11.2423C1.33762 10.6761 2.09578 10.3228 2.93645 10.3228C2.94531 10.3228 2.95457 10.3228 2.9634 10.3231C4.57262 10.3372 5.87285 11.6463 5.87285 13.2592Z" fill="#618BAA"/>
<path d="M5.87286 13.2593C5.87286 13.9731 5.61814 14.6271 5.19482 15.1361C5.06122 15.2967 4.9111 15.4428 4.74653 15.572L4.77107 15.3092C4.77189 15.2987 4.86646 14.1543 4.42458 12.7921C4.11314 11.8299 3.62419 11.0054 2.96341 10.3232C4.57263 10.3373 5.87286 11.6464 5.87286 13.2593Z" fill="#4E7693"/>
<path d="M5.19477 15.1358V15.0622C5.19477 13.8984 4.89012 12.8276 4.29055 11.8723L3.87567 13.2167C3.75856 13.5954 3.41009 13.8384 3.03302 13.8384C2.94688 13.8384 2.85919 13.8256 2.77266 13.799C2.30747 13.6553 2.0463 13.1616 2.18997 12.6964L2.63907 11.242H0.802429C1.33762 10.6758 2.09579 10.3225 2.93645 10.3225C4.55817 10.3225 5.87286 11.6372 5.87286 13.2589C5.87286 13.9729 5.61813 14.6268 5.19477 15.1358Z" fill="#4E7693"/>
<path d="M2.93642 14.8916C2.0363 14.8916 1.30396 14.1593 1.30396 13.2591C1.30396 12.359 2.0363 11.6267 2.93642 11.6267C3.83653 11.6267 4.56888 12.359 4.56888 13.2591C4.56888 14.1592 3.83653 14.8916 2.93642 14.8916Z" fill="#4E7693"/>
<path d="M2.93632 14.3683C3.54897 14.3683 4.04562 13.8716 4.04562 13.259C4.04562 12.6463 3.54897 12.1497 2.93632 12.1497C2.32368 12.1497 1.82703 12.6463 1.82703 13.259C1.82703 13.8716 2.32368 14.3683 2.93632 14.3683Z" fill="#BCCED5"/>
<path d="M5.65152 10.7188H0.678868C0.50461 10.7188 0.385118 10.5438 0.447462 10.3808C0.601173 9.97997 1.02129 9.63591 1.59758 9.4122C2.04387 9.23837 2.58348 9.13696 3.165 9.13696C4.49699 9.13696 5.61047 9.66978 5.8825 10.3808C5.94488 10.5438 5.82574 10.7188 5.65152 10.7188Z" fill="#BCCED5"/>
<path d="M5.65153 10.7188H3.36539C3.23781 10.5917 3.10461 10.4681 2.96578 10.349C2.5034 9.95185 2.02051 9.63837 1.59758 9.4122C2.04387 9.23837 2.58348 9.13696 3.165 9.13696C4.49699 9.13696 5.61047 9.66978 5.8825 10.3808C5.94488 10.5438 5.82574 10.7188 5.65153 10.7188Z" fill="#99A9AD"/>
<path d="M16.196 10.2855L15.4032 11.3837L14.8487 12.1515L13.2945 11.2779C13.2945 11.2779 13.4772 10.9692 13.8627 10.6449C14.3034 10.2734 15.01 9.88145 16.0116 9.90802C16.202 9.91286 16.3075 10.1314 16.196 10.2855Z" fill="#BCCED5"/>
<path d="M15.4032 11.3838L14.8487 12.1517L13.2945 11.278C13.2945 11.278 13.4772 10.9694 13.8627 10.645C14.3151 10.8631 14.8318 11.1106 15.4032 11.3838Z" fill="#99A9AD"/>
<path d="M17.375 13.2088C17.375 13.4812 17.1537 13.6965 16.8877 13.6965C16.8712 13.6965 16.8543 13.6958 16.8374 13.6941L12.1847 13.1867H12.1835L7.52231 12.6785L11.371 10.1477L11.5086 10.0571C11.5111 10.0644 11.5662 10.0962 11.6636 10.1473C11.7972 10.2177 12.0104 10.3244 12.2777 10.4563C12.571 10.6008 12.9296 10.7754 13.3195 10.9638C14.6829 11.6222 16.4273 12.4511 17.0966 12.7687C17.2668 12.849 17.375 13.0205 17.375 13.2088Z" fill="#BCCED5"/>
<path d="M11.8386 12.3227C11.8885 12.6302 12.0036 12.9187 12.1835 13.1867L7.52234 12.6785L11.371 10.1477L11.5087 10.0571C11.5111 10.0644 11.5662 10.0962 11.6636 10.1473C11.7972 10.2177 12.0105 10.3244 12.2777 10.4563C12.571 10.6008 12.9296 10.7754 13.3195 10.9638L11.8386 12.3227Z" fill="#99A9AD"/>
<path d="M12.7879 14.6083V14.8943C12.7879 15.0277 12.6798 15.1358 12.5465 15.1358H7.10382V10.6774L10.3123 10.6722L11.5734 10.6702C11.5734 10.6702 11.3537 11.0871 11.2994 11.6891C11.2712 11.9973 11.2861 12.3543 11.3964 12.7285C11.5598 13.2847 11.9332 13.8799 12.686 14.4115C12.7499 14.4566 12.7879 14.5301 12.7879 14.6083Z" fill="#BCCED5"/>
<path d="M11.3964 12.7288L10.4559 13.5919C10.3614 13.6785 10.2366 13.7239 10.1086 13.7187L7.10542 13.5899L10.3123 10.6724L11.5734 10.6704C11.5734 10.6704 11.3537 11.0873 11.2994 11.6893C11.2712 11.9976 11.2861 12.3545 11.3964 12.7288Z" fill="#99A9AD"/>
<path d="M11.5734 10.6704C11.5734 10.6704 11.3537 11.0873 11.2994 11.6893L11.0004 11.8756L8.71628 14.5384L9.18308 15.136H7.10382V10.6777L11.5734 10.6704Z" fill="#99A9AD"/>
<path d="M4.37949 9.81031L3.85515 11.5089L3.34129 13.1745C3.30183 13.3016 3.16664 13.3733 3.03906 13.3338L2.81492 13.2646C2.68734 13.2252 2.61613 13.09 2.65554 12.9628L3.33765 10.7523L3.69379 9.59863L4.37949 9.81031Z" fill="#FCB043"/>
<path d="M4.3795 9.81052L3.85516 11.5091C3.70102 11.2423 3.5284 10.99 3.33766 10.7526L3.69379 9.59888L4.3795 9.81052Z" fill="#DF781B"/>
<path d="M5.65915 7.51702H2.75653V5.37335C3.08813 5.36971 3.66399 5.39671 4.21567 5.583C4.95938 5.83374 5.65915 6.37378 5.65915 7.51702Z" fill="#BCCED5"/>
<path d="M5.35173 7.51702H2.75653V5.37335C3.08813 5.36971 3.66399 5.39671 4.21567 5.583L3.85872 5.851C3.672 5.99104 3.56052 6.2144 3.56052 6.4478C3.56052 6.57053 3.5911 6.69249 3.64903 6.79991C3.66755 6.83491 3.68848 6.86753 3.71219 6.89889C3.81118 7.02885 3.94719 7.12182 4.10536 7.16651L5.35173 7.51702Z" fill="#99A9AD"/>
<path d="M18.1757 3.80682C18.4098 3.77537 18.5452 4.0642 18.3711 4.22396L14.3972 7.87244L13.8273 8.39556L9.73844 12.1497H7.52234V9.47846H4.73242V7.4201C4.73242 7.39435 4.73281 7.36857 4.73402 7.34322C4.74527 7.05994 4.8173 6.78748 4.94086 6.54201C5.13523 6.15326 5.45797 5.83174 5.86762 5.63939C6.81934 5.19271 7.72879 4.90658 8.49137 4.72349C9.60687 4.45549 10.7509 4.98908 11.2704 5.99471C11.2982 6.04822 11.3239 6.10295 11.3481 6.15888L11.3932 6.26353L11.9131 6.17338L14.9902 5.63986C15.1059 5.61978 15.1904 5.51939 15.1904 5.40197V4.41877C15.1904 4.29783 15.2798 4.19556 15.3997 4.17947L18.1757 3.80682Z" fill="#04A1EE"/>
<path d="M13.3944 8.57593L13.3529 9.54132L13.3268 10.151C13.324 10.215 13.2962 10.2753 13.2487 10.3184L10.1879 13.1276C10.1408 13.1711 10.0784 13.1936 10.0145 13.1908L9.87762 13.1848L8.39716 13.1216L13.3944 8.57593Z" fill="#FCB043"/>
<path d="M13.3944 8.57593L13.3529 9.54132L10.3823 12.2689V12.3135C10.3823 12.4958 10.3167 12.6729 10.198 12.8113L9.8777 13.1848L8.39723 13.1216L13.3944 8.57593Z" fill="#DF781B"/>
<path d="M14.3972 7.87224L13.8273 8.39536L9.73844 12.1495H7.52234V9.47825H4.73242V7.41989C4.73242 7.39415 4.73281 7.36837 4.73402 7.34302L6.26762 7.77442L7.23664 8.04646H9.93203L10.5413 8.65571L11.5051 7.8722L14.3972 7.87224Z" fill="#0084CE"/>
<path d="M5.92917 8.64863C5.74726 8.8607 5.48249 8.98266 5.20281 8.98266C5.03702 8.98266 4.87484 8.93961 4.73238 8.85871V7.42008C4.73238 7.39434 4.73277 7.36855 4.73398 7.3432C4.74523 7.05992 4.8173 6.78746 4.94081 6.54199L5.82531 7.29973C6.01925 7.46633 6.13679 7.69812 6.15648 7.95285C6.17624 8.20758 6.09538 8.45465 5.92917 8.64863Z" fill="#0084CE"/>
<path d="M18.1757 3.80682C18.4098 3.77537 18.5452 4.0642 18.3711 4.22396L14.3972 7.87244L13.8274 8.39557L9.73843 12.1497H7.52234V9.54771L9.47566 8.0467L11.9131 6.17346L13.9195 5.82576L14.7702 5.67806L14.9902 5.63994C15.1059 5.61986 15.1903 5.51947 15.1903 5.40205V4.41885C15.1903 4.29791 15.2798 4.19564 15.3997 4.17955L18.1757 3.80682Z" fill="#DEF2FC"/>
<path d="M14.3972 7.87231L13.8273 8.39544L9.73843 12.1495H7.52234V9.54755L9.47566 8.04653H9.93199L10.5412 8.65579L11.505 7.87231H14.3972Z" fill="#CFE1E5"/>
<path d="M14.7702 5.67798L13.1642 7.87235L12.4816 8.80985C12.4224 8.89032 12.3307 8.93298 12.2377 8.93298C12.1757 8.93298 12.1134 8.91407 12.0594 8.87462C11.925 8.77603 11.896 8.58689 11.9946 8.45247L12.4165 7.87231L13.9195 5.82563L14.7702 5.67798Z" fill="#04A1EE"/>
<path d="M13.1642 7.87235L12.4816 8.80985C12.4224 8.89032 12.3307 8.93298 12.2377 8.93298C12.1757 8.93298 12.1134 8.91407 12.0594 8.87462C11.925 8.77603 11.896 8.58688 11.9946 8.45247L12.4165 7.87231H13.1642V7.87235Z" fill="#0084CE"/>
<path d="M13.8273 8.39551L9.73844 12.1496H7.52234V9.4784H6.83824V8.56977H9.61551C9.67953 8.56977 9.74098 8.5952 9.78625 8.64047L10.3511 9.20527C10.4386 9.29277 10.5781 9.29996 10.6741 9.22191L11.6245 8.44957C11.6675 8.41461 11.7212 8.39551 11.7767 8.39551H13.8273Z" fill="#385F82"/>
<path d="M9.80098 12.4706L8.16898 14.373C8.0941 14.4603 8.09117 14.5883 8.16199 14.6789L8.38727 14.9672C8.51113 15.1257 8.3982 15.3573 8.19703 15.3573H5.54402C5.40894 15.3573 5.30027 15.2467 5.30266 15.1117C5.31203 14.5725 5.25785 13.2194 4.59516 11.7971C4.06476 10.6599 3.14566 9.47799 1.55773 8.6333C1.42836 8.56444 1.29445 8.49768 1.15578 8.43354C1.11316 8.41381 1.07684 8.38233 1.05195 8.34248L0.639843 7.68323L0.579492 7.58666C0.475663 7.42045 0.47246 7.21041 0.572265 7.04139C0.967734 6.37186 2.13199 4.72916 4.21242 4.35869C4.4632 4.31405 4.60449 4.63655 4.40078 4.78951L3.54449 5.43252C3.22539 5.67237 3.03746 6.04862 3.03746 6.4478C3.03746 6.66268 3.09141 6.86752 3.18836 7.0478C3.21934 7.10615 3.25516 7.16166 3.295 7.2144C3.4584 7.42928 3.68976 7.59268 3.9634 7.66994L6.12598 8.27799L7.20484 8.581C7.55051 8.67838 7.80281 8.93311 7.9143 9.24658C7.98672 9.4494 7.99961 9.67678 7.94086 9.9017C7.86965 10.1741 7.92355 10.4876 8.24949 10.8136C8.67812 11.2422 9.20332 11.4197 9.65367 11.4848C9.77195 11.5019 9.85914 11.604 9.85914 11.7235V12.3133C9.85914 12.371 9.83851 12.4268 9.80098 12.4706Z" fill="#04A1EE"/>
<path d="M2.12391 8.63347H1.55774C1.42836 8.5646 1.29446 8.49784 1.15578 8.4337C1.11317 8.41397 1.07684 8.38249 1.05196 8.34265L0.639847 7.68335H1.80094C1.88024 7.68335 1.95446 7.72229 1.99957 7.78749L2.3225 8.25468C2.43321 8.41487 2.3186 8.63347 2.12391 8.63347Z" fill="#1F4C68"/>
<path d="M9.80097 12.4706L8.16898 14.373C8.0941 14.4603 8.09117 14.5883 8.16199 14.6789L8.38726 14.9672C8.51113 15.1257 8.3982 15.3573 8.19703 15.3573H5.54402C5.40894 15.3573 5.30027 15.2467 5.30265 15.1117C5.31203 14.5725 5.25785 13.2194 4.59515 11.7971L7.91426 9.24658C7.98668 9.44939 7.99957 9.67678 7.94082 9.9017C7.86961 10.1741 7.92351 10.4876 8.24945 10.8136C8.67808 11.2422 9.20328 11.4197 9.65363 11.4849C9.77191 11.502 9.8591 11.604 9.8591 11.7235V12.3134C9.85914 12.371 9.83851 12.4268 9.80097 12.4706Z" fill="#DEF2FC"/>
<path d="M6.12593 8.27801C6.08933 8.4132 6.02292 8.53918 5.92917 8.64863C5.74726 8.8607 5.48249 8.98266 5.20281 8.98266C4.97464 8.98266 4.75371 8.90098 4.58066 8.75246L3.23054 7.59555C3.06765 7.45594 3.04874 7.21074 3.18831 7.04785C3.21929 7.10621 3.25511 7.16176 3.29496 7.21445C3.45835 7.42934 3.68972 7.59273 3.96335 7.67L6.12593 8.27801Z" fill="#0084CE"/>
<path d="M3.92657 8.97637C3.75989 8.97637 3.62477 8.84125 3.62477 8.67457V7.5684C3.62477 7.40172 3.75989 7.2666 3.92657 7.2666C4.09325 7.2666 4.22837 7.40172 4.22837 7.5684V8.67457C4.22837 8.84125 4.09325 8.97637 3.92657 8.97637Z" fill="#385F82"/>
<path d="M4.08007 6.81139C4.16683 6.71014 4.31925 6.69838 4.42054 6.78518L5.48484 7.69725C5.66656 7.85295 5.68761 8.12651 5.53191 8.30823C5.3762 8.48995 5.10265 8.511 4.92093 8.3553L3.85663 7.44319C3.75538 7.35643 3.74363 7.20401 3.83042 7.10272L4.08007 6.81139Z" fill="#FCB043"/>
<path d="M6.35702 13.301C6.23288 13.301 6.11659 13.2238 6.07265 13.1002L5.64725 11.9032C5.59143 11.7462 5.6735 11.5736 5.83057 11.5178C5.98761 11.4619 6.16022 11.544 6.21604 11.7011L6.64143 12.898C6.69725 13.0551 6.61518 13.2277 6.45811 13.2835C6.42472 13.2953 6.39057 13.301 6.35702 13.301Z" fill="#FCB043"/>
<path d="M7.18652 13.2378C7.06238 13.2378 6.94609 13.1606 6.90214 13.037L6.47675 11.84C6.42093 11.6829 6.503 11.5103 6.66007 11.4545C6.81722 11.3987 6.98972 11.4808 7.04554 11.6378L7.47093 12.8348C7.52675 12.9919 7.44468 13.1645 7.28761 13.2203C7.25418 13.2322 7.22003 13.2378 7.18652 13.2378Z" fill="#FCB043"/>
<path d="M8.01596 13.1745C7.89182 13.1745 7.77553 13.0974 7.73159 12.9737L7.30616 11.7768C7.25034 11.6197 7.33241 11.4471 7.48948 11.3913C7.64651 11.3355 7.81913 11.4175 7.87495 11.5746L8.30038 12.7716C8.3562 12.9286 8.27413 13.1012 8.11706 13.157C8.08366 13.1689 8.04952 13.1745 8.01596 13.1745Z" fill="#FCB043"/>
<path d="M6.29305 7.09592C6.1734 7.09592 6.06016 7.02428 6.01286 6.90643L5.93204 6.70506C5.86997 6.55037 5.94504 6.37463 6.09973 6.31256C6.25434 6.25049 6.43012 6.32557 6.49223 6.48025L6.57305 6.68162C6.63512 6.83631 6.56004 7.01205 6.40536 7.07412C6.36852 7.08893 6.33047 7.09592 6.29305 7.09592Z" fill="#0084CE"/>
<path d="M6.97227 6.82346C6.85262 6.82346 6.73938 6.75182 6.69208 6.63397L6.61126 6.4326C6.54919 6.27791 6.62422 6.10217 6.77895 6.0401C6.93364 5.97803 7.10938 6.05311 7.17145 6.20779L7.25227 6.40916C7.31434 6.56385 7.2393 6.73959 7.08458 6.80166C7.04778 6.81643 7.00969 6.82346 6.97227 6.82346Z" fill="#0084CE"/>
<path d="M7.65152 6.55076C7.53187 6.55076 7.41863 6.47916 7.37133 6.3613L7.29051 6.15994C7.2284 6.00525 7.30344 5.82951 7.45816 5.76744C7.61285 5.70529 7.78859 5.78037 7.85066 5.93509L7.93148 6.13646C7.99359 6.29115 7.91855 6.46689 7.76383 6.52896C7.72699 6.54376 7.68898 6.55076 7.65152 6.55076Z" fill="#0084CE"/>
<path d="M9.10125 9.71834H9.09074C8.92406 9.71834 8.78894 9.58322 8.78894 9.41654C8.78894 9.24986 8.92406 9.11475 9.09074 9.11475H9.10125C9.26793 9.11475 9.40304 9.24986 9.40304 9.41654C9.40304 9.58322 9.26796 9.71834 9.10125 9.71834Z" fill="#1F4C68"/>
<path d="M9.10125 10.4298H9.09074C8.92406 10.4298 8.78894 10.2946 8.78894 10.128C8.78894 9.96129 8.92406 9.82617 9.09074 9.82617H9.10125C9.26793 9.82617 9.40304 9.96129 9.40304 10.128C9.40308 10.2946 9.26796 10.4298 9.10125 10.4298Z" fill="#1F4C68"/>
<path d="M14.7684 12.9505C14.756 12.9505 14.7436 12.9497 14.731 12.9482L12.525 12.6756C12.3596 12.6552 12.2421 12.5045 12.2625 12.339C12.283 12.1736 12.4333 12.0561 12.5991 12.0765L14.8051 12.3491C14.9705 12.3696 15.088 12.5203 15.0676 12.6857C15.0487 12.8385 14.9185 12.9505 14.7684 12.9505Z" fill="#FCB043"/>
</svg>