<svg xmlns:xlink="http://www.w3.org/1999/xlink" xmlns="http://www.w3.org/2000/svg" width="20" height="20" viewBox="0 0 20 20" fill="none">
<g clip-path="url(#clip0_0_254)">
<path d="M13.0449 10.493H11.584V13.1794H13.0449V10.493Z" fill="#FECF05"/>
<path d="M8.65926 8.17486C8.65391 8.17486 8.64852 8.17471 8.64313 8.1742C7.5877 8.08193 6.59852 7.44607 5.85762 6.38385C5.065 5.24768 4.62856 3.74111 4.62856 2.14186C4.62856 2.01107 4.73477 1.90479 4.86535 1.90479H7.10969C7.2057 1.90479 7.2857 1.9785 7.29363 2.0742C7.31668 2.35162 7.34551 2.62982 7.37926 2.90107C7.38578 2.95373 7.36945 3.00646 7.33441 3.04627C7.29941 3.08592 7.24898 3.10861 7.19605 3.10861H6.12617C6.06727 3.10861 6.01164 3.13439 5.97352 3.17936C5.93559 3.22432 5.91918 3.28354 5.92879 3.34158C6.09297 4.33146 6.43523 5.27256 6.84418 5.85881C7.30305 6.51678 7.8032 6.95533 8.2907 7.12744C8.33793 7.14408 8.37645 7.17916 8.39727 7.22467C8.46059 7.36314 8.52578 7.4492 8.59484 7.54018C8.65781 7.62314 8.72289 7.70881 8.78996 7.8408C8.80098 7.86225 8.81207 7.88385 8.82316 7.90529C8.8541 7.96514 8.85004 8.03697 8.81262 8.09303C8.77816 8.14447 8.72047 8.17486 8.65926 8.17486Z" fill="#F8B816"/>
<path d="M15.9693 8.17486C15.9081 8.17486 15.8504 8.14447 15.8159 8.09303C15.7785 8.03697 15.7745 7.96502 15.8054 7.90514C15.8166 7.88373 15.8276 7.86221 15.8386 7.84068C15.9056 7.709 15.9707 7.62314 16.0337 7.54018C16.1029 7.4492 16.168 7.36314 16.2314 7.22467C16.2522 7.17916 16.2906 7.14404 16.3378 7.12744C16.8252 6.95537 17.3255 6.51678 17.7844 5.85881C18.1934 5.27244 18.5356 4.33143 18.6998 3.34166C18.7094 3.28354 18.6931 3.22432 18.6551 3.17936C18.617 3.13447 18.5613 3.10861 18.5024 3.10861H17.4324C17.3795 3.10861 17.3291 3.08592 17.294 3.04627C17.2591 3.00646 17.2427 2.95373 17.2492 2.90107C17.283 2.6299 17.3118 2.35162 17.3349 2.0742C17.3428 1.9785 17.4229 1.90479 17.5188 1.90479H19.7632C19.8938 1.90479 20 2.01111 20 2.14186C20 3.74123 19.5636 5.24775 18.7709 6.38385C18.0301 7.44607 17.0409 8.08193 15.9854 8.1742C15.98 8.17471 15.9747 8.17486 15.9693 8.17486Z" fill="#F8B816"/>
<path d="M17.5801 0.56915C17.5265 0.514502 17.4532 0.483643 17.3767 0.483643H7.25179C7.17531 0.483643 7.10207 0.514463 7.04847 0.56915C6.9948 0.624033 6.96551 0.698057 6.96719 0.774619C7.02461 3.49024 7.58719 6.0295 8.55148 7.92454C9.20355 9.20595 9.99926 10.1113 10.8701 10.5859H13.7584C14.6293 10.1113 15.425 9.20595 16.0771 7.92454C17.0413 6.0295 17.6039 3.49024 17.6614 0.774619C17.663 0.698057 17.6337 0.624072 17.5801 0.56915Z" fill="#FECF05"/>
<path opacity="0.1" d="M11.7719 10.5859C10.9004 10.1118 10.1041 9.20669 9.45156 7.92454C8.4873 6.0295 7.92472 3.49024 7.86726 0.774619C7.86558 0.698057 7.89492 0.624072 7.94855 0.56915C8.00215 0.514502 8.07543 0.483643 8.15187 0.483643H7.25179C7.17531 0.483643 7.10207 0.514463 7.04847 0.56915C6.9948 0.624033 6.96551 0.698057 6.96719 0.774619C7.02461 3.49024 7.58719 6.0295 8.55148 7.92454C9.20355 9.20595 9.99926 10.1113 10.8701 10.5859H11.7719Z" fill="black"/>
<path d="M14.1128 14.401V13.3484C14.1128 13.2046 13.9964 13.0881 13.8528 13.0881H10.7758C10.6321 13.0881 10.5157 13.2046 10.5157 13.3484V14.401H14.1128Z" fill="#F8B816"/>
<path d="M15.2766 17.8906V14.5209C15.2766 14.4102 15.1861 14.3196 15.0754 14.3196H9.55312C9.44246 14.3196 9.35191 14.4102 9.35191 14.5209V17.8906H15.2766Z" fill="#A67C52"/>
<path d="M16.4404 18.6427C16.4404 18.7534 16.3499 18.844 16.2393 18.844H8.38929C8.27863 18.844 8.18808 18.7534 8.18808 18.6427V18.012C8.18808 17.9013 8.27863 17.8107 8.38929 17.8107H16.2392C16.3499 17.8107 16.4404 17.9013 16.4404 18.012V18.6427H16.4404Z" fill="#8C6239"/>
<path d="M14.1922 16.7987C14.1922 16.8651 14.1379 16.9195 14.0715 16.9195H10.5571C10.4907 16.9195 10.4364 16.8651 10.4364 16.7987V15.4396C10.4364 15.3732 10.4907 15.3188 10.5571 15.3188H14.0715C14.1379 15.3188 14.1922 15.3732 14.1922 15.4396V16.7987Z" fill="#FECF05"/>
<path d="M10.6939 10.4932V11.6141C10.6939 11.7242 10.7839 11.8143 10.894 11.8143H13.7349C13.8449 11.8143 13.9349 11.7242 13.9349 11.6141V10.4932H10.6939Z" fill="#F8B816"/>
<path d="M14.7551 5.31604C14.7551 6.66472 13.6623 7.75819 12.3144 7.75819C10.9665 7.75819 9.87367 6.66476 9.87367 5.31604C9.87367 3.96718 10.9665 2.87378 12.3144 2.87378C13.6623 2.87374 14.7551 3.96718 14.7551 5.31604Z" fill="#F8B816"/>
<path d="M12.3143 8.05092C10.8069 8.05092 9.58058 6.82396 9.58058 5.3158C9.58058 3.8076 10.8069 2.58057 12.3143 2.58057C13.8216 2.58057 15.048 3.8076 15.048 5.3158C15.048 6.82396 13.8216 8.05092 12.3143 8.05092ZM12.3143 3.1665C11.13 3.1665 10.1665 4.13068 10.1665 5.3158C10.1665 6.50084 11.13 7.46498 12.3143 7.46498C13.4986 7.46498 14.462 6.50084 14.462 5.3158C14.462 4.13068 13.4986 3.1665 12.3143 3.1665Z" fill="#A67C52"/>
<path d="M12.7186 4.94956H11.91C11.8224 4.94956 11.751 4.87815 11.751 4.79038V4.69515C11.751 4.60737 11.8224 4.53597 11.91 4.53597H12.8375C12.9993 4.53597 13.1305 4.40483 13.1305 4.243C13.1305 4.08116 12.9993 3.95003 12.8375 3.95003H12.6073V3.71948C12.6073 3.55765 12.4761 3.42651 12.3143 3.42651C12.1525 3.42651 12.0213 3.55765 12.0213 3.71948V3.95003H11.91C11.4992 3.95003 11.1651 4.28429 11.1651 4.69515V4.79038C11.1651 5.20128 11.4993 5.5355 11.91 5.5355H12.7186C12.8063 5.5355 12.8776 5.6069 12.8776 5.69464V5.78991C12.8776 5.87765 12.8063 5.94901 12.7186 5.94901H11.6007C11.439 5.94901 11.3078 6.08015 11.3078 6.24198C11.3078 6.40382 11.439 6.53495 11.6007 6.53495H12.0213V6.78944C12.0213 6.95128 12.1525 7.08241 12.3143 7.08241C12.4761 7.08241 12.6073 6.95128 12.6073 6.78944V6.53495H12.7186C13.1294 6.53495 13.4635 6.20069 13.4635 5.78991V5.69464C13.4635 5.28382 13.1293 4.94956 12.7186 4.94956Z" fill="#A67C52"/>
<path d="M10.0733 12.5027L10.8532 10.1012C10.1715 9.1345 9.21035 8.37954 8.08749 7.95341L5.97124 9.49188L3.85499 7.95337C2.74199 8.37591 1.78796 9.12169 1.10745 10.0763L1.91085 12.5504L0.0132751 13.9299C0.0859314 15.0624 0.47347 16.1092 1.08995 16.983H3.63992L4.39394 19.3052C4.89644 19.4426 5.42515 19.5163 5.97121 19.5163C6.52386 19.5163 7.0589 19.4408 7.56687 19.3002L8.35038 16.8874H10.919C11.5102 16.0138 11.8755 14.975 11.9334 13.8549L10.0733 12.5027Z" fill="#E9EAEC"/>
<path d="M10.3664 12.7158L11.9343 13.8556C11.9397 13.7516 11.9425 13.6469 11.9425 13.5416C11.9425 12.2604 11.5393 11.0736 10.8533 10.1008L10.1851 12.1585L7.92566 12.8283L6.26418 11.6204V9.27892L8.08758 7.95334C7.42973 7.70373 6.71648 7.56677 5.97121 7.56677C5.22594 7.56677 4.51273 7.70377 3.85488 7.95334L5.67824 9.27892V11.6204L4.00633 12.8359L1.81527 12.2562L1.10711 10.0753C0.410078 11.0529 0 12.2493 0 13.5416C0 13.6722 0.0046875 13.8017 0.0129297 13.9302L1.57074 12.7977L3.84613 13.3996L4.49531 15.3988L3.32559 16.9831H1.08973C1.87809 18.1007 3.04016 18.9353 4.39395 19.3054L3.76633 17.3725L5.01914 15.6758H6.91516L8.23195 17.2522L7.56684 19.3004C8.95113 18.9172 10.1336 18.0481 10.9189 16.8876H8.69078L7.44719 15.3988L8.1002 13.3877L10.3664 12.7158Z" fill="#0059AD"/>
<path d="M16.5723 12.4031C16.5224 12.4031 16.4774 12.3729 16.4583 12.3268C16.2004 11.7038 16.0104 11.5135 15.3881 11.2553C15.342 11.2362 15.3119 11.1911 15.3119 11.1412C15.3119 11.0912 15.342 11.0461 15.3881 11.027C16.0105 10.7689 16.2004 10.5786 16.4583 9.95556C16.4774 9.90935 16.5224 9.87927 16.5723 9.87927C16.6222 9.87927 16.6672 9.90939 16.6863 9.95556C16.9441 10.5786 17.1341 10.7688 17.7565 11.027C17.8026 11.0461 17.8327 11.0912 17.8327 11.1412C17.8327 11.1911 17.8026 11.2362 17.7565 11.2553C17.1342 11.5135 16.9442 11.7037 16.6863 12.3268C16.6672 12.3729 16.6222 12.4031 16.5723 12.4031Z" fill="#F7931E"/>
<path d="M2.72938 4.2018C2.68902 4.2018 2.6527 4.17747 2.63719 4.14012C2.42871 3.63637 2.27512 3.4825 1.77188 3.27383C1.73457 3.25836 1.71024 3.22192 1.71024 3.18157C1.71024 3.14114 1.73457 3.10469 1.77188 3.08926C2.27508 2.88055 2.42871 2.72676 2.63715 2.22293C2.65262 2.18555 2.68899 2.16125 2.72934 2.16125C2.76969 2.16125 2.8061 2.18555 2.82152 2.22293C3.02996 2.72676 3.18363 2.88055 3.6868 3.08926C3.7241 3.10473 3.74844 3.14114 3.74844 3.18157C3.74844 3.22192 3.7241 3.2584 3.6868 3.27383C3.1836 3.48254 3.02996 3.63637 2.82152 4.14016C2.80613 4.17747 2.76973 4.2018 2.72938 4.2018Z" fill="#F7931E"/>
<path opacity="0.1" d="M0.995156 13.5416C0.995156 10.4094 3.40383 7.8406 6.46879 7.58755C6.30469 7.574 6.13879 7.56677 5.97121 7.56677C2.6734 7.56677 0 10.2417 0 13.5416C0 16.8413 2.6734 19.5164 5.97121 19.5164C6.13879 19.5164 6.30469 19.5091 6.46879 19.4956C3.40383 19.2426 0.995156 16.6736 0.995156 13.5416Z" fill="black"/>
</g>
<defs>
<clipPath id="clip0_0_254">
<rect width="20" height="20" fill="white"/>
</clipPath>
</defs>
</svg>