<svg xmlns:xlink="http://www.w3.org/1999/xlink" xmlns="http://www.w3.org/2000/svg" width="25" height="25" viewBox="0 0 25 25" fill="none">
<g clip-path="url(#clip0_3697_4746)">
<g clip-path="url(#clip1_3697_4746)">
<path d="M21.4628 24.4721C21.2957 24.6774 21.0445 24.8416 20.7936 24.8416H7.66141C7.36852 24.8416 7.11763 24.7184 6.99219 24.4721C6.82503 24.2666 6.78302 23.9793 6.90847 23.7328L8.41406 19.8309H20.1243L21.6299 23.7328C21.6299 23.979 21.5881 24.2666 21.4628 24.4721ZM8.79068 12.2321L10.6726 11.6571C9.7942 13.1768 8.83236 15.4768 8.62324 18.5573L19.5807 18.5576C19.5807 18.5166 19.539 18.4754 19.539 18.4343L19.4552 18.229C19.4552 18.188 19.4135 18.1467 19.3715 18.1057C19.2044 17.7771 19.0369 17.4486 18.8277 17.12C18.4094 16.4217 18.033 15.8054 18.1168 15.1073C18.284 12.9303 18.8694 12.109 19.4132 11.2876C19.7896 10.7126 20.1658 10.1375 20.417 9.2339C21.2534 5.94796 18.9114 3.5247 16.444 2.29242C14.604 0.813768 11.76 0.23874 11.6346 0.19774C11.3417 0.15677 11.0491 0.23871 10.8399 0.444136C10.6307 0.649563 10.547 0.936929 10.6307 1.22461C10.6307 1.22461 10.8816 2.12823 11.1745 3.27827L7.15939 7.79651C6.44845 8.61791 5.69546 9.56251 5.82092 10.7948C5.86264 11.2876 6.07181 11.6984 6.3647 11.9858C7.20137 12.7252 8.37238 12.3966 8.79068 12.2321Z" fill="#FFB155"/>
</g>
</g>
<defs>
<clipPath id="clip0_3697_4746">
<rect width="25" height="25" fill="white"/>
</clipPath>
<clipPath id="clip1_3697_4746">
<rect width="17.9245" height="25" fill="white" transform="translate(3.99121 -0.0234375)"/>
</clipPath>
</defs>
</svg>