<svg width="130" height="27" viewBox="0 0 130 27" fill="none" xmlns="http://www.w3.org/2000/svg">
<g clip-path="url(#clip0_13_256)">
<path d="M20.2442 8.86204L18.9948 6.95226C18.8256 6.69376 19.0102 6.35425 19.3177 6.35425H21.8165C22.1241 6.35425 22.3048 6.69376 22.1394 6.95226L20.89 8.86204C20.7401 9.09353 20.398 9.09353 20.248 8.86204H20.2442Z" fill="#23224A"/>
<path d="M13.8126 6.07657L12.7324 0.405105C12.6939 0.196765 12.8516 0 13.0668 0H15.2235C15.4349 0 15.5964 0.192907 15.558 0.405105L14.4777 6.07657C14.4085 6.44695 13.8818 6.44695 13.8088 6.07657H13.8126Z" fill="#23224A"/>
<path d="M7.40417 8.86204L6.15477 6.95226C5.98562 6.69376 6.17014 6.35425 6.47769 6.35425H8.9765C9.28405 6.35425 9.46473 6.69376 9.29942 6.95226L8.05002 8.86204C7.90009 9.09353 7.55794 9.09353 7.40802 8.86204H7.40417Z" fill="#23224A"/>
<path d="M8.05769 25.2093L11.8713 19.372C12.5901 18.2184 11.7675 16.6829 10.3912 16.6829H2.76406C1.38779 16.6829 0.561262 18.2145 1.31859 19.372L5.13216 25.2093C5.81645 26.2549 7.34265 26.2549 8.06153 25.2093H8.05769Z" fill="#23224A"/>
<path d="M19.5676 25.213L15.754 19.3756C15.0351 18.2221 15.8578 16.6865 17.2341 16.6865H24.8574C26.2337 16.6865 27.0602 18.2182 26.3029 19.3756L22.4893 25.213C21.805 26.2586 20.2788 26.2586 19.5599 25.213H19.5676Z" fill="#23224A"/>
<path d="M42.3798 9.56825V15.9921C42.3798 16.0962 42.3375 16.1927 42.2683 16.266L39.8156 18.7275C39.7426 18.8008 39.6465 18.8394 39.5427 18.8394H34.3798C34.1683 18.8394 33.9953 19.013 33.9953 19.2252V21.76C33.9953 21.9722 33.8224 22.1458 33.6109 22.1458H30.6931C30.4816 22.1458 30.3086 21.9722 30.3086 21.76V7.10676C30.3086 6.89456 30.4816 6.72095 30.6931 6.72095H39.5465C39.6503 6.72095 39.7465 6.76339 39.8195 6.83283L42.2722 9.29433C42.3452 9.36763 42.3837 9.46408 42.3837 9.56825H42.3798ZM34.3798 15.884H38.3087C38.5201 15.884 38.6931 15.7104 38.6931 15.4982V10.0582C38.6931 9.84604 38.5201 9.67242 38.3087 9.67242H34.3798C34.1683 9.67242 33.9953 9.84604 33.9953 10.0582V15.4982C33.9953 15.7104 34.1683 15.884 34.3798 15.884Z" fill="#23224A"/>
<path d="M44.0444 21.7561V7.10676C44.0444 6.89456 44.2174 6.72095 44.4289 6.72095H47.3467C47.5581 6.72095 47.7311 6.89456 47.7311 7.10676V21.7561C47.7311 21.9683 47.5581 22.1419 47.3467 22.1419H44.4289C44.2174 22.1419 44.0444 21.9683 44.0444 21.7561Z" fill="#23224A"/>
<path d="M49.6226 19.3413V15.4678C49.6226 15.2594 49.7879 15.0897 49.9955 15.0819L56.8461 14.8852C57.0537 14.8775 57.219 14.7077 57.219 14.4994V13.2763C57.219 13.0641 57.046 12.8905 56.8346 12.8905H50.4453C50.2339 12.8905 50.0609 12.7169 50.0609 12.5047V10.1937C50.0609 9.98148 50.2339 9.80786 50.4453 9.80786H58.1109C58.2147 9.80786 58.3108 9.8503 58.3838 9.91975L60.7942 12.3388C60.8672 12.4121 60.9057 12.5086 60.9057 12.6127V21.7604C60.9057 21.9726 60.7327 22.1462 60.5213 22.1462H52.4174C52.3136 22.1462 52.2175 22.1038 52.1445 22.0343L49.7341 19.6153C49.661 19.5419 49.6226 19.4455 49.6226 19.3413ZM53.3093 17.4663V18.805C53.3093 19.0172 53.4823 19.1909 53.6937 19.1909H56.8307C57.0421 19.1909 57.2151 19.0172 57.2151 18.805V17.1113C57.2151 16.8798 57.0152 16.7024 56.7884 16.7294L53.6515 17.0843C53.4554 17.1075 53.3093 17.2695 53.3093 17.4663Z" fill="#23224A"/>
<path d="M62.8358 24.843V22.532C62.8358 22.3198 63.0088 22.1462 63.2202 22.1462H68.0256C68.1986 22.1462 68.3524 22.0266 68.3985 21.8568L68.6561 20.8653C68.7215 20.6222 68.5369 20.383 68.2832 20.383H65.2769C65.104 20.383 64.9502 20.2673 64.9079 20.0975L62.2438 10.294C62.1784 10.0471 62.363 9.80786 62.6128 9.80786H65.5845C65.7613 9.80786 65.9151 9.93132 65.9574 10.1011L67.6604 17.1345C67.7027 17.3081 67.8565 17.4277 68.0333 17.4277H69.1366C69.3135 17.4277 69.4711 17.3042 69.5095 17.1306L71.1472 10.1049C71.1895 9.93132 71.3433 9.80786 71.5201 9.80786H74.4687C74.7224 9.80786 74.9031 10.0471 74.8416 10.2901L71.005 24.9395C70.9589 25.1092 70.8089 25.2288 70.6321 25.2288H63.2125C63.0011 25.2288 62.8281 25.0552 62.8281 24.843H62.8358Z" fill="#23224A"/>
<path d="M75.8331 21.7561V19.5338C75.8331 19.4528 75.8562 19.3756 75.9023 19.31L82.1455 10.4131C82.3262 10.1585 82.1455 9.80355 81.8302 9.80355H76.2829C76.0714 9.80355 75.8985 9.62994 75.8985 9.41774V7.10285C75.8985 6.89066 76.0714 6.71704 76.2829 6.71704H86.3358C86.5472 6.71704 86.7202 6.89066 86.7202 7.10285V9.32514C86.7202 9.40616 86.6972 9.48333 86.651 9.54892L80.4078 18.4458C80.2272 18.7004 80.4078 19.0554 80.7231 19.0554H86.405C86.6164 19.0554 86.7894 19.229 86.7894 19.4412V21.7522C86.7894 21.9644 86.6164 22.138 86.405 22.138H76.2175C76.0061 22.138 75.8331 21.9644 75.8331 21.7522V21.7561Z" fill="#3390FF"/>
<path d="M88.3692 19.4725V12.4777C88.3692 12.3735 88.4115 12.2771 88.4807 12.2038L90.7566 9.91975C90.8296 9.84644 90.9257 9.80786 91.0295 9.80786H99.1795C99.3909 9.80786 99.5639 9.98148 99.5639 10.1937V16.3821C99.5639 16.5943 99.3909 16.7679 99.1795 16.7679H92.4404C92.2289 16.7679 92.0559 16.9416 92.0559 17.1538V18.6739C92.0559 18.8861 92.2289 19.0597 92.4404 19.0597H98.7412C98.9527 19.0597 99.1256 19.2333 99.1256 19.4455V21.7565C99.1256 21.9687 98.9527 22.1423 98.7412 22.1423H91.0295C90.9257 22.1423 90.8296 22.0999 90.7566 22.0304L88.4807 19.7464C88.4077 19.6731 88.3692 19.5767 88.3692 19.4725ZM92.4596 14.943L96.0809 14.7617C96.2847 14.7501 96.4462 14.5804 96.4462 14.3759V13.014C96.4462 12.8018 96.2732 12.6282 96.0617 12.6282H92.4404C92.2289 12.6282 92.0559 12.8018 92.0559 13.014V14.5572C92.0559 14.7771 92.2405 14.9546 92.4596 14.943Z" fill="#3390FF"/>
<path d="M101.498 21.7565V10.1898C101.498 9.97757 101.671 9.80396 101.883 9.80396H110.209C110.313 9.80396 110.409 9.84639 110.482 9.91584L112.893 12.3349C112.966 12.4082 113.004 12.5047 113.004 12.6088V21.7565C113.004 21.9687 112.831 22.1423 112.62 22.1423H109.702C109.49 22.1423 109.317 21.9687 109.317 21.7565V13.4075C109.317 13.1953 109.144 13.0216 108.933 13.0216H105.573C105.362 13.0216 105.189 13.1953 105.189 13.4075V21.7565C105.189 21.9687 105.016 22.1423 104.804 22.1423H101.886C101.675 22.1423 101.502 21.9687 101.502 21.7565H101.498Z" fill="#3390FF"/>
<path d="M19.829 22.8055H17.9953C16.7574 22.1033 15.3312 21.702 13.8088 21.702C12.2865 21.702 10.8602 22.1033 9.62619 22.8055H7.81167C1.14561 22.8055 -3.59828 14.3754 3.60213 7.57738C3.90583 7.29188 4.30564 7.12598 4.72467 7.12598H22.916C23.3312 7.12598 23.7348 7.29188 24.0385 7.57738C31.2428 14.3754 26.4989 22.8055 19.829 22.8055Z" fill="#3390FF"/>
<path d="M23.1851 14.9694C23.1851 17.0605 21.4974 18.7581 19.41 18.7581C17.3225 18.7581 15.6349 17.0644 15.6349 14.9694C15.6349 12.8744 17.3225 11.1846 19.41 11.1846C21.4974 11.1846 23.1851 12.8783 23.1851 14.9694Z" fill="white"/>
<path d="M19.4101 17.7738C17.8686 17.7738 16.6153 16.516 16.6153 14.9689C16.6153 13.4218 17.8686 12.1641 19.4101 12.1641C20.9517 12.1641 22.205 13.4218 22.205 14.9689C22.205 16.516 20.9517 17.7738 19.4101 17.7738Z" fill="#23224A"/>
<path d="M21.2399 14.9463C20.5287 14.9463 19.952 14.3676 19.952 13.6538C19.952 12.94 20.5287 12.3613 21.2399 12.3613C21.9511 12.3613 22.5277 12.94 22.5277 13.6538C22.5277 14.3676 21.9511 14.9463 21.2399 14.9463Z" fill="white"/>
<path d="M12.3364 14.9694C12.3364 17.0605 10.6488 18.7581 8.56132 18.7581C6.47385 18.7581 4.78619 17.0644 4.78619 14.9694C4.78619 12.8744 6.47385 11.1846 8.56132 11.1846C10.6488 11.1846 12.3364 12.8783 12.3364 14.9694Z" fill="white"/>
<path d="M8.56148 17.7738C7.01991 17.7738 5.76666 16.516 5.76666 14.9689C5.76666 13.4218 7.01991 12.1641 8.56148 12.1641C10.1031 12.1641 11.3563 13.4218 11.3563 14.9689C11.3563 16.516 10.1031 17.7738 8.56148 17.7738Z" fill="#23224A"/>
<path d="M10.3912 14.9463C9.68001 14.9463 9.10336 14.3676 9.10336 13.6538C9.10336 12.94 9.68001 12.3613 10.3912 12.3613C11.1024 12.3613 11.6791 12.94 11.6791 13.6538C11.6791 14.3676 11.1024 14.9463 10.3912 14.9463Z" fill="white"/>
<path d="M13.8203 20.5981C12.9131 20.5981 12.1557 19.9345 12.002 19.0664H15.6387C15.4888 19.9345 14.7314 20.5981 13.8203 20.5981Z" fill="#23224A"/>
</g>
<path d="M115.018 22.1252C114.7 22.1252 114.427 22.0128 114.199 21.788C113.975 21.56 113.862 21.2871 113.862 20.9691C113.862 20.6544 113.975 20.3846 114.199 20.1598C114.427 19.935 114.7 19.8226 115.018 19.8226C115.327 19.8226 115.596 19.935 115.828 20.1598C116.059 20.3846 116.175 20.6544 116.175 20.9691C116.175 21.1811 116.12 21.3754 116.011 21.552C115.905 21.7254 115.765 21.8651 115.592 21.9711C115.418 22.0739 115.227 22.1252 115.018 22.1252ZM117.859 22V14.6008H119.911V22H117.859ZM118.89 13.647C118.585 13.647 118.323 13.5458 118.105 13.3435C117.89 13.138 117.782 12.8923 117.782 12.6065C117.782 12.3239 117.89 12.0814 118.105 11.8791C118.323 11.6735 118.585 11.5708 118.89 11.5708C119.195 11.5708 119.455 11.6735 119.671 11.8791C119.889 12.0814 119.998 12.3239 119.998 12.6065C119.998 12.8923 119.889 13.138 119.671 13.3435C119.455 13.5458 119.195 13.647 118.89 13.647ZM124.898 22.1445C124.15 22.1445 123.503 21.9855 122.957 21.6676C122.414 21.3465 121.995 20.9001 121.7 20.3284C121.404 19.7536 121.257 19.0872 121.257 18.3293C121.257 17.565 121.404 16.897 121.7 16.3253C121.995 15.7505 122.414 15.3041 122.957 14.9862C123.503 14.665 124.15 14.5044 124.898 14.5044C125.647 14.5044 126.292 14.665 126.835 14.9862C127.381 15.3041 127.802 15.7505 128.097 16.3253C128.393 16.897 128.54 17.565 128.54 18.3293C128.54 19.0872 128.393 19.7536 128.097 20.3284C127.802 20.9001 127.381 21.3465 126.835 21.6676C126.292 21.9855 125.647 22.1445 124.898 22.1445ZM124.908 20.5548C125.249 20.5548 125.533 20.4585 125.761 20.2658C125.989 20.0699 126.161 19.8034 126.276 19.4662C126.395 19.129 126.454 18.7452 126.454 18.3148C126.454 17.8845 126.395 17.5007 126.276 17.1635C126.161 16.8263 125.989 16.5598 125.761 16.3639C125.533 16.168 125.249 16.07 124.908 16.07C124.564 16.07 124.275 16.168 124.041 16.3639C123.81 16.5598 123.635 16.8263 123.516 17.1635C123.4 17.5007 123.343 17.8845 123.343 18.3148C123.343 18.7452 123.4 19.129 123.516 19.4662C123.635 19.8034 123.81 20.0699 124.041 20.2658C124.275 20.4585 124.564 20.5548 124.908 20.5548Z" fill="black" fill-opacity="0.54"/>
<defs>
<clipPath id="clip0_13_256">
<rect width="113" height="26" fill="white"/>
</clipPath>
</defs>
</svg>
