<?xml version="1.0" encoding="UTF-8"?>
<svg version="1.1" xmlns="http://www.w3.org/2000/svg" width="882" height="164">
<path d="M0 0 C291.06 0 582.12 0 882 0 C882 54.12 882 108.24 882 164 C590.94 164 299.88 164 0 164 C0 109.88 0 55.76 0 0 Z " fill="transparent" transform="translate(0,0)"/>
<path d="M0 0 C0.99 0.33 1.98 0.66 3 1 C1.68 2.32 0.36 3.64 -1 5 C6.72944891 7.57648297 16.02834778 5.98763833 24 5 C28.18411262 11.06313969 31.36591088 15.98329845 31.375 23.5 C31.48632266 30.59896049 34.66616846 34.45391137 39.06640625 39.63671875 C41 42 41 42 41 44 C41.99 44 42.98 44 44 44 C44.33 43.01 44.66 42.02 45 41 C45.350625 41.94875 45.70125 42.8975 46.0625 43.875 C47.7714341 47.34336062 47.7714341 47.34336062 51.6875 48.375 C52.780625 48.58125 53.87375 48.7875 55 49 C54.125 54.75 54.125 54.75 53 57 C52.08676984 70.51880055 53.24697215 81.16884957 62.05078125 92.03515625 C64.04818748 94.04857375 66.0112871 95.30286063 68.4375 96.75 C70.46484375 98.1171875 70.46484375 98.1171875 72 100 C72.68197847 104.40907013 72.4725941 108.57599409 72 113 C50.51125187 113.61854606 32.49712836 110.40853959 15 97 C-0.07721789 82.68589283 -10.51936541 65.44491267 -12.3046875 44.41015625 C-12.55169226 32.21086555 -11.35591003 20.06111854 -6 9 C-5.64421875 8.22398438 -5.2884375 7.44796875 -4.921875 6.6484375 C-2.32407407 1.16203704 -2.32407407 1.16203704 0 0 Z " fill="#EEF4FA" transform="translate(22,44)"/>
<path d="M0 0 C9.20757374 4.83932945 15.35025516 11.87644016 18.59375 21.8203125 C20.1430046 30.13265931 19.65358999 38.38835418 16 46 C16.55558594 46.23203125 17.11117187 46.4640625 17.68359375 46.703125 C20.61378627 48.3436375 22.68364989 50.38191392 25.0625 52.75 C25.91972656 53.59046875 26.77695313 54.4309375 27.66015625 55.296875 C30.94386866 59.09041254 32.7520395 62.48468581 33.5625 67.4375 C32.79536522 72.29602029 30.97720448 75.09639673 27 78 C23.90964223 79.12927512 21.24700839 79.57904983 18 79 C13.76659654 76.66257269 10.84200383 73.8653186 7.71435547 70.27832031 C3.36921833 65.08874263 3.36921833 65.08874263 -2.6484375 62.6640625 C-5.18918067 63.2651847 -7.54659428 64.11251401 -10 65 C-18.65659829 65.99048852 -26.97947395 64.37478685 -34.1875 59.375 C-40.5104008 54.20404469 -46.57623302 47.24020892 -48 39 C-48.8836317 29.01198328 -49.06032064 20.4566209 -43 12 C-42.5153125 11.28457031 -42.030625 10.56914063 -41.53125 9.83203125 C-31.43244108 -3.36077551 -14.77073684 -5.7573529 0 0 Z " fill="#EBF0F7" transform="translate(127,79)"/>
<path d="M0 0 C2.47067185 1.07359365 3.93896286 2.21748139 6 4 C6.33 2.68 6.66 1.36 7 0 C11.29 0 15.58 0 20 0 C20.09901273 7.01086321 20.17153827 14.02131773 20.21972656 21.03271484 C20.23981893 23.41690157 20.26709781 25.80103915 20.30175781 28.18505859 C20.35037859 31.61568338 20.37299312 35.04565555 20.390625 38.4765625 C20.41127014 39.53928375 20.43191528 40.602005 20.45318604 41.69692993 C20.45502921 47.80120178 20.12164317 51.38059631 16 56 C8.06461982 62.11685555 -0.38922897 61.67694915 -10 61 C-14.69034146 59.80696256 -17.68921041 57.80240463 -20.5 53.875 C-22 51 -22 51 -22 49 C-19.56045342 47.78022671 -17.84694151 47.79846187 -15.125 47.75 C-14.26132812 47.72421875 -13.39765625 47.6984375 -12.5078125 47.671875 C-9.5138116 48.06361344 -8.35923476 49.18953357 -6 51 C-3.74863897 51.4692926 -3.74863897 51.4692926 -1.4375 51.375 C-0.67308594 51.38273437 0.09132813 51.39046875 0.87890625 51.3984375 C3.56141648 50.89454055 4.44326121 50.23165403 6 48 C6.36146457 45.71669899 6.36146457 45.71669899 6.1875 43.3125 C6.16042969 42.50425781 6.13335938 41.69601563 6.10546875 40.86328125 C6.05326172 39.94095703 6.05326172 39.94095703 6 39 C5.38125 39.639375 4.7625 40.27875 4.125 40.9375 C-0.17175845 43.77336058 -3.8901481 44.3266572 -9 44 C-14.3762703 42.43766504 -17.93490984 39.71552333 -21 35 C-21.35449219 34.46890625 -21.70898438 33.9378125 -22.07421875 33.390625 C-24.6335357 26.78175591 -24.28597736 16.83667624 -22.0546875 10.1796875 C-16.7261162 1.36576139 -9.90296803 -1.07247333 0 0 Z " fill="#F6F6F7" transform="translate(694,69)"/>
<path d="M0 0 C3.0625 -0.5 3.0625 -0.5 7 0 C11.08179022 3.25188266 13.82727047 7.33299433 15.9375 12.0625 C18.07517957 16.74680654 21.59793318 20.33345028 26 23 C29.27773504 22.24849977 29.27773504 22.24849977 31 19 C33.609621 18.61588725 36.0058074 18.39706803 38.625 18.3125 C39.68460938 18.26125977 39.68460938 18.26125977 40.765625 18.20898438 C42.50985688 18.12648692 44.25490395 18.06156665 46 18 C46.941637 19.68519502 47.8780901 21.37328697 48.8125 23.0625 C49.33457031 24.00222656 49.85664063 24.94195312 50.39453125 25.91015625 C59.19936191 42.85570626 60.17075134 62.19195156 55.16796875 80.44140625 C54.05326497 83.83771107 52.69055105 86.85625321 51 90 C50.67 90 50.34 90 50 90 C49.93683594 89.07960938 49.87367188 88.15921875 49.80859375 87.2109375 C48.70488114 75.80203455 46.01603787 64.68520551 36.8125 56.9375 C35.24391676 55.90228761 33.6371371 54.92298438 32 54 C31.15050781 53.49726562 30.30101562 52.99453125 29.42578125 52.4765625 C23.0356466 49.25030205 17.16885259 48.54791277 10.125 48.5 C9.31627441 48.49363525 8.50754883 48.48727051 7.67431641 48.48071289 C2.66495866 48.58825666 -0.54114801 49.54558606 -5 52 C-5.66 51.67 -6.32 51.34 -7 51 C-2.13879881 43.29739248 3.35198124 38.9816815 12 36 C14.89113044 35.58824635 17.07711366 35.66274388 20 36 C18.70410663 30.4276585 16.33969231 28.54260597 12 25 C11.525625 23.948125 11.05125 22.89625 10.5625 21.8125 C9.22208945 18.69694256 9.22208945 18.69694256 5.8125 17.75 C4.554375 17.5025 3.29625 17.255 2 17 C0.51899252 16.6323373 -0.96023253 16.25741321 -2.4375 15.875 C-3.613125 15.58625 -4.78875 15.2975 -6 15 C-5.979375 15.969375 -5.95875 16.93875 -5.9375 17.9375 C-6 21 -6 21 -7 22 C-10.5 22.125 -10.5 22.125 -14 22 C-15 21 -15 21 -15.0625 18.4375 C-15.041875 17.633125 -15.02125 16.82875 -15 16 C-13.02 15.67 -11.04 15.34 -9 15 C-8.67 12.03 -8.34 9.06 -8 6 C-5.0625 6.75 -5.0625 6.75 -2 8 C-1.30859375 10.078125 -1.30859375 10.078125 -1 12 C0.2909136 12.33623796 1.58276097 12.66889249 2.875 13 C3.59429687 13.185625 4.31359375 13.37125 5.0546875 13.5625 C6.99289317 14.07313965 6.99289317 14.07313965 9 14 C6.90935161 10.67044886 5.08060933 8.0787773 2.25 5.3125 C0 3 0 3 0 0 Z " fill="#EAF0F6" transform="translate(101,24)"/>
<path d="M0 0 C12 0 12 0 14.859375 2.203125 C15.79523437 3.71132813 15.79523437 3.71132813 16.75 5.25 C17.46414063 6.34699219 18.17828125 7.44398437 18.9140625 8.57421875 C19.25985352 9.14446777 19.60564453 9.7147168 19.96191406 10.30224609 C21.58414437 12.95534807 23.36941218 15.49638217 25.125 18.0625 C28.82511025 23.66200018 32.39558008 29.33591155 36 35 C36.33 23.45 36.66 11.9 37 0 C41.29 0 45.58 0 50 0 C50 19.14 50 38.28 50 58 C38 58 38 58 35.37695312 56.03979492 C34.85037109 55.13334229 34.32378906 54.22688965 33.78125 53.29296875 C33.15863281 52.2879834 32.53601563 51.28299805 31.89453125 50.24755859 C31.26933594 49.17586426 30.64414062 48.10416992 30 47 C28.58413272 44.88437761 27.15689885 42.77632074 25.71875 40.67578125 C24.30966721 38.55656832 22.90391718 36.43513852 21.5 34.3125 C19.025 30.579375 16.55 26.84625 14 23 C13.67 34.55 13.34 46.1 13 58 C8.71 58 4.42 58 0 58 C0 38.86 0 19.72 0 0 Z " fill="#F6F6F7" transform="translate(500,55)"/>
<path d="M0 0 C12 0 12 0 15.15625 2.8671875 C15.98044802 4.17706467 16.76009026 5.51573029 17.5 6.875 C18.39127845 8.33112638 19.2832333 9.78683892 20.17578125 11.2421875 C20.85374756 12.39799316 20.85374756 12.39799316 21.54541016 13.57714844 C23.54890976 16.91429682 25.71852701 20.12885157 27.89916992 23.35205078 C30.2868516 26.88744949 32.63997484 30.44607976 35 34 C35.33 22.78 35.66 11.56 36 0 C40.29 0 44.58 0 49 0 C49 19.14 49 38.28 49 58 C37 58 37 58 34.38769531 56.17089844 C33.87303711 55.3255957 33.35837891 54.48029297 32.828125 53.609375 C32.22613281 52.6709375 31.62414062 51.7325 31.00390625 50.765625 C30.13572266 49.27289063 30.13572266 49.27289063 29.25 47.75 C28.65574219 46.80125 28.06148437 45.8525 27.44921875 44.875 C25.60791641 41.93209778 23.80424049 38.96576871 22 36 C19.36 32.04 16.72 28.08 14 24 C13.67 35.22 13.34 46.44 13 58 C8.71 58 4.42 58 0 58 C0 38.86 0 19.72 0 0 Z " fill="#F8F8F8" transform="translate(225,55)"/>
<path d="M0 0 C5.90274732 3.53965422 9.30941933 8.42940719 11.1875 15.01171875 C12.09849511 21.78724485 12.09845234 28.30048487 8.5234375 34.296875 C4.89726056 38.95152903 0.8198083 42.17871901 -4.8125 44.01171875 C-12.16916404 44.88437131 -18.76422471 44.56902385 -24.8125 40.01171875 C-26.85317225 38.10994042 -28.18117755 36.34217939 -29.8125 34.01171875 C-30.410625 33.16609375 -31.00875 32.32046875 -31.625 31.44921875 C-34.13471253 24.18426142 -33.93431442 16.53192348 -30.75 9.51171875 C-24.56869866 -1.31876651 -11.37957483 -3.99865615 0 0 Z " fill="#F6F6F7" transform="translate(830.8125,69.98828125)"/>
<path d="M0 0 C5.81153415 2.6668608 10.1635087 7.3186251 12.48046875 13.3125 C13.28476712 20.8218627 14.07384983 28.99775497 9.91796875 35.625 C6.92157652 39.30465507 3.76378454 41.33558502 -0.51953125 43.3125 C-1.50953125 43.8075 -1.50953125 43.8075 -2.51953125 44.3125 C-10.20840069 44.97683575 -17.17682531 45.13232852 -23.51953125 40.3125 C-28.86327279 34.82433301 -31.08883326 29.04452064 -31.01953125 21.4375 C-31.01526123 20.73077148 -31.01099121 20.02404297 -31.0065918 19.29589844 C-30.8149284 13.42544486 -29.59572763 9.52234216 -25.51953125 5.3125 C-18.22488842 -1.44838848 -9.64454708 -2.63169037 0 0 Z " fill="#F7F7F7" transform="translate(411.51953125,69.6875)"/>
<path d="M0 0 C5.06237368 2.99096265 9.18511006 7.63345517 11.04296875 13.20703125 C11.78345347 20.61187845 11.17018204 26.88882818 7.04296875 33.20703125 C3.21140443 37.5121597 -1.72133467 40.7483889 -7.46484375 41.5625 C-14.46237237 41.92309688 -19.39820564 40.49079424 -24.95703125 36.20703125 C-28.9132963 32.42488056 -31.68684471 28.51641511 -32.328125 23.03515625 C-32.46980314 15.40120445 -32.25401669 9.97096857 -26.95703125 4.20703125 C-18.91621226 -3.62218724 -9.78339785 -4.76540722 0 0 Z " fill="#181D24" transform="translate(122.95703125,90.79296875)"/>
<path d="M0 0 C3.79528907 2.45176912 6.38298704 4.52153466 8.01953125 8.796875 C8.18764228 11.44399101 8.25258721 13.98119034 8.21484375 16.625 C8.21201385 17.37400574 8.20918396 18.12301147 8.20626831 18.89471436 C8.19510385 21.27893276 8.17000656 23.66277079 8.14453125 26.046875 C8.1344966 27.66666123 8.1253716 29.28645336 8.1171875 30.90625 C8.0951768 34.86993746 8.060673 38.83334181 8.01953125 42.796875 C3.72953125 42.796875 -0.56046875 42.796875 -4.98046875 42.796875 C-4.98046875 41.806875 -4.98046875 40.816875 -4.98046875 39.796875 C-6.09421875 40.456875 -7.20796875 41.116875 -8.35546875 41.796875 C-13.22391746 44.21383535 -17.62584527 44.69379686 -22.98046875 43.796875 C-27.00228793 41.74940342 -29.57790245 39.58895971 -31.98046875 35.796875 C-32.98576756 30.720116 -32.58259615 26.83178146 -29.98046875 22.359375 C-23.06894255 16.45577971 -14.71822218 15.92905342 -5.98046875 14.796875 C-5.98046875 13.146875 -5.98046875 11.496875 -5.98046875 9.796875 C-9.07220627 8.25100624 -11.57476427 8.50327979 -14.98046875 8.796875 C-15.64046875 9.456875 -16.30046875 10.116875 -16.98046875 10.796875 C-18.98046875 12.796875 -18.98046875 12.796875 -22.48046875 13.109375 C-25.13703598 12.8721815 -27.45435509 12.60523137 -29.98046875 11.796875 C-29.78192943 7.52827963 -29.28516618 6.09480137 -26.16796875 3.046875 C-18.64524637 -2.26328198 -8.71622655 -3.51847677 0 0 Z " fill="#F5F5F6" transform="translate(752.98046875,70.203125)"/>
<path d="M0 0 C4.23350789 2.61216445 7.33950561 5.01851684 8.9375 9.8125 C9.0221817 12.32618055 9.05351885 14.81119374 9.03515625 17.32421875 C9.0337413 18.05244339 9.03232635 18.78066803 9.03086853 19.53096008 C9.02527659 21.85401539 9.01272562 24.17697388 9 26.5 C8.99498396 28.07617048 8.99042123 29.65234248 8.98632812 31.22851562 C8.9753098 35.08988098 8.95805074 38.95117408 8.9375 42.8125 C4.6475 42.8125 0.3575 42.8125 -4.0625 42.8125 C-4.3925 41.8225 -4.7225 40.8325 -5.0625 39.8125 C-5.660625 40.286875 -6.25875 40.76125 -6.875 41.25 C-11.48800292 44.54500208 -16.60290617 44.4247909 -22.0625 43.8125 C-26.46858743 41.64951163 -29.2612497 39.41569521 -31.0625 34.8125 C-31.69376031 31.32303329 -31.84055367 28.28595389 -31.0625 24.8125 C-27.06437454 19.1944444 -21.18973663 17.38950721 -14.6328125 16.1796875 C-12.92738281 15.93605469 -12.92738281 15.93605469 -11.1875 15.6875 C-10.03507813 15.51992187 -8.88265625 15.35234375 -7.6953125 15.1796875 C-6.82648437 15.05851562 -5.95765625 14.93734375 -5.0625 14.8125 C-5.44154208 11.52174004 -5.44154208 11.52174004 -7.0625 8.8125 C-10.43650578 8.39524322 -10.43650578 8.39524322 -14.0625 8.8125 C-14.7225 9.4725 -15.3825 10.1325 -16.0625 10.8125 C-18.0625 12.8125 -18.0625 12.8125 -21.5 13.125 C-24.44090097 12.86702623 -27.1974929 12.50704718 -30.0625 11.8125 C-28.81034899 5.96912862 -25.84350896 3.08147494 -21.0625 -0.1875 C-14.82861181 -2.26546273 -6.18950775 -2.42914162 0 0 Z " fill="#F5F6F6" transform="translate(588.0625,70.1875)"/>
<path d="M0 0 C4.23981993 1.96791642 6.7867541 4.3274551 9.3828125 8.2734375 C9.72568461 11.12794 9.85270743 13.577495 9.7734375 16.41796875 C9.76777771 17.18775558 9.76211792 17.95754242 9.75628662 18.75065613 C9.73399122 21.19639693 9.68381125 23.6406436 9.6328125 26.0859375 C9.6127385 27.74932772 9.5944893 29.41274103 9.578125 31.07617188 C9.53414934 35.14249808 9.46517229 39.20771494 9.3828125 43.2734375 C5.4228125 43.2734375 1.4628125 43.2734375 -2.6171875 43.2734375 C-2.9471875 41.9534375 -3.2771875 40.6334375 -3.6171875 39.2734375 C-4.0296875 39.7271875 -4.4421875 40.1809375 -4.8671875 40.6484375 C-8.91747028 44.40941437 -12.7302342 44.71214141 -18.078125 44.5859375 C-22.20641532 44.07784023 -24.31316077 42.83574395 -27.6171875 40.2734375 C-30.5913508 35.95610368 -31.2658424 32.46267674 -30.6171875 27.2734375 C-28.29037158 22.79216239 -26.1074924 20.48841317 -21.6171875 18.2734375 C-18.70691068 17.51856555 -15.77476263 17.04153159 -12.8046875 16.5859375 C-12.01642578 16.45638672 -11.22816406 16.32683594 -10.41601562 16.19335938 C-8.48458937 15.87730781 -6.55107305 15.57407461 -4.6171875 15.2734375 C-4.6171875 13.6234375 -4.6171875 11.9734375 -4.6171875 10.2734375 C-7.700451 8.73180575 -10.22596849 8.97596215 -13.6171875 9.2734375 C-14.0915625 9.9334375 -14.5659375 10.5934375 -15.0546875 11.2734375 C-15.5703125 11.9334375 -16.0859375 12.5934375 -16.6171875 13.2734375 C-20.83641513 13.60829684 -24.5685074 13.62299753 -28.6171875 12.2734375 C-28.20036877 7.4105523 -26.24734605 5.40857443 -22.6171875 2.2734375 C-16.31307836 -2.34068118 -7.35921841 -2.0430069 0 0 Z " fill="#F6F6F6" transform="translate(311.6171875,69.7265625)"/>
<path d="M0 0 C3.96 0 7.92 0 12 0 C12.33 1.65 12.66 3.3 13 5 C13.7425 4.175 14.485 3.35 15.25 2.5 C19.21253002 -0.81154294 23.16335198 -0.64215636 28.15234375 -0.42578125 C33.0064812 0.30000885 35.65500182 2.46948483 38.8125 6.0625 C41.293102 10.10979801 41.1311229 13.93161958 41.09765625 18.51171875 C41.0962413 19.23994339 41.09482635 19.96816803 41.09336853 20.71846008 C41.08777659 23.04151539 41.07522562 25.36447388 41.0625 27.6875 C41.05748396 29.26367048 41.05292123 30.83984248 41.04882812 32.41601562 C41.0378098 36.27738098 41.02055074 40.13867408 41 44 C36.71 44 32.42 44 28 44 C27.97421875 41.86917969 27.9484375 39.73835938 27.921875 37.54296875 C27.8834537 35.47764922 27.83829436 33.41257931 27.79248047 31.34741211 C27.76426818 29.91296317 27.74305476 28.47835871 27.72900391 27.04370117 C27.70757551 24.98014698 27.66093533 22.91846294 27.609375 20.85546875 C27.58842773 19.61434326 27.56748047 18.37321777 27.54589844 17.09448242 C27.28769403 13.94056101 27.28769403 13.94056101 25.15332031 12.0949707 C22.23577228 10.6113876 20.22832067 10.58787396 17 11 C15.21498311 12.04033927 15.21498311 12.04033927 14 14 C13.491851 17.19477975 13.491851 17.19477975 13.48828125 20.85546875 C13.47033005 21.51710526 13.45237885 22.17874176 13.43388367 22.86042786 C13.37979102 24.96938747 13.34589069 27.07812099 13.3125 29.1875 C13.27932573 30.61917208 13.24483595 32.05081433 13.20898438 33.48242188 C13.12159113 36.98831349 13.06152321 40.49317716 13 44 C8.71 44 4.42 44 0 44 C0 29.48 0 14.96 0 0 Z " fill="#F6F6F6" transform="translate(432,69)"/>
<path d="M0 0 C4.62 0 9.24 0 14 0 C14.95891198 3.18732694 15.91714714 6.37485477 16.875 9.5625 C17.14441406 10.45775391 17.41382813 11.35300781 17.69140625 12.27539062 C19.16282697 17.17414499 20.60908108 22.07776752 22 27 C24.30305448 21.12721107 26.21455753 15.18785333 28.03515625 9.1484375 C28.97441043 6.08350282 29.98629279 3.04112162 31 0 C35.62 0 40.24 0 45 0 C44.56558594 1.29035156 44.13117187 2.58070312 43.68359375 3.91015625 C42.34021813 7.9387073 41.06134323 11.98369987 39.80566406 16.0402832 C37.72213443 22.76110366 35.62998357 29.41762612 32.859375 35.89453125 C31.77669553 38.54709595 30.90599638 41.28201087 30 44 C25.05 44 20.1 44 15 44 C11.97472964 36.3527888 9.2569218 28.74805565 6.90234375 20.87109375 C5.8234487 17.43824587 4.4786445 14.27873346 3 11 C0 3.63761468 0 3.63761468 0 0 Z " fill="#F3F3F4" transform="translate(600,69)"/>
<path d="M0 0 C0 0.33 0 0.66 0 1 C-0.70125 0.91878906 -1.4025 0.83757813 -2.125 0.75390625 C-7.86836817 0.18138239 -7.86836817 0.18138239 -12.84375 2.5234375 C-13.3903125 3.15507812 -13.936875 3.78671875 -14.5 4.4375 C-18.1303203 8.26653257 -21.16116631 8.42218307 -26.1875 8.60571289 C-27.92059224 8.61844673 -29.65412685 8.60384758 -31.38671875 8.56030273 C-33.67767821 8.54040323 -35.75611018 8.53028062 -38 9 C-39.66729484 11.45754001 -39.66729484 11.45754001 -41 14 C-44.1796875 14.5234375 -44.1796875 14.5234375 -47.875 14.375 C-49.08929688 14.34148438 -50.30359375 14.30796875 -51.5546875 14.2734375 C-55 14 -55 14 -57.6328125 13.2890625 C-60.90847281 12.88906438 -62.22173568 14.29627026 -65 16 C-68.59375 16.66015625 -68.59375 16.66015625 -72.5 17.0625 C-77.76253722 17.59266936 -77.76253722 17.59266936 -82.78125 19.12109375 C-85 20 -85 20 -88 19 C-77.59537755 4.5078473 -59.39094659 -3.84018894 -42.17773438 -6.70263672 C-27.39006469 -8.72184991 -13.58053794 -6.0920408 0 0 Z " fill="#E6ECF2" transform="translate(116,15)"/>
<path d="M0 0 C4.29 0 8.58 0 13 0 C13 3.3 13 6.6 13 10 C15.64 10 18.28 10 21 10 C21 13.3 21 16.6 21 20 C18.36 20 15.72 20 13 20 C13.33 27.92 13.66 35.84 14 44 C15.98 44.33 17.96 44.66 20 45 C21.4783226 47.95664519 21.06032783 50.74229737 21 54 C17.28224461 55.8588777 13.05696168 55.4426879 9 55 C5.64083735 53.81909218 2.86214347 52.28157429 0.82470703 49.25292969 C-0.25354505 46.30736717 -0.2248856 43.83787394 -0.1953125 40.703125 C-0.18564453 38.89521484 -0.18564453 38.89521484 -0.17578125 37.05078125 C-0.15902344 35.79652344 -0.14226562 34.54226562 -0.125 33.25 C-0.11597656 31.98027344 -0.10695313 30.71054688 -0.09765625 29.40234375 C-0.07409005 26.26803907 -0.04118832 23.13411459 0 20 C-1.98 20 -3.96 20 -6 20 C-6 16.7 -6 13.4 -6 10 C-4.02 10 -2.04 10 0 10 C0 6.7 0 3.4 0 0 Z " fill="#F4F4F5" transform="translate(333,59)"/>
<path d="M0 0 C4.29 0 8.58 0 13 0 C13 3.3 13 6.6 13 10 C15.64 10 18.28 10 21 10 C21 13.3 21 16.6 21 20 C18.36 20 15.72 20 13 20 C13.33 27.59 13.66 35.18 14 43 C15.98 43.66 17.96 44.32 20 45 C21.0234375 47.1640625 21.0234375 47.1640625 21.375 49.625 C21.50648438 50.44226563 21.63796875 51.25953125 21.7734375 52.1015625 C21.84820313 52.72804687 21.92296875 53.35453125 22 54 C16.7935264 55.7354912 11.85065911 55.66344383 6.6875 53.8125 C3.67725922 51.78233761 2.01346941 50.02205765 0 47 C-0.45410156 43.95385742 -0.45410156 43.95385742 -0.390625 40.60546875 C-0.37773438 39.40341797 -0.36484375 38.20136719 -0.3515625 36.96289062 C-0.31804688 35.71701172 -0.28453125 34.47113281 -0.25 33.1875 C-0.23195313 31.92228516 -0.21390625 30.65707031 -0.1953125 29.35351562 C-0.14823916 26.23490665 -0.08249094 23.11784027 0 20 C-1.98 20 -3.96 20 -6 20 C-6 16.7 -6 13.4 -6 10 C-4.02 10 -2.04 10 0 10 C0 6.7 0 3.4 0 0 Z " fill="#F5F6F6" transform="translate(772,59)"/>
<path d="M0 0 C3.96 0 7.92 0 12 0 C12.33 1.65 12.66 3.3 13 5 C13.639375 4.175 14.27875 3.35 14.9375 2.5 C19.20332021 -0.98230222 21.61221391 -0.40207359 27 0 C27 3.63 27 7.26 27 11 C24.49348958 11.16276042 21.98697917 11.32552083 19.48046875 11.48828125 C16.51743875 12.09955201 15.77424242 12.5739437 14 15 C13.49231957 18.0968286 13.49231957 18.0968286 13.48828125 21.63671875 C13.45283203 22.93544922 13.41738281 24.23417969 13.38085938 25.57226562 C13.3577595 26.94400517 13.3349771 28.3157501 13.3125 29.6875 C13.27932458 31.07099607 13.24483469 32.45446129 13.20898438 33.83789062 C13.1263727 37.22496933 13.06151428 40.61247246 13 44 C8.71 44 4.42 44 0 44 C0 29.48 0 14.96 0 0 Z " fill="#F6F7F7" transform="translate(849,69)"/>
<path d="M0 0 C4.29 0 8.58 0 13 0 C13 14.52 13 29.04 13 44 C8.71 44 4.42 44 0 44 C0 29.48 0 14.96 0 0 Z " fill="#F3F4F4" transform="translate(650,69)"/>
<path d="M0 0 C4.29 0 8.58 0 13 0 C13 14.52 13 29.04 13 44 C8.71 44 4.42 44 0 44 C0 29.48 0 14.96 0 0 Z " fill="#F5F5F5" transform="translate(361,69)"/>
<path d="M0 0 C3.44906906 2.83590123 4.750982 4.43075724 5.453125 8.85546875 C5.67189462 15.14509524 5.31238189 19.30711383 1 24 C-1.80915474 25.40457737 -3.88810534 25.24895157 -7 25 C-9.98373624 23.50813188 -10.83991588 22.34418085 -12.25 19.3125 C-13.53291016 13.64631345 -13.86037267 8.26910756 -11 3 C-7.84022849 -0.84667836 -4.69082532 -1.67529476 0 0 Z " fill="#1D2229" transform="translate(824,79)"/>
<path d="M0 0 C2.81976778 2.74914748 3.90335429 4.43012359 4.56640625 8.33984375 C4.55454789 19.26139414 4.55454789 19.26139414 1.9375 22.875 C-1 25 -1 25 -4.5625 25.6875 C-8 25 -8 25 -10.375 22.6875 C-13.48876602 17.53781005 -13.36535163 12.854994 -13 7 C-12.20933432 3.9032261 -11.42914829 2.47683143 -9.3125 0.125 C-5.82837258 -1.56998091 -3.67147831 -1.0489938 0 0 Z " fill="#1A1F26" transform="translate(407,79)"/>
<path d="M0 0 C2.9375 1.625 2.9375 1.625 5 5 C5.91629159 11.24270203 6.28753584 16.89312317 2.9375 22.375 C-0.82233834 24.45491057 -2.7693895 24.83101278 -7 24 C-10.47433629 21.2648842 -11.73197606 19.72301103 -12.41015625 15.36328125 C-12.58163666 9.89827507 -12.16967464 5.6326014 -9 1 C-5.86128812 -0.56935594 -3.46144178 -0.35201103 0 0 Z " fill="#1B1F26" transform="translate(696,79)"/>
<path d="M0 0 C2.375 1.5625 2.375 1.5625 4 4 C3.9375 7.625 3.9375 7.625 3 11 C-0.49124017 13.32749345 -1.89222251 13.50299316 -6 13 C-8.78506308 11.02113939 -9.81084752 9.84067767 -10.5625 6.5 C-10 4 -10 4 -7.8125 1.6875 C-4.75072428 -0.14956543 -3.4804429 -0.713937 0 0 Z " fill="#EDEEEE" transform="translate(370,51)"/>
<path d="M0 0 C4.23059921 1.37954322 4.23059921 1.37954322 5.875 3.9375 C6.375 6.375 6.375 6.375 5.875 8.9375 C3.8125 11.3125 3.8125 11.3125 0.875 12.9375 C-2.8125 12.875 -2.8125 12.875 -6.125 11.9375 C-8.2860211 8.69596834 -8.76747553 7.70057099 -8.125 3.9375 C-5.41940372 0.91359827 -4.10202376 -0.08204048 0 0 Z " fill="#EFF0F0" transform="translate(658.125,51.0625)"/>
<path d="M0 0 C0.60550459 7.26605505 0.60550459 7.26605505 -2.0625 10.5 C-5.67208369 12.34319167 -7.99449813 12.44505576 -12 12 C-12.99 11.34 -13.98 10.68 -15 10 C-15.4375 7.5625 -15.4375 7.5625 -15 5 C-12.12728802 2.32495169 -9.63920691 1.47383635 -5.8125 0.8125 C-4.49185547 0.57466797 -4.49185547 0.57466797 -3.14453125 0.33203125 C-1 0 -1 0 0 0 Z " fill="#21262C" transform="translate(748,93)"/>
<path d="M0 0 C0.41668469 4.25018379 0.44022082 6.35342568 -2 9.9375 C-6.09923995 12.75572747 -8.10562523 12.64188522 -13 12 C-15 9 -15 9 -14.8125 6.4375 C-14 4 -14 4 -11 2 C-8.80859375 1.3671875 -8.80859375 1.3671875 -6.4375 0.875 C-5.65246094 0.70742187 -4.86742187 0.53984375 -4.05859375 0.3671875 C-2 0 -2 0 0 0 Z " fill="#21262C" transform="translate(584,93)"/>
<path d="M0 0 C2.9375 0.75 2.9375 0.75 6 2 C6.33333333 3.33333333 6.66666667 4.66666667 7 6 C9.99615946 7.3045656 9.99615946 7.3045656 13 8 C12.01 8.495 12.01 8.495 11 9 C10.67 9.66 10.34 10.32 10 11 C7.36 10.34 4.72 9.68 2 9 C2.020625 9.969375 2.04125 10.93875 2.0625 11.9375 C2 15 2 15 1 16 C-2.5 16.125 -2.5 16.125 -6 16 C-7 15 -7 15 -7.0625 12.4375 C-7.041875 11.633125 -7.02125 10.82875 -7 10 C-5.02 9.67 -3.04 9.34 -1 9 C-0.67 6.03 -0.34 3.06 0 0 Z " fill="#DFE5EB" transform="translate(93,30)"/>
<path d="M0 0 C0.3125 3.25 0.3125 3.25 0 7 C-2.79586484 10.3042039 -4.37281678 10.93621866 -8.6875 11.375 C-12 11 -12 11 -14 9 C-14.375 6.5625 -14.375 6.5625 -14 4 C-10.09241914 -0.05230608 -5.35772561 -0.15307787 0 0 Z " fill="#191E25" transform="translate(308,94)"/>
<path d="M0 0 C7.32110805 -0.85129163 13.34969322 2.19987083 20 5 C20 5.33 20 5.66 20 6 C19.29875 5.91878906 18.5975 5.83757813 17.875 5.75390625 C11.99968688 5.27032088 11.99968688 5.27032088 6.76953125 7.55859375 C5.47660333 8.84119889 4.1950318 10.13536583 2.92578125 11.44140625 C0.62669677 13.30212574 -0.57910856 13.47330778 -3.5 13.4375 C-4.655 13.293125 -5.81 13.14875 -7 13 C-5.5361389 8.60841671 -3.02168662 8.12052567 1 6 C1.15811388 2.94729537 1.15811388 2.94729537 0 0 Z " fill="#D8DEE4" transform="translate(96,10)"/>
<path d="M0 0 C0 3 0 3 -2 5.1875 C-6.01053611 7.61053223 -8.37798596 7.31335688 -13 7 C-13 6.01 -13 5.02 -13 4 C-11.59248779 3.13083113 -10.1735479 2.28014851 -8.75 1.4375 C-7.96109375 0.96183594 -7.1721875 0.48617188 -6.359375 -0.00390625 C-3.69155375 -1.13022151 -2.65498232 -1.0169313 0 0 Z " fill="#1B2027" transform="translate(98,13)"/>
<path d="M0 0 C1.33804688 0.04060547 1.33804688 0.04060547 2.703125 0.08203125 C3.37859375 0.11683594 4.0540625 0.15164062 4.75 0.1875 C5.08 1.5075 5.41 2.8275 5.75 4.1875 C4.00519803 4.60565082 2.25377443 4.99623982 0.5 5.375 C-0.96179688 5.70564453 -0.96179688 5.70564453 -2.453125 6.04296875 C-5.25 6.1875 -5.25 6.1875 -7.609375 4.73828125 C-8.15078125 4.22652344 -8.6921875 3.71476562 -9.25 3.1875 C-6.10408067 0.38704377 -4.182936 -0.16511589 0 0 Z " fill="#282D34" transform="translate(69.25,16.8125)"/>
<path d="M0 0 C1.27617188 0.02320313 2.55234375 0.04640625 3.8671875 0.0703125 C5.78917969 0.09738281 5.78917969 0.09738281 7.75 0.125 C9.23113281 0.15980469 9.23113281 0.15980469 10.7421875 0.1953125 C7.70424195 2.70773667 4.82779777 4.07759784 1.1171875 5.3828125 C-0.32527344 5.89908203 -0.32527344 5.89908203 -1.796875 6.42578125 C-4.2578125 7.1953125 -4.2578125 7.1953125 -6.2578125 7.1953125 C-5.17065654 0.3099914 -5.17065654 0.3099914 0 0 Z " fill="#C8CED4" transform="translate(108.2578125,147.8046875)"/>
<path d="M0 0 C0.928125 0.20625 1.85625 0.4125 2.8125 0.625 C1.67750606 3.91648243 0.81966624 4.6209869 -2.3125 6.375 C-3.735625 6.99375 -3.735625 6.99375 -5.1875 7.625 C-5.5175 5.645 -5.8475 3.665 -6.1875 1.625 C-3.1875 -0.375 -3.1875 -0.375 0 0 Z " fill="#E0E5EC" transform="translate(83.1875,79.375)"/>
<path d="M0 0 C0.66 0.33 1.32 0.66 2 1 C-0.64 3.64 -3.28 6.28 -6 9 C-6 6 -6 6 -3.5625 3.375 C-2.716875 2.59125 -1.87125 1.8075 -1 1 C-0.67 0.67 -0.34 0.34 0 0 Z " fill="#DFE0E1" transform="translate(808,71)"/>
</svg>
