<?xml version="1.0" encoding="UTF-8"?>
<svg version="1.1" xmlns="http://www.w3.org/2000/svg" width="891" height="160">
<path d="M0 0 C294.03 0 588.06 0 891 0 C891 52.8 891 105.6 891 160 C596.97 160 302.94 160 0 160 C0 107.2 0 54.4 0 0 Z " fill="#FDFDFD" transform="translate(0,0)"/>
<path d="M0 0 C0.99 0.33 1.98 0.66 3 1 C2.01 1.66 1.02 2.32 0 3 C0.33 3.99 0.66 4.98 1 6 C8.74136601 6.10920422 16.31395526 5.97159933 24 5 C28.18411262 11.06313969 31.36591088 15.98329845 31.375 23.5 C31.48632266 30.59896049 34.66616846 34.45391137 39.06640625 39.63671875 C41 42 41 42 41 44 C41.99 44 42.98 44 44 44 C44.33 43.01 44.66 42.02 45 41 C45.350625 41.94875 45.70125 42.8975 46.0625 43.875 C47.7714341 47.34336062 47.7714341 47.34336062 51.6875 48.375 C52.780625 48.58125 53.87375 48.7875 55 49 C54 53 54 53 53.484375 54.63671875 C51.44421661 64.59071734 52.07390596 76.04997449 57 85 C59.88965168 89.36731446 62.6203631 93.08024206 67 96 C67 96.66 67 97.32 67 98 C68.65 98.66 70.3 99.32 72 100 C72 104.29 72 108.58 72 113 C49.9600029 113.63441356 32.63702657 110.09300867 15 96 C13.93845703 95.18595703 13.93845703 95.18595703 12.85546875 94.35546875 C-0.86842876 83.23017905 -9.85850832 65.45410477 -12 48 C-13.4361572 31.15712846 -10.49833779 15.81990836 -2 1 C-1.34 0.67 -0.68 0.34 0 0 Z " fill="#0E1218" transform="translate(28,39)"/>
<path d="M0 0 C2.47917666 1.67842708 4.85654649 3.30908097 7.08203125 5.3125 C7.08203125 5.9725 7.08203125 6.6325 7.08203125 7.3125 C8.07203125 7.6425 9.06203125 7.9725 10.08203125 8.3125 C11.43359375 10.45703125 11.43359375 10.45703125 12.70703125 13.125 C13.13242188 13.99769531 13.5578125 14.87039062 13.99609375 15.76953125 C15.93891358 20.31908415 16.24244114 24.09959227 16.26953125 29.0625 C16.28113281 30.93615234 16.28113281 30.93615234 16.29296875 32.84765625 C16.10306593 35.96698593 15.65339153 37.72242297 14.39453125 40.5 C13.64142141 44.39716365 13.64142141 44.39716365 16.2578125 47.09765625 C19.04785861 50.01123624 22.0510323 52.65314942 25.08203125 55.3125 C29.23249778 58.96265562 29.96466997 61.41600114 30.31640625 66.8359375 C29.91895265 71.03569718 28.19991554 72.5410473 25.08203125 75.3125 C21.80615194 77.63731758 19.03575933 77.92076586 15.08203125 77.3125 C9.83443217 74.43989188 6.06119929 70.19446725 2.08203125 65.8125 C-0.36398534 63.20428937 -0.36398534 63.20428937 -2.91796875 61.3125 C-6.5434025 61.46881082 -6.5434025 61.46881082 -8.7265625 62.50390625 C-15.25442098 64.9125813 -23.39409303 63.83244965 -29.765625 61.34375 C-38.76929136 57.02983363 -45.57843269 50.83836785 -49.85546875 41.6875 C-52.70716903 32.75811351 -51.86164895 22.29310271 -48.2421875 13.74609375 C-43.40460184 4.85578147 -35.53892726 -0.94289914 -26.0390625 -4.18359375 C-17.2452367 -6.27273468 -7.75318677 -4.48377066 0 0 Z " fill="#10141A" transform="translate(135.91796875,75.6875)"/>
<path d="M0 0 C6.83610701 0.11786391 6.83610701 0.11786391 9.7265625 2.30859375 C12.57673115 5.47301176 14.35714138 8.62160572 15.9375 12.5625 C17.80532822 17.11875043 20.52071546 20.74071174 25 23 C27.11904406 22.94941043 27.11904406 22.94941043 29 22 C29.66 21.01 30.32 20.02 31 19 C33.609621 18.61588725 36.0058074 18.39706803 38.625 18.3125 C39.68460938 18.26125977 39.68460938 18.26125977 40.765625 18.20898438 C42.50985688 18.12648692 44.25490395 18.06156665 46 18 C52.86298613 30.28230204 57.12403102 40.86226815 58 55 C58.06574219 55.97710937 58.13148438 56.95421875 58.19921875 57.9609375 C58.59794745 69.09784259 56.31003336 80.15589803 51 90 C50.67 90 50.34 90 50 90 C49.93683594 89.07960938 49.87367188 88.15921875 49.80859375 87.2109375 C48.65725746 75.30975601 45.71525747 64.52898772 36.25 56.375 C25.9768162 49.19763321 15.28918496 47.57736036 3 49 C0.65563201 49.62675961 -1.68073148 50.28593949 -4 51 C-4.99 51 -5.98 51 -7 51 C-1.22266443 43.81321783 4.75481528 36.88069506 14.41015625 35.70703125 C16.625 35.6875 16.625 35.6875 20 36 C18.84665164 30.74585746 16.51854642 28.19682367 12.65625 24.7109375 C11 23 11 23 9.9765625 20.859375 C9.07195402 18.62849014 9.07195402 18.62849014 5.875 17.875 C4.59625 17.58625 3.3175 17.2975 2 17 C0.52005664 16.62807706 -0.95912954 16.25312672 -2.4375 15.875 C-3.613125 15.58625 -4.78875 15.2975 -6 15 C-5.979375 15.969375 -5.95875 16.93875 -5.9375 17.9375 C-6 21 -6 21 -7 22 C-10.5 22.125 -10.5 22.125 -14 22 C-15 21 -15 21 -15.0625 18.4375 C-15.041875 17.633125 -15.02125 16.82875 -15 16 C-13.02 15.67 -11.04 15.34 -9 15 C-8.67 12.03 -8.34 9.06 -8 6 C-5.69 6.66 -3.38 7.32 -1 8 C-1 9.65 -1 11.3 -1 13 C1.97 13.33 4.94 13.66 8 14 C6.95934582 9.83738329 6.44489383 9.15326776 3.4375 6.4375 C1.49609375 4.68359375 1.49609375 4.68359375 0 3 C0 2.01 0 1.02 0 0 Z " fill="#12161C" transform="translate(107,19)"/>
<path d="M0 0 C3.12465186 1.6748134 5.39254192 3.78508385 7 7 C7.33 5.02 7.66 3.04 8 1 C11.63 1 15.26 1 19 1 C19.14865495 7.99250036 19.25736566 14.98407496 19.32958984 21.9777832 C19.35970659 24.3552249 19.40060932 26.732556 19.45263672 29.10961914 C19.52567251 32.53299279 19.55950887 35.9548939 19.5859375 39.37890625 C19.61690521 40.43646622 19.64787292 41.49402618 19.67977905 42.58363342 C19.68256104 48.72549558 18.99015288 52.23474661 14.63369751 56.68809509 C7.88638762 62.10637412 -0.72774807 61.88596877 -9 61 C-13.38651786 59.6421098 -16.96536267 57.47829776 -20 54 C-20.6875 51.3125 -20.6875 51.3125 -21 49 C-17.30516081 47.81765146 -13.85646386 47.7195299 -10 48 C-8.1875 49.4375 -8.1875 49.4375 -7 51 C-4.56539024 52.21730488 -3.25609714 52.04691814 -0.5625 51.8125 C0.21996094 51.75707031 1.00242187 51.70164063 1.80859375 51.64453125 C4.12223834 51.14899028 4.12223834 51.14899028 5.7734375 49.27734375 C7.24437975 46.54626308 7.30909992 44.83053143 7.1875 41.75 C7.16042969 40.85796875 7.13335938 39.9659375 7.10546875 39.046875 C7.05326172 38.03367187 7.05326172 38.03367187 7 37 C6.21625 37.804375 5.4325 38.60875 4.625 39.4375 C1.13567515 42.84374569 -0.48927146 43.18892918 -5.25 43.3125 C-10.3666492 43.23902331 -13.18108168 42.63706507 -17 39 C-22.61645694 31.25632912 -23.76883371 25.6158357 -23 16 C-21.39748435 9.1870192 -18.84097689 4.85255922 -13 1 C-8.64838388 -0.45053871 -4.54303712 -0.6490053 0 0 Z " fill="#12161B" transform="translate(700,64)"/>
<path d="M0 0 C11 0 11 0 13.48291016 1.81323242 C13.99644043 2.65217041 14.5099707 3.4911084 15.0390625 4.35546875 C15.63976562 5.28939453 16.24046875 6.22332031 16.859375 7.18554688 C17.73335937 8.67151367 17.73335937 8.67151367 18.625 10.1875 C19.82460814 12.09822957 21.02513969 14.00837969 22.2265625 15.91796875 C23.47179687 17.92503906 24.71703125 19.93210937 26 22 C28.97 26.29 31.94 30.58 35 35 C35.33 23.45 35.66 11.9 36 0 C39.96 0 43.92 0 48 0 C48 19.14 48 38.28 48 58 C44.37 58 40.74 58 37 58 C34.61695806 54.94251223 32.93886266 52.36126145 31.15966797 49.00927734 C28.65518805 44.66993634 25.6479033 40.6443859 22.75 36.5625 C22.13471436 35.68625977 21.51942871 34.81001953 20.88549805 33.90722656 C18.30308528 30.23114867 15.6960673 26.5947564 13 23 C12.67 34.55 12.34 46.1 12 58 C8.04 58 4.08 58 0 58 C0 38.86 0 19.72 0 0 Z " fill="#13171D" transform="translate(507,50)"/>
<path d="M0 0 C11 0 11 0 13.296875 1.6328125 C13.77640625 2.45523438 14.2559375 3.27765625 14.75 4.125 C15.36488281 5.10726562 15.97976562 6.08953125 16.61328125 7.1015625 C16.96729004 7.69227539 17.32129883 8.28298828 17.68603516 8.89160156 C19.30810397 11.49438607 21.04466474 14.0037353 22.79296875 16.5234375 C28.26842437 24.4175868 28.26842437 24.4175868 30.90234375 28.28125 C31.47460693 29.11720703 32.04687012 29.95316406 32.63647461 30.81445312 C34 33 34 33 35 36 C35.66 36 36.32 36 37 36 C37 24.12 37 12.24 37 0 C40.63 0 44.26 0 48 0 C48 19.14 48 38.28 48 58 C38 58 38 58 35.53881836 56.0949707 C34.97815674 55.21413818 34.41749512 54.33330566 33.83984375 53.42578125 C33.19080078 52.44673828 32.54175781 51.46769531 31.87304688 50.45898438 C31.23431641 49.42064453 30.59558594 48.38230469 29.9375 47.3125 C28.63420412 45.30853552 27.330818 43.30462972 26.02734375 41.30078125 C24.69832031 39.22152344 23.36929688 37.14226562 22 35 C19.03 30.71 16.06 26.42 13 22 C12.67 33.88 12.34 45.76 12 58 C8.04 58 4.08 58 0 58 C0 38.86 0 19.72 0 0 Z " fill="#11151A" transform="translate(231,50)"/>
<path d="M0 0 C5.28804574 3.15462767 9.14302414 7.22719675 11.85546875 12.78125 C13.55713668 20.98019548 13.18702218 27.55465518 9.03125 34.9296875 C5.61250549 39.90077532 1.52026652 42.82932163 -4.45703125 44.09375 C-11.32417209 44.84520481 -16.77506539 44.20302888 -22.45703125 40.09375 C-26.79036167 36.07639159 -30.12842712 31.28075992 -30.7421875 25.328125 C-30.96037151 17.77706096 -30.68846788 11.52978411 -25.359375 5.86328125 C-18.09728263 -0.8083971 -9.80085334 -3.61494114 0 0 Z " fill="#15181E" transform="translate(417.45703125,64.90625)"/>
<path d="M0 0 C4.68914926 3.50326232 7.25768834 7.28738525 8.40234375 13.0546875 C9.32003297 20.24325307 9.26959155 26.79434067 5.68359375 33.2578125 C1.68105445 38.2895762 -3.35161304 41.55699799 -9.703125 42.6796875 C-16.44672973 43.06080174 -21.80347823 41.10474579 -27.31640625 37.2578125 C-32.71920193 30.90952758 -33.93083482 24.33888395 -33.31640625 16.2578125 C-32.6077986 9.43460662 -30.58702144 4.77024174 -25.31640625 0.2578125 C-17.78303514 -4.41287759 -7.66912987 -4.56002317 0 0 Z " fill="#13171D" transform="translate(838.31640625,66.7421875)"/>
<path d="M0 0 C5.1349249 4.3636296 7.59208195 9.04934159 8.28515625 15.76171875 C8.63409344 22.89256334 7.78320298 27.6032448 3 33 C-1.72789141 37.83928152 -6.52017147 40.27670292 -13.3125 40.375 C-19.65298269 40.23012338 -24.11068684 38.71556827 -28.75390625 34.3515625 C-34.41278747 28.10633937 -35.53148024 22.58552883 -35.37109375 14.2265625 C-34.70416515 8.42779383 -32.28418307 5.06254946 -28.02734375 1.21875 C-19.17656052 -5.7957025 -9.73127081 -5.54910258 0 0 Z " fill="#FBFBFB" transform="translate(132,87)"/>
<path d="M0 0 C3.66350355 2.58346123 5.27038236 4.8749271 6.65625 9.16796875 C6.88330078 12.6730957 6.88330078 12.6730957 6.8515625 16.65625 C6.8487326 17.3594487 6.84590271 18.0626474 6.84298706 18.78715515 C6.83185151 21.01843767 6.80675997 23.24930892 6.78125 25.48046875 C6.7712116 26.99934313 6.76208726 28.51822385 6.75390625 30.03710938 C6.73193413 33.74752796 6.69745047 37.45770817 6.65625 41.16796875 C2.69625 41.16796875 -1.26375 41.16796875 -5.34375 41.16796875 C-5.67375 39.84796875 -6.00375 38.52796875 -6.34375 37.16796875 C-7.08625 37.80734375 -7.82875 38.44671875 -8.59375 39.10546875 C-13.08141958 42.47122093 -16.7624449 42.55288634 -22.34375 42.16796875 C-26.97369259 40.44308818 -29.97097164 38.54848264 -32.34375 34.16796875 C-33.21137584 29.62160933 -33.67221787 25.19879879 -31.05078125 21.19140625 C-25.12352029 15.6846146 -17.96846134 15.0749563 -10.2265625 14.4140625 C-8.25727564 14.26119879 -8.25727564 14.26119879 -6.34375 13.16796875 C-6.34375 11.51796875 -6.34375 9.86796875 -6.34375 8.16796875 C-8.67061453 7.00453648 -10.19096413 6.96900887 -12.78125 6.91796875 C-13.95494141 6.87929687 -13.95494141 6.87929687 -15.15234375 6.83984375 C-17.43132454 6.95152128 -17.43132454 6.95152128 -18.7734375 8.671875 C-20.34375 10.16796875 -20.34375 10.16796875 -23.04296875 10.4609375 C-24.02910156 10.42613281 -25.01523437 10.39132813 -26.03125 10.35546875 C-27.02511719 10.32839844 -28.01898438 10.30132812 -29.04296875 10.2734375 C-29.80222656 10.23863281 -30.56148438 10.20382813 -31.34375 10.16796875 C-30.06860298 4.68483656 -27.94379976 2.35261858 -23.34375 -0.83203125 C-15.86100499 -4.48639509 -7.18460626 -3.97284371 0 0 Z " fill="#161A20" transform="translate(320.34375,66.83203125)"/>
<path d="M0 0 C3.33907987 1.80711895 5.35890998 4.14582984 7.4375 7.3125 C7.78037211 10.1670025 7.90739493 12.6165575 7.828125 15.45703125 C7.82246521 16.22681808 7.81680542 16.99660492 7.81097412 17.78971863 C7.78867872 20.23545943 7.73849875 22.6797061 7.6875 25.125 C7.667426 26.78839022 7.6491768 28.45180353 7.6328125 30.11523438 C7.58883684 34.18156058 7.51985979 38.24677744 7.4375 42.3125 C3.8075 42.3125 0.1775 42.3125 -3.5625 42.3125 C-4.0575 39.8375 -4.0575 39.8375 -4.5625 37.3125 C-5.51125 38.116875 -6.46 38.92125 -7.4375 39.75 C-11.43630222 43.14028884 -14.04454224 43.61137245 -19.24609375 43.51953125 C-22.68599266 43.21208666 -24.76172685 42.33166204 -27.5625 40.3125 C-30.33244697 36.97303122 -31.45954934 34.04602346 -32.0625 29.75 C-31.45249703 25.5562296 -30.32731412 23.51386372 -27.5625 20.3125 C-23.17215746 17.70374574 -19.35957904 16.77811563 -14.3125 16.1875 C-9.78361642 15.76996108 -9.78361642 15.76996108 -5.5625 14.3125 C-5.519779 12.64638095 -5.52186168 10.97867115 -5.5625 9.3125 C-7.14172406 7.73327594 -8.75693874 8.104841 -10.9375 8.0625 C-11.72898437 8.03671875 -12.52046875 8.0109375 -13.3359375 7.984375 C-15.6462727 8.09147852 -15.6462727 8.09147852 -16.99609375 9.81640625 C-18.5625 11.3125 -18.5625 11.3125 -21.26171875 11.60546875 C-22.24785156 11.57066406 -23.23398437 11.53585938 -24.25 11.5 C-25.24386719 11.47292969 -26.23773437 11.44585937 -27.26171875 11.41796875 C-28.02097656 11.38316406 -28.78023437 11.34835938 -29.5625 11.3125 C-29.0757738 7.03520913 -27.98453651 5.29191484 -24.6875 2.5625 C-23.98882813 1.96953125 -23.29015625 1.3765625 -22.5703125 0.765625 C-16.63067079 -3.53310402 -6.45189618 -3.01900048 0 0 Z " fill="#15191F" transform="translate(594.5625,65.6875)"/>
<path d="M0 0 C3.33907987 1.80711895 5.35890998 4.14582984 7.4375 7.3125 C7.78037211 10.1670025 7.90739493 12.6165575 7.828125 15.45703125 C7.82246521 16.22681808 7.81680542 16.99660492 7.81097412 17.78971863 C7.78867872 20.23545943 7.73849875 22.6797061 7.6875 25.125 C7.667426 26.78839022 7.6491768 28.45180353 7.6328125 30.11523438 C7.58883684 34.18156058 7.51985979 38.24677744 7.4375 42.3125 C3.8075 42.3125 0.1775 42.3125 -3.5625 42.3125 C-4.0575 39.8375 -4.0575 39.8375 -4.5625 37.3125 C-5.42875 38.240625 -5.42875 38.240625 -6.3125 39.1875 C-9.56022964 42.25480021 -11.39046877 43.20193102 -15.875 43.625 C-21.17820852 43.17557555 -24.88409298 41.68965448 -29 38.3125 C-31.38931696 33.72501144 -31.4526905 29.37212977 -30.5625 24.3125 C-27.69964532 20.41583668 -24.46942573 17.83668148 -19.64941406 16.9675293 C-17.37302086 16.66918919 -15.09668286 16.41856991 -12.8125 16.1875 C-11.62333984 16.05794922 -11.62333984 16.05794922 -10.41015625 15.92578125 C-8.46166859 15.71449946 -6.51217024 15.51257533 -4.5625 15.3125 C-5.2225 13.0025 -5.8825 10.6925 -6.5625 8.3125 C-7.99905854 8.23118537 -9.4369483 8.17316441 -10.875 8.125 C-11.67550781 8.09019531 -12.47601562 8.05539063 -13.30078125 8.01953125 C-15.64290221 8.08255203 -15.64290221 8.08255203 -17 9.8125 C-18.5625 11.3125 -18.5625 11.3125 -21.26171875 11.60546875 C-22.24785156 11.57066406 -23.23398437 11.53585938 -24.25 11.5 C-25.24386719 11.47292969 -26.23773437 11.44585937 -27.26171875 11.41796875 C-28.02097656 11.38316406 -28.78023437 11.34835938 -29.5625 11.3125 C-29.0757738 7.03520913 -27.98453651 5.29191484 -24.6875 2.5625 C-23.98882813 1.96953125 -23.29015625 1.3765625 -22.5703125 0.765625 C-16.63067079 -3.53310402 -6.45189618 -3.01900048 0 0 Z " fill="#14181E" transform="translate(758.5625,65.6875)"/>
<path d="M0 0 C3.96 0 7.92 0 12 0 C12.33 1.98 12.66 3.96 13 6 C13.78375 5.195625 14.5675 4.39125 15.375 3.5625 C18.55928501 0.4540313 19.94456258 -0.16213393 24.25 -0.25 C29.66558323 -0.180458 33.06369289 1.48235388 37.3125 4.8125 C40.72002091 9.22965674 40.11984096 14.99848827 40.09765625 20.3671875 C40.0962413 21.04677521 40.09482635 21.72636292 40.09336853 22.42654419 C40.08781518 24.57607612 40.07527169 26.72550008 40.0625 28.875 C40.05747896 30.34114432 40.05291711 31.80729029 40.04882812 33.2734375 C40.03786111 36.84899283 40.02062919 40.42448586 40 44 C36.04 44 32.08 44 28 44 C27.98541748 43.0713916 27.97083496 42.1427832 27.95581055 41.18603516 C27.89480828 37.74533504 27.8206695 34.30544348 27.73754883 30.86523438 C27.70426537 29.37543428 27.67624403 27.88550705 27.65356445 26.39550781 C27.62007929 24.25530748 27.56777211 22.11627581 27.51171875 19.9765625 C27.48553467 18.68830566 27.45935059 17.40004883 27.43237305 16.07275391 C27.28968994 15.05874512 27.14700684 14.04473633 27 13 C23.28986601 10.52657734 21.38939738 10.61496514 17 11 C14.70310027 11.9923317 14.70310027 11.9923317 13 14 C12.35402587 17.18823344 12.35402587 17.18823344 12.390625 20.85546875 C12.37408875 21.51710526 12.35755249 22.17874176 12.34051514 22.86042786 C12.29200712 24.96954601 12.27066073 27.07794323 12.25 29.1875 C12.22184223 30.61917695 12.19191505 32.05082028 12.16015625 33.48242188 C12.08625107 36.98812393 12.03669212 40.49368875 12 44 C8.04 44 4.08 44 0 44 C0 29.48 0 14.96 0 0 Z " fill="#171B20" transform="translate(438,64)"/>
<path d="M0 0 C0.81791016 0.67482422 0.81791016 0.67482422 1.65234375 1.36328125 C0.96269531 1.28207031 0.27304688 1.20085938 -0.4375 1.1171875 C-6.27549725 0.60810305 -6.27549725 0.60810305 -11.44921875 2.88671875 C-12.41988281 3.83417969 -12.41988281 3.83417969 -13.41015625 4.80078125 C-18.44095868 9.40851803 -23.63683452 9.097594 -30.14086914 8.92358398 C-32.71090266 8.85156548 -32.71090266 8.85156548 -36.34765625 9.36328125 C-37.39973237 10.99757425 -38.40283484 12.6647259 -39.34765625 14.36328125 C-42.52734375 14.88671875 -42.52734375 14.88671875 -46.22265625 14.73828125 C-47.43695313 14.70476563 -48.65125 14.67125 -49.90234375 14.63671875 C-53.34765625 14.36328125 -53.34765625 14.36328125 -55.98046875 13.65234375 C-59.25612906 13.25234563 -60.56939193 14.65955151 -63.34765625 16.36328125 C-66.94140625 17.0234375 -66.94140625 17.0234375 -70.84765625 17.42578125 C-76.11019347 17.95595061 -76.11019347 17.95595061 -81.12890625 19.484375 C-83.34765625 20.36328125 -83.34765625 20.36328125 -86.34765625 19.36328125 C-83.40130963 15.36823499 -80.10298078 12.33119678 -76.16015625 9.36328125 C-75.58209229 8.92612793 -75.00402832 8.48897461 -74.40844727 8.03857422 C-55.82578782 -5.80347907 -20.68424337 -14.42046252 0 0 Z " fill="#13171D" transform="translate(120.34765625,9.63671875)"/>
<path d="M0 0 C4.29 0 8.58 0 13 0 C13.48210938 1.86527344 13.96421875 3.73054688 14.4609375 5.65234375 C15.09853506 8.08084034 15.73657891 10.50921978 16.375 12.9375 C16.69210937 14.16919922 17.00921875 15.40089844 17.3359375 16.66992188 C17.6453125 17.83974609 17.9546875 19.00957031 18.2734375 20.21484375 C18.55622559 21.29886475 18.83901367 22.38288574 19.13037109 23.49975586 C19.72781389 26.15468617 19.72781389 26.15468617 22 27 C22.96244398 24.00130342 23.91918473 21.00081538 24.875 18 C25.14441406 17.16082031 25.41382813 16.32164063 25.69140625 15.45703125 C27.31811425 10.33885242 28.75439609 5.22428046 30 0 C34.29 0 38.58 0 43 0 C41.35697564 6.40779501 39.51037418 12.44330148 36.96484375 18.54296875 C36.01394411 20.9644905 35.2689888 23.37235324 34.5625 25.875 C32.86531084 31.79630442 30.43250508 37.34606927 28 43 C23.38 43 18.76 43 14 43 C13.52949219 41.49308594 13.05898438 39.98617187 12.57421875 38.43359375 C11.94550163 36.43483633 11.31658482 34.43614172 10.6875 32.4375 C10.2244043 30.9515332 10.2244043 30.9515332 9.75195312 29.43554688 C7.80750678 23.25822574 7.80750678 23.25822574 5.40625 17.25 C3.88683006 13.7384517 2.83060931 10.24875785 1.8125 6.5625 C1.46832031 5.32628906 1.12414062 4.09007813 0.76953125 2.81640625 C0.51558594 1.88699219 0.26164063 0.95757812 0 0 Z " fill="#15191F" transform="translate(607,65)"/>
<path d="M0 0 C3.96 0 7.92 0 12 0 C12 3.63 12 7.26 12 11 C14.64 11 17.28 11 20 11 C20 13.64 20 16.28 20 19 C17.36 19 14.72 19 12 19 C12.33 26.92 12.66 34.84 13 43 C15.31 43.99 17.62 44.98 20 46 C21.22848552 48.7813763 20.94909869 50.8950199 21 54 C18.77191841 54.10853983 16.54230068 54.18583307 14.3125 54.25 C13.07113281 54.29640625 11.82976562 54.3428125 10.55078125 54.390625 C6.38504731 53.93234844 4.88867646 52.97715845 2 50 C-0.20959266 46.56531042 -0.23337396 43.73764007 -0.1953125 39.703125 C-0.18564453 37.89521484 -0.18564453 37.89521484 -0.17578125 36.05078125 C-0.15902344 34.79652344 -0.14226562 33.54226562 -0.125 32.25 C-0.11597656 30.98027344 -0.10695313 29.71054688 -0.09765625 28.40234375 C-0.07409005 25.26803907 -0.04118832 22.13411459 0 19 C-1.98 19 -3.96 19 -6 19 C-6 16.03 -6 13.06 -6 10 C-4.02 10 -2.04 10 0 10 C0 6.7 0 3.4 0 0 Z " fill="#15191F" transform="translate(339,54)"/>
<path d="M0 0 C3.96 0 7.92 0 12 0 C12 3.3 12 6.6 12 10 C14.64 10 17.28 10 20 10 C20 12.97 20 15.94 20 19 C17.36 19 14.72 19 12 19 C12.33 27.25 12.66 35.5 13 44 C14.98 44.33 16.96 44.66 19 45 C19.33 47.97 19.66 50.94 20 54 C7.10292861 54.86108043 7.10292861 54.86108043 3.25 51.625 C-0.11498531 47.6991838 -0.12069025 45.79323593 -0.09765625 40.6796875 C-0.09443359 39.42285156 -0.09121094 38.16601562 -0.08789062 36.87109375 C-0.07951172 35.55238281 -0.07113281 34.23367187 -0.0625 32.875 C-0.05748489 31.53515789 -0.05292201 30.195314 -0.04882812 28.85546875 C-0.03701086 25.57026794 -0.02053617 22.28515603 0 19 C-1.98 19 -3.96 19 -6 19 C-6 16.36 -6 13.72 -6 11 C-4.02 11 -2.04 11 0 11 C0 7.37 0 3.74 0 0 Z " fill="#15191F" transform="translate(779,54)"/>
<path d="M0 0 C3.96 0 7.92 0 12 0 C12.33 1.98 12.66 3.96 13 6 C13.928125 4.7934375 13.928125 4.7934375 14.875 3.5625 C17 1 17 1 19 0 C21.6723621 -0.13415472 24.32250488 -0.04318541 27 0 C27 3.63 27 7.26 27 11 C25.618125 10.896875 24.23625 10.79375 22.8125 10.6875 C19.23625627 10.42061614 18.23932232 10.80581931 15.390625 13.1171875 C12.52578381 16.57184894 12.35364215 18.1841231 12.29296875 22.61328125 C12.26396484 23.86044922 12.23496094 25.10761719 12.20507812 26.39257812 C12.19927734 27.68615234 12.19347656 28.97972656 12.1875 30.3125 C12.16236328 31.62541016 12.13722656 32.93832031 12.11132812 34.29101562 C12.05249165 37.52702167 12.02337559 40.76354354 12 44 C8.04 44 4.08 44 0 44 C0 29.48 0 14.96 0 0 Z " fill="#1A1E24" transform="translate(855,64)"/>
<path d="M0 0 C3.96 0 7.92 0 12 0 C12 14.52 12 29.04 12 44 C8.04 44 4.08 44 0 44 C0 29.48 0 14.96 0 0 Z " fill="#191C22" transform="translate(657,64)"/>
<path d="M0 0 C3.96 0 7.92 0 12 0 C12 14.52 12 29.04 12 44 C8.04 44 4.08 44 0 44 C0 29.48 0 14.96 0 0 Z " fill="#171B21" transform="translate(367,64)"/>
<path d="M0 0 C2.84682739 1.87716566 4.51815241 3.93610872 6 7 C6.91902937 12.70123526 6.56373796 17.78591132 4 23 C2.34574708 25.20246465 1.5672507 25.89518194 -1.15625 26.3984375 C-1.9296875 26.39070313 -2.703125 26.38296875 -3.5 26.375 C-4.2734375 26.38273437 -5.046875 26.39046875 -5.84375 26.3984375 C-8.5672507 25.89518194 -9.34574708 25.20246465 -11 23 C-13.59864837 17.78532099 -13.56684919 12.71143506 -13 7 C-10.36027705 0.84064646 -6.60916941 -1.00817838 0 0 Z " fill="#F5F5F5" transform="translate(412,73)"/>
<path d="M0 0 C2.69990662 1.79993774 4.5418865 3.083773 6 6 C6.96984925 19.50328566 6.96984925 19.50328566 3 25 C-0.19491759 26.59745879 -3.53209389 26.50816842 -7 26 C-9.96858157 23.79259319 -10.82865791 22.51402627 -12 19 C-12.17066284 16.87930439 -12.2662598 14.75204902 -12.3125 12.625 C-12.34988281 11.50351563 -12.38726563 10.38203125 -12.42578125 9.2265625 C-11.91371636 5.34614414 -10.70908823 3.76437575 -8 1 C-5.14675563 -0.42662219 -3.16545451 -0.31033868 0 0 Z " fill="#F8F8F8" transform="translate(829,73)"/>
<path d="M0 0 C3.58744069 2.82415544 4.72522184 4.36696882 5.48046875 8.85546875 C5.69430241 13.50779576 5.76486854 17.79531433 3.0625 21.75 C-0.49043077 24.36031649 -2.503538 24.9099836 -6.83984375 24.5625 C-9.68376282 23.82194965 -11.51793456 22.54692503 -13.18359375 20.109375 C-14.96534574 15.50580527 -14.84162962 10.80649416 -14 6 C-10.72653037 -0.39048666 -6.76956576 -1.72107604 0 0 Z " fill="#F3F3F3" transform="translate(703,74)"/>
<path d="M0 0 C6.95776959 1.36874156 13.38603107 3.4533129 20 6 C20 6.33 20 6.66 20 7 C19.31035156 6.91878906 18.62070313 6.83757813 17.91015625 6.75390625 C12.0687176 6.36127183 8.78185574 6.60996148 4.25 10.5 C3.53457031 11.14066406 2.81914063 11.78132812 2.08203125 12.44140625 C-0.18842703 14.14105513 -1.26886177 14.47668931 -4.0625 14.4375 C-5.031875 14.293125 -6.00125 14.14875 -7 14 C-7 13.34 -7 12.68 -7 12 C-9.475 11.01 -9.475 11.01 -12 10 C-8.17819158 5.5991297 -5.52628901 4.19194469 0 3 C0 2.01 0 1.02 0 0 Z " fill="#272B30" transform="translate(102,4)"/>
<path d="M0 0 C0.41271158 4.20965814 0.42484735 6.35587659 -1.9375 9.9375 C-5.92622648 12.62378518 -9.29580032 12.87799405 -14 12 C-16 10 -16 10 -16.375 7.5625 C-16 5 -16 5 -14.5625 3.3125 C-10.03136886 0.99167673 -5.07726824 0 0 0 Z " fill="#F3F3F4" transform="translate(315,88)"/>
<path d="M0 0 C0.47567568 7.13513514 0.47567568 7.13513514 -1.375 10.5 C-5.39204745 12.79545569 -9.47017205 12.50331422 -14 12 C-15 11 -15 11 -15.0625 7.4375 C-15.041875 6.303125 -15.02125 5.16875 -15 4 C-9.95670912 1.23819785 -5.74703318 0 0 0 Z " fill="#F2F2F3" transform="translate(590,88)"/>
<path d="M0 0 C0.47792208 7.16883117 0.47792208 7.16883117 -1.4375 10.5 C-5.14588244 12.67076045 -8.79101001 12.69878984 -13 12 C-15 10 -15 10 -15.3125 7.5625 C-15 5 -15 5 -13.83203125 3.4140625 C-11.40815768 1.54318354 -9.3856885 1.27721049 -6.375 0.8125 C-4.90160156 0.57466797 -4.90160156 0.57466797 -3.3984375 0.33203125 C-1 0 -1 0 0 0 Z " fill="#F6F6F6" transform="translate(754,88)"/>
<path d="M0 0 C2.31 0.66 4.62 1.32 7 2 C7 3.65 7 5.3 7 7 C9.97 7.495 9.97 7.495 13 8 C12.01 8.495 12.01 8.495 11 9 C10.67 9.66 10.34 10.32 10 11 C7.36 10.34 4.72 9.68 2 9 C2.020625 9.969375 2.04125 10.93875 2.0625 11.9375 C2 15 2 15 1 16 C-2.5 16.125 -2.5 16.125 -6 16 C-7 15 -7 15 -7.0625 12.4375 C-7.041875 11.633125 -7.02125 10.82875 -7 10 C-5.02 9.67 -3.04 9.34 -1 9 C-0.67 6.03 -0.34 3.06 0 0 Z " fill="#22252B" transform="translate(99,25)"/>
<path d="M0 0 C1.9375 1.0625 1.9375 1.0625 3 3 C2.875 6.5625 2.875 6.5625 2 10 C-1 12 -1 12 -4.0625 11.75 C-7 11 -7 11 -9 9 C-9.3125 5.5 -9.3125 5.5 -9 2 C-5.53076119 -0.31282587 -4.07794425 -0.42478586 0 0 Z " fill="#181C22" transform="translate(666,47)"/>
<path d="M0 0 C0.99 0.66 1.98 1.32 3 2 C3.4375 5.4375 3.4375 5.4375 3 9 C1.3125 11 1.3125 11 -1 12 C-3.85343764 11.86080792 -5.46462886 11.36922147 -7.8125 9.75 C-9.45364719 7.3314673 -9.42967368 5.86449123 -9 3 C-6.72678821 -0.66239677 -4.03980218 -0.42081273 0 0 Z " fill="#171B20" transform="translate(376,47)"/>
<path d="M0 0 C0.33 0.99 0.66 1.98 1 3 C-3.90924297 6.92739438 -6.73920552 7.43177893 -13 7 C-13 6.01 -13 5.02 -13 4 C-5.03846154 -2.01538462 -5.03846154 -2.01538462 0 0 Z " fill="#F2F2F2" transform="translate(104,8)"/>
<path d="M0 0 C1.33804688 0.04060547 1.33804688 0.04060547 2.703125 0.08203125 C3.37859375 0.11683594 4.0540625 0.15164063 4.75 0.1875 C5.08 1.5075 5.41 2.8275 5.75 4.1875 C4.00519803 4.60565082 2.25377443 4.99623982 0.5 5.375 C-0.96179688 5.70564453 -0.96179688 5.70564453 -2.453125 6.04296875 C-5.25 6.1875 -5.25 6.1875 -7.609375 4.73828125 C-8.15078125 4.22652344 -8.6921875 3.71476563 -9.25 3.1875 C-6.10408067 0.38704377 -4.182936 -0.16511589 0 0 Z " fill="#E8E8E9" transform="translate(75.25,11.8125)"/>
<path d="M0 0 C1.65322266 0.01740234 1.65322266 0.01740234 3.33984375 0.03515625 C4.99693359 0.04869141 4.99693359 0.04869141 6.6875 0.0625 C7.54214844 0.07410156 8.39679688 0.08570313 9.27734375 0.09765625 C6.31387589 2.5695208 3.73692686 3.76013986 0.02734375 4.78515625 C-0.8646875 5.03652344 -1.75671875 5.28789062 -2.67578125 5.546875 C-3.35125 5.72863281 -4.02671875 5.91039062 -4.72265625 6.09765625 C-3.65171431 0.13097971 -3.65171431 0.13097971 0 0 Z " fill="#1A1E23" transform="translate(112.72265625,143.90234375)"/>
<path d="M0 0 C-2.65654657 3.73884332 -4.58110387 5.64978174 -9 7 C-9.33 5.02 -9.66 3.04 -10 1 C-6.42181037 -1.33958553 -4.07775191 -0.9267618 0 0 Z " fill="#1E2228" transform="translate(93,75)"/>
</svg>
