<svg xmlns="http://www.w3.org/2000/svg" width="604" height="604" viewBox="0 0 604 604">
  <defs>
    <style>
      .cls-1, .cls-3 {
        fill: #2e90fa;
      }

      .cls-2 {
        fill: #1e1e1e;
      }

      .cls-2, .cls-3 {
        fill-rule: evenodd;
      }
    </style>
  </defs>
  <circle class="cls-1" cx="302" cy="302" r="302"/>
  <path class="cls-2" d="M425.5,123.541a7,7,0,0,1,7,7V431.459a7,7,0,1,1-14,0V130.541A7,7,0,0,1,425.5,123.541Z"/>
  <path class="cls-2" d="M171,404s-2.093,100.1,61,72c0,0,26-13.151,42.617-56q0.192-.5.383-1c16.593-43.645,35-52,35-52s-4.022-34.558,21-42c0,0,31.311-8.558,41,22h20V190s-0.355-6.891-7-7c0,0-55.022,1.442-68-4,0,0-61.022-20.891-76-11C241,168,176,163,171,404Z"/>
  <path class="cls-2" d="M273.508,154.579l47.8,10.38s-5.409-19.1-16.994-20.759C304.311,144.2,283.068,139.529,273.508,154.579Z"/>
  <path class="cls-2" d="M341.548,334.332a21.8,21.8,0,1,1-22.305,21.8A22.054,22.054,0,0,1,341.548,334.332Z"/>
  <path class="cls-3" d="M281.5,206.2a20.28,20.28,0,0,1,20.28,20.279v59.441a20.28,20.28,0,0,1-40.56,0V226.478A20.28,20.28,0,0,1,281.5,206.2Z"/>
  <path id="Rectangle_2_copy" data-name="Rectangle 2 copy" class="cls-3" d="M331.5,255.494A20.28,20.28,0,0,1,311.5,276.058l-59.435.837a20.28,20.28,0,0,1-.571-40.555l59.435-.838A20.279,20.279,0,0,1,331.5,255.494Z"/>
</svg>
